<?xml version="1.0" encoding="UTF-8" standalone="no"?>
<svg width="335.844mm" height="216.253mm"
 viewBox="0 0 952 613"
 xmlns="http://www.w3.org/2000/svg" xmlns:xlink="http://www.w3.org/1999/xlink"  version="1.2" baseProfile="tiny">
<title>Qt SVG Document</title>
<desc>MATLAB, The MathWorks, Inc. Version 25.1.0.2973910 R2025a Update 1</desc>
<defs>
</defs>
<g fill="none" stroke="black" stroke-width="1" fill-rule="evenodd" stroke-linecap="square" stroke-linejoin="bevel" >

<g fill="#ffffff" fill-opacity="1" stroke="none" transform="matrix(0.615618,0,0,0.593575,-59.9796,-11.5289)"
font-family="SimSun" font-size="9" font-weight="400" font-style="normal" 
>
<path vector-effect="none" fill-rule="evenodd" d="M96,18 L1643,18 L1643,1052 L96,1052 L96,18"/>
</g>

<g fill="#ffffff" fill-opacity="1" stroke="none" transform="matrix(6.15618e-05,0,0,5.93575e-05,-59.9796,-11.5289)"
font-family="SimSun" font-size="9" font-weight="400" font-style="normal" 
>
<path vector-effect="none" fill-rule="evenodd" d="M2.32e+06,870000 L2.32e+06,9.31e+06 L1.615e+07,9.31e+06 L1.615e+07,870000 L2.32e+06,870000"/>
</g>

<g fill="#212121" fill-opacity="1" stroke="none" transform="matrix(0.615618,0,0,0.593575,501.96,610.656)"
font-family="SimSun" font-size="9" font-weight="400" font-style="normal" 
>
<path vector-effect="none" fill-rule="evenodd" d="M5.60938,-6.60938 L5.60938,-21.7813 L1.04688,-21.7813 L1.04688,-23.2031 C3.44271,-23.2031 5.20573,-24.3229 6.33594,-26.5625 C7.46615,-28.8021 8.03125,-31.2292 8.03125,-33.8438 L9.60938,-33.8438 L9.60938,-23.7188 L17.375,-23.7188 L17.375,-21.7813 L9.60938,-21.7813 L9.60938,-6.73438 C9.60938,-5.21354 9.86458,-3.88021 10.375,-2.73438 C10.8854,-1.58854 11.8021,-1.01563 13.125,-1.01563 C14.3854,-1.01563 15.2917,-1.61979 15.8438,-2.82813 C16.3958,-4.03646 16.6719,-5.33854 16.6719,-6.73438 L16.6719,-9.98438 L18.2656,-9.98438 L18.2656,-6.60938 C18.2656,-5.46354 18.0547,-4.33073 17.6328,-3.21094 C17.2109,-2.09115 16.5885,-1.17188 15.7656,-0.453125 C14.9427,0.265625 13.9375,0.625 12.75,0.625 C10.5521,0.625 8.8125,-0.0338542 7.53125,-1.35156 C6.25,-2.66927 5.60938,-4.42188 5.60938,-6.60938 "/>
</g>

<g fill="#212121" fill-opacity="1" stroke="#212121" stroke-opacity="1" stroke-width="2" stroke-linecap="square" stroke-linejoin="round" transform="matrix(0.615618,0,0,0.593575,-59.9796,-11.5289)"
font-family="SimSun" font-size="9" font-weight="400" font-style="normal" 
>
<polyline fill="none" vector-effect="none" points="232,931 1615,931 " />
<polyline fill="none" vector-effect="none" points="232,87 1615,87 " />
<polyline fill="none" vector-effect="none" points="232,931 232,917.17 " />
<polyline fill="none" vector-effect="none" points="232,100.83 232,87 " />
<polyline fill="none" vector-effect="none" points="508.6,931 508.6,917.17 " />
<polyline fill="none" vector-effect="none" points="508.6,100.83 508.6,87 " />
<polyline fill="none" vector-effect="none" points="785.2,931 785.2,917.17 " />
<polyline fill="none" vector-effect="none" points="785.2,100.83 785.2,87 " />
<polyline fill="none" vector-effect="none" points="1061.8,931 1061.8,917.17 " />
<polyline fill="none" vector-effect="none" points="1061.8,100.83 1061.8,87 " />
<polyline fill="none" vector-effect="none" points="1338.4,931 1338.4,917.17 " />
<polyline fill="none" vector-effect="none" points="1338.4,100.83 1338.4,87 " />
<polyline fill="none" vector-effect="none" points="1615,931 1615,917.17 " />
<polyline fill="none" vector-effect="none" points="1615,100.83 1615,87 " />
</g>

<g fill="#212121" fill-opacity="1" stroke="none" transform="matrix(0.615618,0,0,0.593575,74.2252,576.308)"
font-family="SimSun" font-size="9" font-weight="400" font-style="normal" 
>
<path vector-effect="none" fill-rule="evenodd" d="M2.07813,-17.6563 C2.07813,-21.8854 2.51302,-25.2891 3.38281,-27.8672 C4.2526,-30.4453 5.54688,-32.4349 7.26563,-33.8359 C8.98438,-35.237 11.1458,-35.9375 13.75,-35.9375 C15.6667,-35.9375 17.349,-35.5521 18.7969,-34.7813 C20.2448,-34.0104 21.4401,-32.8958 22.3828,-31.4375 C23.3255,-29.9792 24.0677,-28.2031 24.6094,-26.1094 C25.151,-24.0156 25.4219,-21.1979 25.4219,-17.6563 C25.4219,-13.4583 24.9896,-10.0677 24.125,-7.48438 C23.2604,-4.90104 21.9688,-2.90625 20.25,-1.5 C18.5313,-0.09375 16.3646,0.609375 13.75,0.609375 C10.2917,0.609375 7.57813,-0.625 5.60938,-3.09375 C3.25521,-6.07292 2.07813,-10.9271 2.07813,-17.6563 M6.59375,-17.6563 C6.59375,-11.7813 7.28125,-7.86979 8.65625,-5.92188 C10.0313,-3.97396 11.7292,-3 13.75,-3 C15.7604,-3 17.4557,-3.97656 18.8359,-5.92969 C20.2161,-7.88281 20.9063,-11.7917 20.9063,-17.6563 C20.9063,-23.5417 20.2161,-27.4531 18.8359,-29.3906 C17.4557,-31.3281 15.7448,-32.2969 13.7031,-32.2969 C11.6823,-32.2969 10.0677,-31.4427 8.85938,-29.7344 C7.34896,-27.5573 6.59375,-23.5313 6.59375,-17.6563 "/>
</g>

<g fill="#212121" fill-opacity="1" stroke="none" transform="matrix(0.615618,0,0,0.593575,244.505,576.308)"
font-family="SimSun" font-size="9" font-weight="400" font-style="normal" 
>
<path vector-effect="none" fill-rule="evenodd" d="M2.07813,-9.375 L6.6875,-9.76563 C7.03125,-7.51563 7.82552,-5.82552 9.07031,-4.69531 C10.3151,-3.5651 11.8177,-3 13.5781,-3 C15.6927,-3 17.4818,-3.79688 18.9453,-5.39063 C20.4089,-6.98438 21.1406,-9.10417 21.1406,-11.75 C21.1406,-14.25 20.4375,-16.224 19.0313,-17.6719 C17.625,-19.1198 15.7813,-19.8438 13.5,-19.8438 C12.0833,-19.8438 10.8047,-19.5234 9.66406,-18.8828 C8.52344,-18.2422 7.63021,-17.4063 6.98438,-16.375 L2.85938,-16.9219 L6.32813,-35.2969 L24.125,-35.2969 L24.125,-31.1094 L9.84375,-31.1094 L7.90625,-21.4844 C10.0625,-22.9844 12.3177,-23.7344 14.6719,-23.7344 C17.7969,-23.7344 20.4349,-22.651 22.5859,-20.4844 C24.737,-18.3177 25.8125,-15.5365 25.8125,-12.1406 C25.8125,-8.90104 24.8646,-6.09896 22.9688,-3.73438 C20.6771,-0.838542 17.5469,0.609375 13.5781,0.609375 C10.3177,0.609375 7.65885,-0.302083 5.60156,-2.125 C3.54427,-3.94792 2.36979,-6.36458 2.07813,-9.375 "/>
</g>

<g fill="#212121" fill-opacity="1" stroke="none" transform="matrix(0.615618,0,0,0.593575,406.167,576.308)"
font-family="SimSun" font-size="9" font-weight="400" font-style="normal" 
>
<path vector-effect="none" fill-rule="evenodd" d="M18.625,0 L14.2344,0 L14.2344,-28 C13.1719,-26.9896 11.7839,-25.9818 10.0703,-24.9766 C8.35677,-23.9714 6.8125,-23.2135 5.4375,-22.7031 L5.4375,-26.9531 C7.89583,-28.1094 10.0469,-29.5104 11.8906,-31.1563 C13.7344,-32.8021 15.0365,-34.3958 15.7969,-35.9375 L18.625,-35.9375 L18.625,0 M30.0781,-17.6563 C30.0781,-21.8854 30.513,-25.2891 31.3828,-27.8672 C32.2526,-30.4453 33.5469,-32.4349 35.2656,-33.8359 C36.9844,-35.237 39.1458,-35.9375 41.75,-35.9375 C43.6667,-35.9375 45.349,-35.5521 46.7969,-34.7813 C48.2448,-34.0104 49.4401,-32.8958 50.3828,-31.4375 C51.3255,-29.9792 52.0677,-28.2031 52.6094,-26.1094 C53.151,-24.0156 53.4219,-21.1979 53.4219,-17.6563 C53.4219,-13.4583 52.9896,-10.0677 52.125,-7.48438 C51.2604,-4.90104 49.9688,-2.90625 48.25,-1.5 C46.5313,-0.09375 44.3646,0.609375 41.75,0.609375 C38.2917,0.609375 35.5781,-0.625 33.6094,-3.09375 C31.2552,-6.07292 30.0781,-10.9271 30.0781,-17.6563 M34.5938,-17.6563 C34.5938,-11.7813 35.2813,-7.86979 36.6563,-5.92188 C38.0313,-3.97396 39.7292,-3 41.75,-3 C43.7604,-3 45.4557,-3.97656 46.8359,-5.92969 C48.2161,-7.88281 48.9063,-11.7917 48.9063,-17.6563 C48.9063,-23.5417 48.2161,-27.4531 46.8359,-29.3906 C45.4557,-31.3281 43.7448,-32.2969 41.7031,-32.2969 C39.6823,-32.2969 38.0677,-31.4427 36.8594,-29.7344 C35.349,-27.5573 34.5938,-23.5313 34.5938,-17.6563 "/>
</g>

<g fill="#212121" fill-opacity="1" stroke="none" transform="matrix(0.615618,0,0,0.593575,576.447,576.308)"
font-family="SimSun" font-size="9" font-weight="400" font-style="normal" 
>
<path vector-effect="none" fill-rule="evenodd" d="M18.625,0 L14.2344,0 L14.2344,-28 C13.1719,-26.9896 11.7839,-25.9818 10.0703,-24.9766 C8.35677,-23.9714 6.8125,-23.2135 5.4375,-22.7031 L5.4375,-26.9531 C7.89583,-28.1094 10.0469,-29.5104 11.8906,-31.1563 C13.7344,-32.8021 15.0365,-34.3958 15.7969,-35.9375 L18.625,-35.9375 L18.625,0 M30.0781,-9.375 L34.6875,-9.76563 C35.0313,-7.51563 35.8255,-5.82552 37.0703,-4.69531 C38.3151,-3.5651 39.8177,-3 41.5781,-3 C43.6927,-3 45.4818,-3.79688 46.9453,-5.39063 C48.4089,-6.98438 49.1406,-9.10417 49.1406,-11.75 C49.1406,-14.25 48.4375,-16.224 47.0313,-17.6719 C45.625,-19.1198 43.7813,-19.8438 41.5,-19.8438 C40.0833,-19.8438 38.8047,-19.5234 37.6641,-18.8828 C36.5234,-18.2422 35.6302,-17.4063 34.9844,-16.375 L30.8594,-16.9219 L34.3281,-35.2969 L52.125,-35.2969 L52.125,-31.1094 L37.8438,-31.1094 L35.9063,-21.4844 C38.0625,-22.9844 40.3177,-23.7344 42.6719,-23.7344 C45.7969,-23.7344 48.4349,-22.651 50.5859,-20.4844 C52.737,-18.3177 53.8125,-15.5365 53.8125,-12.1406 C53.8125,-8.90104 52.8646,-6.09896 50.9688,-3.73438 C48.6771,-0.838542 45.5469,0.609375 41.5781,0.609375 C38.3177,0.609375 35.6589,-0.302083 33.6016,-2.125 C31.5443,-3.94792 30.3698,-6.36458 30.0781,-9.375 "/>
</g>

<g fill="#212121" fill-opacity="1" stroke="none" transform="matrix(0.615618,0,0,0.593575,746.727,576.308)"
font-family="SimSun" font-size="9" font-weight="400" font-style="normal" 
>
<path vector-effect="none" fill-rule="evenodd" d="M25.1719,-4.21875 L25.1719,0 L1.51563,0 C1.48438,-1.0625 1.65625,-2.07813 2.03125,-3.04688 C2.63542,-4.66146 3.59896,-6.25 4.92188,-7.8125 C6.24479,-9.375 8.16146,-11.1823 10.6719,-13.2344 C14.5573,-16.4219 17.1849,-18.9479 18.5547,-20.8125 C19.9245,-22.6771 20.6094,-24.4375 20.6094,-26.0938 C20.6094,-27.8438 19.987,-29.3151 18.7422,-30.5078 C17.4974,-31.7005 15.875,-32.2969 13.875,-32.2969 C11.75,-32.2969 10.0547,-31.6615 8.78906,-30.3906 C7.52344,-29.1198 6.88021,-27.3646 6.85938,-25.125 L2.34375,-25.5938 C2.65625,-28.9583 3.82031,-31.5234 5.83594,-33.2891 C7.85156,-35.0547 10.5625,-35.9375 13.9688,-35.9375 C17.3958,-35.9375 20.112,-34.9844 22.1172,-33.0781 C24.1224,-31.1719 25.125,-28.8125 25.125,-26 C25.125,-24.5729 24.8307,-23.1667 24.2422,-21.7813 C23.6536,-20.3958 22.6797,-18.9375 21.3203,-17.4063 C19.9609,-15.875 17.7031,-13.776 14.5469,-11.1094 C11.9115,-8.89063 10.2188,-7.38802 9.46875,-6.60156 C8.71875,-5.8151 8.10417,-5.02083 7.625,-4.21875 L25.1719,-4.21875 M30.0781,-17.6563 C30.0781,-21.8854 30.513,-25.2891 31.3828,-27.8672 C32.2526,-30.4453 33.5469,-32.4349 35.2656,-33.8359 C36.9844,-35.237 39.1458,-35.9375 41.75,-35.9375 C43.6667,-35.9375 45.349,-35.5521 46.7969,-34.7813 C48.2448,-34.0104 49.4401,-32.8958 50.3828,-31.4375 C51.3255,-29.9792 52.0677,-28.2031 52.6094,-26.1094 C53.151,-24.0156 53.4219,-21.1979 53.4219,-17.6563 C53.4219,-13.4583 52.9896,-10.0677 52.125,-7.48438 C51.2604,-4.90104 49.9688,-2.90625 48.25,-1.5 C46.5313,-0.09375 44.3646,0.609375 41.75,0.609375 C38.2917,0.609375 35.5781,-0.625 33.6094,-3.09375 C31.2552,-6.07292 30.0781,-10.9271 30.0781,-17.6563 M34.5938,-17.6563 C34.5938,-11.7813 35.2813,-7.86979 36.6563,-5.92188 C38.0313,-3.97396 39.7292,-3 41.75,-3 C43.7604,-3 45.4557,-3.97656 46.8359,-5.92969 C48.2161,-7.88281 48.9063,-11.7917 48.9063,-17.6563 C48.9063,-23.5417 48.2161,-27.4531 46.8359,-29.3906 C45.4557,-31.3281 43.7448,-32.2969 41.7031,-32.2969 C39.6823,-32.2969 38.0677,-31.4427 36.8594,-29.7344 C35.349,-27.5573 34.5938,-23.5313 34.5938,-17.6563 "/>
</g>

<g fill="#212121" fill-opacity="1" stroke="none" transform="matrix(0.615618,0,0,0.593575,917.007,576.308)"
font-family="SimSun" font-size="9" font-weight="400" font-style="normal" 
>
<path vector-effect="none" fill-rule="evenodd" d="M25.1719,-4.21875 L25.1719,0 L1.51563,0 C1.48438,-1.0625 1.65625,-2.07813 2.03125,-3.04688 C2.63542,-4.66146 3.59896,-6.25 4.92188,-7.8125 C6.24479,-9.375 8.16146,-11.1823 10.6719,-13.2344 C14.5573,-16.4219 17.1849,-18.9479 18.5547,-20.8125 C19.9245,-22.6771 20.6094,-24.4375 20.6094,-26.0938 C20.6094,-27.8438 19.987,-29.3151 18.7422,-30.5078 C17.4974,-31.7005 15.875,-32.2969 13.875,-32.2969 C11.75,-32.2969 10.0547,-31.6615 8.78906,-30.3906 C7.52344,-29.1198 6.88021,-27.3646 6.85938,-25.125 L2.34375,-25.5938 C2.65625,-28.9583 3.82031,-31.5234 5.83594,-33.2891 C7.85156,-35.0547 10.5625,-35.9375 13.9688,-35.9375 C17.3958,-35.9375 20.112,-34.9844 22.1172,-33.0781 C24.1224,-31.1719 25.125,-28.8125 25.125,-26 C25.125,-24.5729 24.8307,-23.1667 24.2422,-21.7813 C23.6536,-20.3958 22.6797,-18.9375 21.3203,-17.4063 C19.9609,-15.875 17.7031,-13.776 14.5469,-11.1094 C11.9115,-8.89063 10.2188,-7.38802 9.46875,-6.60156 C8.71875,-5.8151 8.10417,-5.02083 7.625,-4.21875 L25.1719,-4.21875 M30.0781,-9.375 L34.6875,-9.76563 C35.0313,-7.51563 35.8255,-5.82552 37.0703,-4.69531 C38.3151,-3.5651 39.8177,-3 41.5781,-3 C43.6927,-3 45.4818,-3.79688 46.9453,-5.39063 C48.4089,-6.98438 49.1406,-9.10417 49.1406,-11.75 C49.1406,-14.25 48.4375,-16.224 47.0313,-17.6719 C45.625,-19.1198 43.7813,-19.8438 41.5,-19.8438 C40.0833,-19.8438 38.8047,-19.5234 37.6641,-18.8828 C36.5234,-18.2422 35.6302,-17.4063 34.9844,-16.375 L30.8594,-16.9219 L34.3281,-35.2969 L52.125,-35.2969 L52.125,-31.1094 L37.8438,-31.1094 L35.9063,-21.4844 C38.0625,-22.9844 40.3177,-23.7344 42.6719,-23.7344 C45.7969,-23.7344 48.4349,-22.651 50.5859,-20.4844 C52.737,-18.3177 53.8125,-15.5365 53.8125,-12.1406 C53.8125,-8.90104 52.8646,-6.09896 50.9688,-3.73438 C48.6771,-0.838542 45.5469,0.609375 41.5781,0.609375 C38.3177,0.609375 35.6589,-0.302083 33.6016,-2.125 C31.5443,-3.94792 30.3698,-6.36458 30.0781,-9.375 "/>
</g>

<g fill="#212121" fill-opacity="1" stroke="none" transform="matrix(0,-0.593575,0.615618,0,24.8935,387.679)"
font-family="SimSun" font-size="9" font-weight="400" font-style="normal" 
>
<path vector-effect="none" fill-rule="evenodd" d="M9.29688,0 L9.29688,-1.9375 C11.1406,-1.9375 12.9297,-2.03906 14.6641,-2.24219 C16.3984,-2.44531 17.2656,-2.92188 17.2656,-3.67188 L17.2656,-33.8906 C17.2656,-34.6823 17.0469,-35.1719 16.6094,-35.3594 C16.1719,-35.5469 15.4583,-35.6406 14.4688,-35.6406 L12.1719,-35.6406 C9.14063,-35.6406 6.98958,-34.9792 5.71875,-33.6563 C5.0625,-32.9896 4.59115,-31.9271 4.30469,-30.4688 C4.01823,-29.0104 3.77604,-27.1771 3.57813,-24.9688 L1.98438,-24.9688 L3.03125,-37.5781 L36.625,-37.5781 L37.6719,-24.9688 L36.0625,-24.9688 C35.8542,-27.3333 35.6198,-29.2109 35.3594,-30.6016 C35.099,-31.9922 34.6302,-33.0104 33.9531,-33.6563 C32.6615,-34.9792 30.5104,-35.6406 27.5,-35.6406 L25.1875,-35.6406 C24.5313,-35.6406 24.0182,-35.612 23.6484,-35.5547 C23.2786,-35.4974 22.9766,-35.3411 22.7422,-35.0859 C22.5078,-34.8307 22.3906,-34.4323 22.3906,-33.8906 L22.3906,-3.67188 C22.3906,-2.92188 23.2604,-2.44531 25,-2.24219 C26.7396,-2.03906 28.5208,-1.9375 30.3438,-1.9375 L30.3438,0 L9.29688,0"/>
</g>

<g fill="#212121" fill-opacity="1" stroke="none" transform="matrix(0,-0.593575,0.615618,0,24.8935,366.822)"
font-family="SimSun" font-size="9" font-weight="400" font-style="normal" 
>
<path vector-effect="none" fill-rule="evenodd" d="M13.75,0.625 C11.5521,0.625 9.51302,0.0651042 7.63281,-1.05469 C5.7526,-2.17448 4.26563,-3.67448 3.17188,-5.55469 C2.07813,-7.4349 1.53125,-9.48438 1.53125,-11.7031 C1.53125,-13.3906 1.83073,-15.013 2.42969,-16.5703 C3.02865,-18.1276 3.88802,-19.5182 5.00781,-20.7422 C6.1276,-21.9661 7.42969,-22.9245 8.91406,-23.6172 C10.3984,-24.3099 12.0104,-24.6563 13.75,-24.6563 C16.0104,-24.6563 18.0651,-24.0599 19.9141,-22.8672 C21.763,-21.6745 23.2266,-20.0807 24.3047,-18.0859 C25.3828,-16.0911 25.9219,-13.9635 25.9219,-11.7031 C25.9219,-9.50521 25.375,-7.46094 24.2813,-5.57031 C23.1875,-3.67969 21.7057,-2.17448 19.8359,-1.05469 C17.9661,0.0651042 15.9375,0.625 13.75,0.625 M13.75,-1.01563 C16.6875,-1.01563 18.6484,-2.07813 19.6328,-4.20313 C20.6172,-6.32813 21.1094,-9.03646 21.1094,-12.3281 C21.1094,-14.1615 21.0104,-15.6823 20.8125,-16.8906 C20.6146,-18.099 20.1875,-19.1927 19.5313,-20.1719 C19.1146,-20.7865 18.5885,-21.3203 17.9531,-21.7734 C17.3177,-22.2266 16.6458,-22.5729 15.9375,-22.8125 C15.2292,-23.0521 14.5,-23.1719 13.75,-23.1719 C12.6042,-23.1719 11.5156,-22.9141 10.4844,-22.3984 C9.45313,-21.8828 8.59896,-21.1406 7.92188,-20.1719 C7.24479,-19.1406 6.8125,-18.0026 6.625,-16.7578 C6.4375,-15.513 6.34375,-14.0365 6.34375,-12.3281 C6.34375,-10.276 6.52083,-8.43229 6.875,-6.79688 C7.22917,-5.16146 7.94792,-3.78906 9.03125,-2.67969 C10.1146,-1.57031 11.6875,-1.01563 13.75,-1.01563 "/>
</g>

<g fill="#212121" fill-opacity="1" stroke="none" transform="matrix(0,-0.593575,0.615618,0,24.8935,350.498)"
font-family="SimSun" font-size="9" font-weight="400" font-style="normal" 
>
<path vector-effect="none" fill-rule="evenodd" d="M5.60938,-6.60938 L5.60938,-21.7813 L1.04688,-21.7813 L1.04688,-23.2031 C3.44271,-23.2031 5.20573,-24.3229 6.33594,-26.5625 C7.46615,-28.8021 8.03125,-31.2292 8.03125,-33.8438 L9.60938,-33.8438 L9.60938,-23.7188 L17.375,-23.7188 L17.375,-21.7813 L9.60938,-21.7813 L9.60938,-6.73438 C9.60938,-5.21354 9.86458,-3.88021 10.375,-2.73438 C10.8854,-1.58854 11.8021,-1.01563 13.125,-1.01563 C14.3854,-1.01563 15.2917,-1.61979 15.8438,-2.82813 C16.3958,-4.03646 16.6719,-5.33854 16.6719,-6.73438 L16.6719,-9.98438 L18.2656,-9.98438 L18.2656,-6.60938 C18.2656,-5.46354 18.0547,-4.33073 17.6328,-3.21094 C17.2109,-2.09115 16.5885,-1.17188 15.7656,-0.453125 C14.9427,0.265625 13.9375,0.625 12.75,0.625 C10.5521,0.625 8.8125,-0.0338542 7.53125,-1.35156 C6.25,-2.66927 5.60938,-4.42188 5.60938,-6.60938 "/>
</g>

<g fill="#212121" fill-opacity="1" stroke="none" transform="matrix(0,-0.593575,0.615618,0,24.8935,337.802)"
font-family="SimSun" font-size="9" font-weight="400" font-style="normal" 
>
<path vector-effect="none" fill-rule="evenodd" d="M2.20313,-5.39063 C2.20313,-7.57813 3.0625,-9.35677 4.78125,-10.7266 C6.5,-12.0964 8.5625,-13.0625 10.9688,-13.625 C13.375,-14.1875 15.6615,-14.4688 17.8281,-14.4688 L17.8281,-16.7188 C17.8281,-17.7708 17.5964,-18.7943 17.1328,-19.7891 C16.6693,-20.7839 15.9974,-21.5964 15.1172,-22.2266 C14.237,-22.8568 13.2708,-23.1719 12.2188,-23.1719 C9.78125,-23.1719 7.92708,-22.6302 6.65625,-21.5469 C7.35417,-21.5469 7.93229,-21.2839 8.39063,-20.7578 C8.84896,-20.2318 9.07813,-19.6198 9.07813,-18.9219 C9.07813,-18.1927 8.81771,-17.5703 8.29688,-17.0547 C7.77604,-16.5391 7.16146,-16.2813 6.45313,-16.2813 C5.71354,-16.2813 5.08333,-16.5391 4.5625,-17.0547 C4.04167,-17.5703 3.78125,-18.1979 3.78125,-18.9375 C3.78125,-20.8646 4.65885,-22.2995 6.41406,-23.2422 C8.16927,-24.1849 10.1042,-24.6563 12.2188,-24.6563 C13.7083,-24.6563 15.2031,-24.3385 16.7031,-23.7031 C18.2031,-23.0677 19.4323,-22.1589 20.3906,-20.9766 C21.349,-19.7943 21.8281,-18.4167 21.8281,-16.8438 L21.8281,-4.48438 C21.8281,-3.76563 21.9818,-3.10677 22.2891,-2.50781 C22.5964,-1.90885 23.0729,-1.60938 23.7188,-1.60938 C24.3229,-1.60938 24.7734,-1.91146 25.0703,-2.51563 C25.3672,-3.11979 25.5156,-3.76563 25.5156,-4.45313 L25.5156,-7.95313 L27.125,-7.95313 L27.125,-4.4375 C27.125,-3.625 26.9089,-2.84635 26.4766,-2.10156 C26.0443,-1.35677 25.4661,-0.765625 24.7422,-0.328125 C24.0182,0.109375 23.2344,0.328125 22.3906,0.328125 C21.3177,0.328125 20.3932,-0.0911458 19.6172,-0.929688 C18.8411,-1.76823 18.4063,-2.76563 18.3125,-3.92188 C17.6354,-2.53646 16.6354,-1.43229 15.3125,-0.609375 C13.9896,0.213542 12.5729,0.625 11.0625,0.625 C9.66667,0.625 8.29427,0.416667 6.94531,0 C5.59635,-0.416667 4.46875,-1.06771 3.5625,-1.95313 C2.65625,-2.83854 2.20313,-3.98438 2.20313,-5.39063 M6.65625,-5.40625 C6.65625,-4.125 7.13021,-3.04688 8.07813,-2.17188 C9.02604,-1.29688 10.1458,-0.859375 11.4375,-0.859375 C12.625,-0.859375 13.7005,-1.15365 14.6641,-1.74219 C15.6276,-2.33073 16.3958,-3.13281 16.9688,-4.14844 C17.5417,-5.16406 17.8281,-6.23438 17.8281,-7.35938 L17.8281,-13.0469 C16.1615,-13.0469 14.4557,-12.776 12.7109,-12.2344 C10.9661,-11.6927 9.52083,-10.8411 8.375,-9.67969 C7.22917,-8.51823 6.65625,-7.09375 6.65625,-5.40625 "/>
</g>

<g fill="#212121" fill-opacity="1" stroke="none" transform="matrix(0,-0.593575,0.615618,0,24.8935,321.479)"
font-family="SimSun" font-size="9" font-weight="400" font-style="normal" 
>
<path vector-effect="none" fill-rule="evenodd" d="M1.6875,0 L1.6875,-1.9375 C2.94792,-1.9375 3.97917,-2.03646 4.78125,-2.23438 C5.58333,-2.43229 5.98438,-2.91146 5.98438,-3.67188 L5.98438,-32.5469 C5.98438,-33.5365 5.83854,-34.25 5.54688,-34.6875 C5.25521,-35.125 4.83073,-35.3932 4.27344,-35.4922 C3.71615,-35.5911 2.85417,-35.6406 1.6875,-35.6406 L1.6875,-37.5781 L9.85938,-38.1563 L9.85938,-3.67188 C9.85938,-2.91146 10.2604,-2.43229 11.0625,-2.23438 C11.8646,-2.03646 12.8854,-1.9375 14.125,-1.9375 L14.125,0 L1.6875,0"/>
</g>

<g fill="#212121" fill-opacity="1" stroke="none" transform="matrix(0,-0.593575,0.615618,0,24.8935,301.529)"
font-family="SimSun" font-size="9" font-weight="400" font-style="normal" 
>
<path vector-effect="none" fill-rule="evenodd" d="M1.64063,0 L1.64063,-1.9375 C2.89063,-1.9375 3.91927,-2.03646 4.72656,-2.23438 C5.53385,-2.43229 5.9375,-2.91146 5.9375,-3.67188 L5.9375,-18.6875 C5.9375,-19.6771 5.78906,-20.3906 5.49219,-20.8281 C5.19531,-21.2656 4.77083,-21.5339 4.21875,-21.6328 C3.66667,-21.7318 2.80729,-21.7813 1.64063,-21.7813 L1.64063,-23.7188 L9.60938,-24.2969 L9.60938,-18.9375 C10.349,-20.5104 11.4401,-21.7969 12.8828,-22.7969 C14.3255,-23.7969 15.8958,-24.2969 17.5938,-24.2969 C20.1354,-24.2969 22.0469,-23.6901 23.3281,-22.4766 C24.6094,-21.263 25.25,-19.401 25.25,-16.8906 L25.25,-3.67188 C25.25,-2.91146 25.651,-2.43229 26.4531,-2.23438 C27.2552,-2.03646 28.2865,-1.9375 29.5469,-1.9375 L29.5469,0 L16.9531,0 L16.9531,-1.9375 C18.2031,-1.9375 19.2318,-2.03646 20.0391,-2.23438 C20.8464,-2.43229 21.25,-2.91146 21.25,-3.67188 L21.25,-16.7344 C21.25,-18.526 20.9896,-19.9974 20.4688,-21.1484 C19.9479,-22.2995 18.8802,-22.875 17.2656,-22.875 C15.1406,-22.875 13.3932,-22.026 12.0234,-20.3281 C10.6536,-18.6302 9.96875,-16.6979 9.96875,-14.5313 L9.96875,-3.67188 C9.96875,-2.91146 10.3698,-2.43229 11.1719,-2.23438 C11.974,-2.03646 12.9948,-1.9375 14.2344,-1.9375 L14.2344,0 L1.64063,0"/>
</g>

<g fill="#212121" fill-opacity="1" stroke="none" transform="matrix(0,-0.593575,0.615618,0,24.8935,284.298)"
font-family="SimSun" font-size="9" font-weight="400" font-style="normal" 
>
<path vector-effect="none" fill-rule="evenodd" d="M5.9375,-6.54688 L5.9375,-18.6875 C5.9375,-19.6771 5.78906,-20.3906 5.49219,-20.8281 C5.19531,-21.2656 4.77083,-21.5339 4.21875,-21.6328 C3.66667,-21.7318 2.80729,-21.7813 1.64063,-21.7813 L1.64063,-23.7188 L9.96875,-24.2969 L9.96875,-6.57813 C9.96875,-5.14063 10.0703,-4.02604 10.2734,-3.23438 C10.4766,-2.44271 10.9141,-1.84896 11.5859,-1.45313 C12.2578,-1.05729 13.3281,-0.859375 14.7969,-0.859375 C16.7656,-0.859375 18.3333,-1.68229 19.5,-3.32813 C20.6667,-4.97396 21.25,-6.84375 21.25,-8.9375 L21.25,-18.7031 C21.25,-19.6823 21.0964,-20.3906 20.7891,-20.8281 C20.4818,-21.2656 20.0547,-21.5339 19.5078,-21.6328 C18.9609,-21.7318 18.1094,-21.7813 16.9531,-21.7813 L16.9531,-23.7188 L25.25,-24.2969 L25.25,-5 C25.25,-4.03125 25.3958,-3.32813 25.6875,-2.89063 C25.9792,-2.45313 26.4036,-2.1849 26.9609,-2.08594 C27.5182,-1.98698 28.3802,-1.9375 29.5469,-1.9375 L29.5469,0 L21.4063,0.625 L21.4063,-4.0625 C20.7292,-2.66667 19.7813,-1.53646 18.5625,-0.671875 C17.3438,0.192708 16,0.625 14.5313,0.625 C11.8958,0.625 9.80469,0.0651042 8.25781,-1.05469 C6.71094,-2.17448 5.9375,-4.00521 5.9375,-6.54688 "/>
</g>

<g fill="#212121" fill-opacity="1" stroke="none" transform="matrix(0,-0.593575,0.615618,0,24.8935,266.161)"
font-family="SimSun" font-size="9" font-weight="400" font-style="normal" 
>
<path vector-effect="none" fill-rule="evenodd" d="M1.64063,0 L1.64063,-1.9375 C2.89063,-1.9375 3.91927,-2.03646 4.72656,-2.23438 C5.53385,-2.43229 5.9375,-2.91146 5.9375,-3.67188 L5.9375,-18.6875 C5.9375,-19.6771 5.78906,-20.3906 5.49219,-20.8281 C5.19531,-21.2656 4.77083,-21.5339 4.21875,-21.6328 C3.66667,-21.7318 2.80729,-21.7813 1.64063,-21.7813 L1.64063,-23.7188 L9.60938,-24.2969 L9.60938,-18.9375 C10.349,-20.5104 11.4401,-21.7969 12.8828,-22.7969 C14.3255,-23.7969 15.8958,-24.2969 17.5938,-24.2969 C21.8125,-24.2969 24.2917,-22.5781 25.0313,-19.1406 C25.7604,-20.6823 26.8333,-21.9271 28.25,-22.875 C29.6667,-23.8229 31.2135,-24.2969 32.8906,-24.2969 C34.5573,-24.2969 35.9609,-24.0286 37.1016,-23.4922 C38.2422,-22.9557 39.099,-22.138 39.6719,-21.0391 C40.2448,-19.9401 40.5313,-18.5573 40.5313,-16.8906 L40.5313,-3.67188 C40.5313,-2.91146 40.9375,-2.43229 41.75,-2.23438 C42.5625,-2.03646 43.5885,-1.9375 44.8281,-1.9375 L44.8281,0 L32.2344,0 L32.2344,-1.9375 C33.4844,-1.9375 34.513,-2.03646 35.3203,-2.23438 C36.1276,-2.43229 36.5313,-2.91146 36.5313,-3.67188 L36.5313,-16.7344 C36.5313,-18.5781 36.2708,-20.0625 35.75,-21.1875 C35.2292,-22.3125 34.1615,-22.875 32.5469,-22.875 C30.4323,-22.875 28.6875,-22.026 27.3125,-20.3281 C25.9375,-18.6302 25.25,-16.6979 25.25,-14.5313 L25.25,-3.67188 C25.25,-2.91146 25.651,-2.43229 26.4531,-2.23438 C27.2552,-2.03646 28.2865,-1.9375 29.5469,-1.9375 L29.5469,0 L16.9531,0 L16.9531,-1.9375 C18.2031,-1.9375 19.2318,-2.03646 20.0391,-2.23438 C20.8464,-2.43229 21.25,-2.91146 21.25,-3.67188 L21.25,-16.7344 C21.25,-18.526 20.9896,-19.9974 20.4688,-21.1484 C19.9479,-22.2995 18.8802,-22.875 17.2656,-22.875 C15.1406,-22.875 13.3932,-22.026 12.0234,-20.3281 C10.6536,-18.6302 9.96875,-16.6979 9.96875,-14.5313 L9.96875,-3.67188 C9.96875,-2.91146 10.3698,-2.43229 11.1719,-2.23438 C11.974,-2.03646 12.9948,-1.9375 14.2344,-1.9375 L14.2344,0 L1.64063,0"/>
</g>

<g fill="#212121" fill-opacity="1" stroke="none" transform="matrix(0,-0.593575,0.615618,0,24.8935,239.863)"
font-family="SimSun" font-size="9" font-weight="400" font-style="normal" 
>
<path vector-effect="none" fill-rule="evenodd" d="M5.71875,0 L5.71875,-32.5469 C5.71875,-33.5365 5.57031,-34.25 5.27344,-34.6875 C4.97656,-35.125 4.55208,-35.3932 4,-35.4922 C3.44792,-35.5911 2.58854,-35.6406 1.42188,-35.6406 L1.42188,-37.5781 L9.5625,-38.1563 L9.5625,-20.9531 C10.1667,-21.6302 10.8776,-22.224 11.6953,-22.7344 C12.513,-23.2448 13.3854,-23.6328 14.3125,-23.8984 C15.2396,-24.1641 16.1875,-24.2969 17.1563,-24.2969 C18.8021,-24.2969 20.3281,-23.9661 21.7344,-23.3047 C23.1406,-22.6432 24.3646,-21.7318 25.4063,-20.5703 C26.4479,-19.4089 27.2578,-18.0703 27.8359,-16.5547 C28.4141,-15.0391 28.7031,-13.4792 28.7031,-11.875 C28.7031,-9.65625 28.1615,-7.58854 27.0781,-5.67188 C25.9948,-3.75521 24.5182,-2.22656 22.6484,-1.08594 C20.7786,0.0546875 18.724,0.625 16.4844,0.625 C15.0885,0.625 13.737,0.263021 12.4297,-0.460938 C11.1224,-1.1849 10.0417,-2.14063 9.1875,-3.32813 L7.3125,0 L5.71875,0 M9.71875,-5.42188 C10.3333,-4.07813 11.2135,-2.98177 12.3594,-2.13281 C13.5052,-1.28385 14.776,-0.859375 16.1719,-0.859375 C18.0677,-0.859375 19.6016,-1.40365 20.7734,-2.49219 C21.9453,-3.58073 22.763,-4.95833 23.2266,-6.625 C23.6901,-8.29167 23.9219,-10.0469 23.9219,-11.8906 C23.9219,-14.9844 23.5208,-17.3333 22.7188,-18.9375 C22.3646,-19.6563 21.8776,-20.3177 21.2578,-20.9219 C20.638,-21.526 19.9479,-22.0026 19.1875,-22.3516 C18.4271,-22.7005 17.625,-22.875 16.7813,-22.875 C15.3125,-22.875 13.9531,-22.487 12.7031,-21.7109 C11.4531,-20.9349 10.4583,-19.8958 9.71875,-18.5938 L9.71875,-5.42188"/>
</g>

<g fill="#212121" fill-opacity="1" stroke="none" transform="matrix(0,-0.593575,0.615618,0,24.8935,220.819)"
font-family="SimSun" font-size="9" font-weight="400" font-style="normal" 
>
<path vector-effect="none" fill-rule="evenodd" d="M13.7031,0.625 C11.4635,0.625 9.40885,0.0364583 7.53906,-1.14063 C5.66927,-2.31771 4.20052,-3.88542 3.13281,-5.84375 C2.0651,-7.80208 1.53125,-9.875 1.53125,-12.0625 C1.53125,-14.2083 2.01823,-16.2474 2.99219,-18.1797 C3.96615,-20.112 5.32552,-21.6745 7.07031,-22.8672 C8.8151,-24.0599 10.7656,-24.6563 12.9219,-24.6563 C14.599,-24.6563 16.0599,-24.375 17.3047,-23.8125 C18.5495,-23.25 19.5755,-22.4661 20.3828,-21.4609 C21.1901,-20.4557 21.7995,-19.2734 22.2109,-17.9141 C22.6224,-16.5547 22.8281,-15.0573 22.8281,-13.4219 C22.8281,-12.9427 22.6406,-12.7031 22.2656,-12.7031 L6.34375,-12.7031 L6.34375,-12.1094 C6.34375,-9.07813 6.95573,-6.47135 8.17969,-4.28906 C9.40365,-2.10677 11.4063,-1.01563 14.1875,-1.01563 C15.3125,-1.01563 16.3542,-1.26563 17.3125,-1.76563 C18.2708,-2.26563 19.1016,-2.96354 19.8047,-3.85938 C20.5078,-4.75521 20.9896,-5.71354 21.25,-6.73438 C21.2813,-6.85938 21.3464,-6.96875 21.4453,-7.0625 C21.5443,-7.15625 21.6563,-7.20313 21.7813,-7.20313 L22.2656,-7.20313 C22.6406,-7.20313 22.8281,-6.97396 22.8281,-6.51563 C22.3073,-4.43229 21.1875,-2.72135 19.4688,-1.38281 C17.75,-0.0442708 15.8281,0.625 13.7031,0.625 M6.39063,-14.0781 L18.9375,-14.0781 C18.9375,-15.4531 18.7448,-16.8438 18.3594,-18.25 C17.974,-19.6563 17.3333,-20.8281 16.4375,-21.7656 C15.5417,-22.7031 14.3698,-23.1719 12.9219,-23.1719 C10.8385,-23.1719 9.22917,-22.2031 8.09375,-20.2656 C6.95833,-18.3281 6.39063,-16.2656 6.39063,-14.0781 "/>
</g>

<g fill="#212121" fill-opacity="1" stroke="none" transform="matrix(0,-0.593575,0.615618,0,24.8935,206.309)"
font-family="SimSun" font-size="9" font-weight="400" font-style="normal" 
>
<path vector-effect="none" fill-rule="evenodd" d="M1.42188,0 L1.42188,-1.9375 C2.67188,-1.9375 3.70052,-2.03646 4.50781,-2.23438 C5.3151,-2.43229 5.71875,-2.91146 5.71875,-3.67188 L5.71875,-18.6875 C5.71875,-19.6771 5.57031,-20.3906 5.27344,-20.8281 C4.97656,-21.2656 4.55208,-21.5339 4,-21.6328 C3.44792,-21.7318 2.58854,-21.7813 1.42188,-21.7813 L1.42188,-23.7188 L9.29688,-24.2969 L9.29688,-18.9375 C9.88021,-20.5313 10.7188,-21.8229 11.8125,-22.8125 C12.9063,-23.8021 14.2344,-24.2969 15.7969,-24.2969 C16.8802,-24.2969 17.8516,-23.9766 18.7109,-23.3359 C19.5703,-22.6953 20,-21.8438 20,-20.7813 C20,-20.125 19.763,-19.5495 19.2891,-19.0547 C18.8151,-18.5599 18.2292,-18.3125 17.5313,-18.3125 C16.8542,-18.3125 16.2734,-18.5547 15.7891,-19.0391 C15.3047,-19.5234 15.0625,-20.1042 15.0625,-20.7813 C15.0625,-21.7708 15.4115,-22.4688 16.1094,-22.875 L15.7969,-22.875 C14.3073,-22.875 13.0938,-22.3385 12.1563,-21.2656 C11.2188,-20.1927 10.5521,-18.8594 10.1563,-17.2656 C9.76042,-15.6719 9.5625,-14.151 9.5625,-12.7031 L9.5625,-3.67188 C9.5625,-2.51563 11.3438,-1.9375 14.9063,-1.9375 L14.9063,0 L1.42188,0"/>
</g>

<g fill="#212121" fill-opacity="1" stroke="#212121" stroke-opacity="1" stroke-width="2" stroke-linecap="square" stroke-linejoin="round" transform="matrix(0.615618,0,0,0.593575,-59.9796,-11.5289)"
font-family="SimSun" font-size="9" font-weight="400" font-style="normal" 
>
<polyline fill="none" vector-effect="none" points="232,931 232,87 " />
<polyline fill="none" vector-effect="none" points="1615,931 1615,87 " />
<polyline fill="none" vector-effect="none" points="232,931 245.83,931 " />
<polyline fill="none" vector-effect="none" points="1601.17,931 1615,931 " />
<polyline fill="none" vector-effect="none" points="232,762.2 245.83,762.2 " />
<polyline fill="none" vector-effect="none" points="1601.17,762.2 1615,762.2 " />
<polyline fill="none" vector-effect="none" points="232,593.4 245.83,593.4 " />
<polyline fill="none" vector-effect="none" points="1601.17,593.4 1615,593.4 " />
<polyline fill="none" vector-effect="none" points="232,424.6 245.83,424.6 " />
<polyline fill="none" vector-effect="none" points="1601.17,424.6 1615,424.6 " />
<polyline fill="none" vector-effect="none" points="232,255.8 245.83,255.8 " />
<polyline fill="none" vector-effect="none" points="1601.17,255.8 1615,255.8 " />
<polyline fill="none" vector-effect="none" points="232,87 245.83,87 " />
<polyline fill="none" vector-effect="none" points="1601.17,87 1615,87 " />
</g>

<g fill="#212121" fill-opacity="1" stroke="none" transform="matrix(0.615618,0,0,0.593575,57.3983,551.477)"
font-family="SimSun" font-size="9" font-weight="400" font-style="normal" 
>
<path vector-effect="none" fill-rule="evenodd" d="M2.07813,-17.6563 C2.07813,-21.8854 2.51302,-25.2891 3.38281,-27.8672 C4.2526,-30.4453 5.54688,-32.4349 7.26563,-33.8359 C8.98438,-35.237 11.1458,-35.9375 13.75,-35.9375 C15.6667,-35.9375 17.349,-35.5521 18.7969,-34.7813 C20.2448,-34.0104 21.4401,-32.8958 22.3828,-31.4375 C23.3255,-29.9792 24.0677,-28.2031 24.6094,-26.1094 C25.151,-24.0156 25.4219,-21.1979 25.4219,-17.6563 C25.4219,-13.4583 24.9896,-10.0677 24.125,-7.48438 C23.2604,-4.90104 21.9688,-2.90625 20.25,-1.5 C18.5313,-0.09375 16.3646,0.609375 13.75,0.609375 C10.2917,0.609375 7.57813,-0.625 5.60938,-3.09375 C3.25521,-6.07292 2.07813,-10.9271 2.07813,-17.6563 M6.59375,-17.6563 C6.59375,-11.7813 7.28125,-7.86979 8.65625,-5.92188 C10.0313,-3.97396 11.7292,-3 13.75,-3 C15.7604,-3 17.4557,-3.97656 18.8359,-5.92969 C20.2161,-7.88281 20.9063,-11.7917 20.9063,-17.6563 C20.9063,-23.5417 20.2161,-27.4531 18.8359,-29.3906 C17.4557,-31.3281 15.7448,-32.2969 13.7031,-32.2969 C11.6823,-32.2969 10.0677,-31.4427 8.85938,-29.7344 C7.34896,-27.5573 6.59375,-23.5313 6.59375,-17.6563 "/>
</g>

<g fill="#212121" fill-opacity="1" stroke="none" transform="matrix(0.615618,0,0,0.593575,57.3983,451.282)"
font-family="SimSun" font-size="9" font-weight="400" font-style="normal" 
>
<path vector-effect="none" fill-rule="evenodd" d="M2.07813,-9.375 L6.6875,-9.76563 C7.03125,-7.51563 7.82552,-5.82552 9.07031,-4.69531 C10.3151,-3.5651 11.8177,-3 13.5781,-3 C15.6927,-3 17.4818,-3.79688 18.9453,-5.39063 C20.4089,-6.98438 21.1406,-9.10417 21.1406,-11.75 C21.1406,-14.25 20.4375,-16.224 19.0313,-17.6719 C17.625,-19.1198 15.7813,-19.8438 13.5,-19.8438 C12.0833,-19.8438 10.8047,-19.5234 9.66406,-18.8828 C8.52344,-18.2422 7.63021,-17.4063 6.98438,-16.375 L2.85938,-16.9219 L6.32813,-35.2969 L24.125,-35.2969 L24.125,-31.1094 L9.84375,-31.1094 L7.90625,-21.4844 C10.0625,-22.9844 12.3177,-23.7344 14.6719,-23.7344 C17.7969,-23.7344 20.4349,-22.651 22.5859,-20.4844 C24.737,-18.3177 25.8125,-15.5365 25.8125,-12.1406 C25.8125,-8.90104 24.8646,-6.09896 22.9688,-3.73438 C20.6771,-0.838542 17.5469,0.609375 13.5781,0.609375 C10.3177,0.609375 7.65885,-0.302083 5.60156,-2.125 C3.54427,-3.94792 2.36979,-6.36458 2.07813,-9.375 "/>
</g>

<g fill="#212121" fill-opacity="1" stroke="none" transform="matrix(0.615618,0,0,0.593575,40.161,351.086)"
font-family="SimSun" font-size="9" font-weight="400" font-style="normal" 
>
<path vector-effect="none" fill-rule="evenodd" d="M18.625,0 L14.2344,0 L14.2344,-28 C13.1719,-26.9896 11.7839,-25.9818 10.0703,-24.9766 C8.35677,-23.9714 6.8125,-23.2135 5.4375,-22.7031 L5.4375,-26.9531 C7.89583,-28.1094 10.0469,-29.5104 11.8906,-31.1563 C13.7344,-32.8021 15.0365,-34.3958 15.7969,-35.9375 L18.625,-35.9375 L18.625,0 M30.0781,-17.6563 C30.0781,-21.8854 30.513,-25.2891 31.3828,-27.8672 C32.2526,-30.4453 33.5469,-32.4349 35.2656,-33.8359 C36.9844,-35.237 39.1458,-35.9375 41.75,-35.9375 C43.6667,-35.9375 45.349,-35.5521 46.7969,-34.7813 C48.2448,-34.0104 49.4401,-32.8958 50.3828,-31.4375 C51.3255,-29.9792 52.0677,-28.2031 52.6094,-26.1094 C53.151,-24.0156 53.4219,-21.1979 53.4219,-17.6563 C53.4219,-13.4583 52.9896,-10.0677 52.125,-7.48438 C51.2604,-4.90104 49.9688,-2.90625 48.25,-1.5 C46.5313,-0.09375 44.3646,0.609375 41.75,0.609375 C38.2917,0.609375 35.5781,-0.625 33.6094,-3.09375 C31.2552,-6.07292 30.0781,-10.9271 30.0781,-17.6563 M34.5938,-17.6563 C34.5938,-11.7813 35.2813,-7.86979 36.6563,-5.92188 C38.0313,-3.97396 39.7292,-3 41.75,-3 C43.7604,-3 45.4557,-3.97656 46.8359,-5.92969 C48.2161,-7.88281 48.9063,-11.7917 48.9063,-17.6563 C48.9063,-23.5417 48.2161,-27.4531 46.8359,-29.3906 C45.4557,-31.3281 43.7448,-32.2969 41.7031,-32.2969 C39.6823,-32.2969 38.0677,-31.4427 36.8594,-29.7344 C35.349,-27.5573 34.5938,-23.5313 34.5938,-17.6563 "/>
</g>

<g fill="#212121" fill-opacity="1" stroke="none" transform="matrix(0.615618,0,0,0.593575,40.161,250.891)"
font-family="SimSun" font-size="9" font-weight="400" font-style="normal" 
>
<path vector-effect="none" fill-rule="evenodd" d="M18.625,0 L14.2344,0 L14.2344,-28 C13.1719,-26.9896 11.7839,-25.9818 10.0703,-24.9766 C8.35677,-23.9714 6.8125,-23.2135 5.4375,-22.7031 L5.4375,-26.9531 C7.89583,-28.1094 10.0469,-29.5104 11.8906,-31.1563 C13.7344,-32.8021 15.0365,-34.3958 15.7969,-35.9375 L18.625,-35.9375 L18.625,0 M30.0781,-9.375 L34.6875,-9.76563 C35.0313,-7.51563 35.8255,-5.82552 37.0703,-4.69531 C38.3151,-3.5651 39.8177,-3 41.5781,-3 C43.6927,-3 45.4818,-3.79688 46.9453,-5.39063 C48.4089,-6.98438 49.1406,-9.10417 49.1406,-11.75 C49.1406,-14.25 48.4375,-16.224 47.0313,-17.6719 C45.625,-19.1198 43.7813,-19.8438 41.5,-19.8438 C40.0833,-19.8438 38.8047,-19.5234 37.6641,-18.8828 C36.5234,-18.2422 35.6302,-17.4063 34.9844,-16.375 L30.8594,-16.9219 L34.3281,-35.2969 L52.125,-35.2969 L52.125,-31.1094 L37.8438,-31.1094 L35.9063,-21.4844 C38.0625,-22.9844 40.3177,-23.7344 42.6719,-23.7344 C45.7969,-23.7344 48.4349,-22.651 50.5859,-20.4844 C52.737,-18.3177 53.8125,-15.5365 53.8125,-12.1406 C53.8125,-8.90104 52.8646,-6.09896 50.9688,-3.73438 C48.6771,-0.838542 45.5469,0.609375 41.5781,0.609375 C38.3177,0.609375 35.6589,-0.302083 33.6016,-2.125 C31.5443,-3.94792 30.3698,-6.36458 30.0781,-9.375 "/>
</g>

<g fill="#212121" fill-opacity="1" stroke="none" transform="matrix(0.615618,0,0,0.593575,40.161,150.695)"
font-family="SimSun" font-size="9" font-weight="400" font-style="normal" 
>
<path vector-effect="none" fill-rule="evenodd" d="M25.1719,-4.21875 L25.1719,0 L1.51563,0 C1.48438,-1.0625 1.65625,-2.07813 2.03125,-3.04688 C2.63542,-4.66146 3.59896,-6.25 4.92188,-7.8125 C6.24479,-9.375 8.16146,-11.1823 10.6719,-13.2344 C14.5573,-16.4219 17.1849,-18.9479 18.5547,-20.8125 C19.9245,-22.6771 20.6094,-24.4375 20.6094,-26.0938 C20.6094,-27.8438 19.987,-29.3151 18.7422,-30.5078 C17.4974,-31.7005 15.875,-32.2969 13.875,-32.2969 C11.75,-32.2969 10.0547,-31.6615 8.78906,-30.3906 C7.52344,-29.1198 6.88021,-27.3646 6.85938,-25.125 L2.34375,-25.5938 C2.65625,-28.9583 3.82031,-31.5234 5.83594,-33.2891 C7.85156,-35.0547 10.5625,-35.9375 13.9688,-35.9375 C17.3958,-35.9375 20.112,-34.9844 22.1172,-33.0781 C24.1224,-31.1719 25.125,-28.8125 25.125,-26 C25.125,-24.5729 24.8307,-23.1667 24.2422,-21.7813 C23.6536,-20.3958 22.6797,-18.9375 21.3203,-17.4063 C19.9609,-15.875 17.7031,-13.776 14.5469,-11.1094 C11.9115,-8.89063 10.2188,-7.38802 9.46875,-6.60156 C8.71875,-5.8151 8.10417,-5.02083 7.625,-4.21875 L25.1719,-4.21875 M30.0781,-17.6563 C30.0781,-21.8854 30.513,-25.2891 31.3828,-27.8672 C32.2526,-30.4453 33.5469,-32.4349 35.2656,-33.8359 C36.9844,-35.237 39.1458,-35.9375 41.75,-35.9375 C43.6667,-35.9375 45.349,-35.5521 46.7969,-34.7813 C48.2448,-34.0104 49.4401,-32.8958 50.3828,-31.4375 C51.3255,-29.9792 52.0677,-28.2031 52.6094,-26.1094 C53.151,-24.0156 53.4219,-21.1979 53.4219,-17.6563 C53.4219,-13.4583 52.9896,-10.0677 52.125,-7.48438 C51.2604,-4.90104 49.9688,-2.90625 48.25,-1.5 C46.5313,-0.09375 44.3646,0.609375 41.75,0.609375 C38.2917,0.609375 35.5781,-0.625 33.6094,-3.09375 C31.2552,-6.07292 30.0781,-10.9271 30.0781,-17.6563 M34.5938,-17.6563 C34.5938,-11.7813 35.2813,-7.86979 36.6563,-5.92188 C38.0313,-3.97396 39.7292,-3 41.75,-3 C43.7604,-3 45.4557,-3.97656 46.8359,-5.92969 C48.2161,-7.88281 48.9063,-11.7917 48.9063,-17.6563 C48.9063,-23.5417 48.2161,-27.4531 46.8359,-29.3906 C45.4557,-31.3281 43.7448,-32.2969 41.7031,-32.2969 C39.6823,-32.2969 38.0677,-31.4427 36.8594,-29.7344 C35.349,-27.5573 34.5938,-23.5313 34.5938,-17.6563 "/>
</g>

<g fill="#212121" fill-opacity="1" stroke="none" transform="matrix(0.615618,0,0,0.593575,40.161,50.4997)"
font-family="SimSun" font-size="9" font-weight="400" font-style="normal" 
>
<path vector-effect="none" fill-rule="evenodd" d="M25.1719,-4.21875 L25.1719,0 L1.51563,0 C1.48438,-1.0625 1.65625,-2.07813 2.03125,-3.04688 C2.63542,-4.66146 3.59896,-6.25 4.92188,-7.8125 C6.24479,-9.375 8.16146,-11.1823 10.6719,-13.2344 C14.5573,-16.4219 17.1849,-18.9479 18.5547,-20.8125 C19.9245,-22.6771 20.6094,-24.4375 20.6094,-26.0938 C20.6094,-27.8438 19.987,-29.3151 18.7422,-30.5078 C17.4974,-31.7005 15.875,-32.2969 13.875,-32.2969 C11.75,-32.2969 10.0547,-31.6615 8.78906,-30.3906 C7.52344,-29.1198 6.88021,-27.3646 6.85938,-25.125 L2.34375,-25.5938 C2.65625,-28.9583 3.82031,-31.5234 5.83594,-33.2891 C7.85156,-35.0547 10.5625,-35.9375 13.9688,-35.9375 C17.3958,-35.9375 20.112,-34.9844 22.1172,-33.0781 C24.1224,-31.1719 25.125,-28.8125 25.125,-26 C25.125,-24.5729 24.8307,-23.1667 24.2422,-21.7813 C23.6536,-20.3958 22.6797,-18.9375 21.3203,-17.4063 C19.9609,-15.875 17.7031,-13.776 14.5469,-11.1094 C11.9115,-8.89063 10.2188,-7.38802 9.46875,-6.60156 C8.71875,-5.8151 8.10417,-5.02083 7.625,-4.21875 L25.1719,-4.21875 M30.0781,-9.375 L34.6875,-9.76563 C35.0313,-7.51563 35.8255,-5.82552 37.0703,-4.69531 C38.3151,-3.5651 39.8177,-3 41.5781,-3 C43.6927,-3 45.4818,-3.79688 46.9453,-5.39063 C48.4089,-6.98438 49.1406,-9.10417 49.1406,-11.75 C49.1406,-14.25 48.4375,-16.224 47.0313,-17.6719 C45.625,-19.1198 43.7813,-19.8438 41.5,-19.8438 C40.0833,-19.8438 38.8047,-19.5234 37.6641,-18.8828 C36.5234,-18.2422 35.6302,-17.4063 34.9844,-16.375 L30.8594,-16.9219 L34.3281,-35.2969 L52.125,-35.2969 L52.125,-31.1094 L37.8438,-31.1094 L35.9063,-21.4844 C38.0625,-22.9844 40.3177,-23.7344 42.6719,-23.7344 C45.7969,-23.7344 48.4349,-22.651 50.5859,-20.4844 C52.737,-18.3177 53.8125,-15.5365 53.8125,-12.1406 C53.8125,-8.90104 52.8646,-6.09896 50.9688,-3.73438 C48.6771,-0.838542 45.5469,0.609375 41.5781,0.609375 C38.3177,0.609375 35.6589,-0.302083 33.6016,-2.125 C31.5443,-3.94792 30.3698,-6.36458 30.0781,-9.375 "/>
</g>

<g fill="#212121" fill-opacity="1" stroke="none" transform="matrix(0.615618,0,0,0.593575,414.737,23.4623)"
font-family="SimSun" font-size="9" font-weight="400" font-style="normal" 
>
<path vector-effect="none" fill-rule="evenodd" d="M5.875,-6.20313 C5.875,-7.02604 5.97396,-7.92969 6.17188,-8.91406 C6.36979,-9.89844 6.56771,-10.7083 6.76563,-11.3438 C6.96354,-11.9792 7.41146,-13.2214 8.10938,-15.0703 C8.80729,-16.9193 9.16667,-17.8802 9.1875,-17.9531 C9.66667,-19.2865 9.90625,-20.3854 9.90625,-21.25 C9.90625,-22.3333 9.50521,-22.875 8.70313,-22.875 C7.25521,-22.875 6.0599,-22.1302 5.11719,-20.6406 C4.17448,-19.151 3.47917,-17.4844 3.03125,-15.6406 C2.95833,-15.4115 2.80729,-15.2969 2.57813,-15.2969 L1.9375,-15.2969 C1.63542,-15.2969 1.48438,-15.4635 1.48438,-15.7969 L1.48438,-15.9531 C2.06771,-18.1406 2.96875,-20.0781 4.1875,-21.7656 C5.40625,-23.4531 6.94792,-24.2969 8.8125,-24.2969 C10.1146,-24.2969 11.2188,-23.8698 12.125,-23.0156 C13.0313,-22.1615 13.4844,-21.0729 13.4844,-19.75 C13.4844,-19.0625 13.3333,-18.3438 13.0313,-17.5938 C12.3125,-15.7396 11.7474,-14.2526 11.3359,-13.1328 C10.9245,-12.013 10.5443,-10.7604 10.1953,-9.375 C9.84635,-7.98958 9.67188,-6.70833 9.67188,-5.53125 C9.67188,-4.15625 9.98958,-3.03385 10.625,-2.16406 C11.2604,-1.29427 12.25,-0.859375 13.5938,-0.859375 C16.1354,-0.859375 18.4271,-2.81771 20.4688,-6.73438 C21.1146,-8.00521 21.724,-9.4974 22.2969,-11.2109 C22.8698,-12.9245 23.1563,-14.3177 23.1563,-15.3906 C23.1563,-16.5052 22.9766,-17.3698 22.6172,-17.9844 C22.2578,-18.599 21.7917,-19.2422 21.2188,-19.9141 C20.6458,-20.5859 20.3594,-21.1198 20.3594,-21.5156 C20.3594,-22.2344 20.6536,-22.888 21.2422,-23.4766 C21.8307,-24.0651 22.4844,-24.3594 23.2031,-24.3594 C24.0781,-24.3594 24.7083,-23.9557 25.0938,-23.1484 C25.4792,-22.3411 25.6719,-21.4271 25.6719,-20.4063 C25.6719,-19.1875 25.4974,-17.737 25.1484,-16.0547 C24.7995,-14.3724 24.3177,-12.6276 23.7031,-10.8203 C23.0885,-9.01302 22.5208,-7.58854 22,-6.54688 C19.5833,-1.76563 16.7604,0.625 13.5313,0.625 C11.2292,0.625 9.3776,0.046875 7.97656,-1.10938 C6.57552,-2.26563 5.875,-3.96354 5.875,-6.20313 "/>
</g>

<g fill="#212121" fill-opacity="1" stroke="none" transform="matrix(0.615618,0,0,0.593575,431.149,28.3592)"
font-family="SimSun" font-size="9" font-weight="400" font-style="normal" 
>
<path vector-effect="none" fill-rule="evenodd" d="M1.85938,0 C1.60938,0 1.48438,-0.166667 1.48438,-0.5 C1.49479,-0.5625 1.51823,-0.671875 1.55469,-0.828125 C1.59115,-0.984375 1.64323,-1.10938 1.71094,-1.20313 C1.77865,-1.29688 1.86458,-1.34375 1.96875,-1.34375 C3.51042,-1.34375 4.59375,-1.42708 5.21875,-1.59375 C5.54167,-1.70833 5.77604,-2.04688 5.92188,-2.60938 L11.1406,-23.4844 C11.1823,-23.7344 11.2031,-23.9115 11.2031,-24.0156 C11.2031,-24.2865 11.0573,-24.4375 10.7656,-24.4688 C10.276,-24.5729 9.35938,-24.625 8.01563,-24.625 C7.76563,-24.625 7.64063,-24.7917 7.64063,-25.125 C7.65104,-25.1875 7.67708,-25.2969 7.71875,-25.4531 C7.76042,-25.6094 7.8151,-25.7318 7.88281,-25.8203 C7.95052,-25.9089 8.03125,-25.9531 8.125,-25.9531 L21.25,-25.9531 C22.4479,-25.9531 23.6094,-25.7396 24.7344,-25.3125 C25.8594,-24.8854 26.7813,-24.2344 27.5,-23.3594 C28.2188,-22.4844 28.5781,-21.4219 28.5781,-20.1719 C28.5781,-18.5573 28.0104,-17.1198 26.875,-15.8594 C25.7396,-14.599 24.3281,-13.6172 22.6406,-12.9141 C20.9531,-12.2109 19.3177,-11.8594 17.7344,-11.8594 L11.5625,-11.8594 L9.23438,-2.46875 C9.19271,-2.21875 9.17188,-2.04167 9.17188,-1.9375 C9.17188,-1.83333 9.1875,-1.7474 9.21875,-1.67969 C9.25,-1.61198 9.29167,-1.56771 9.34375,-1.54688 C9.39583,-1.52604 9.48438,-1.50521 9.60938,-1.48438 C10.0885,-1.39063 11.0052,-1.34375 12.3594,-1.34375 C12.6094,-1.34375 12.7344,-1.17188 12.7344,-0.828125 C12.6406,-0.473958 12.5703,-0.247396 12.5234,-0.148438 C12.4766,-0.0494792 12.3281,0 12.0781,0 L1.85938,0 M11.75,-12.9844 L17.0781,-12.9844 C19.5365,-12.9844 21.4063,-13.6458 22.6875,-14.9688 C23.3438,-15.625 23.8802,-16.5729 24.2969,-17.8125 C24.7135,-19.0521 24.9219,-20.1719 24.9219,-21.1719 C24.9219,-22.4219 24.4453,-23.3099 23.4922,-23.8359 C22.5391,-24.362 21.3594,-24.625 19.9531,-24.625 L16.3125,-24.625 C15.6146,-24.625 15.1563,-24.5651 14.9375,-24.4453 C14.7188,-24.3255 14.5156,-23.9531 14.3281,-23.3281 L11.75,-12.9844"/>
</g>

<g fill="#212121" fill-opacity="1" stroke="none" transform="matrix(0.615618,0,0,0.593575,460.755,23.4623)"
font-family="SimSun" font-size="9" font-weight="400" font-style="normal" 
>
<path vector-effect="none" fill-rule="evenodd" d="M4.14063,-7.3125 C3.82813,-7.3125 3.57552,-7.42708 3.38281,-7.65625 C3.1901,-7.88542 3.09375,-8.13542 3.09375,-8.40625 C3.09375,-8.70833 3.1901,-8.96615 3.38281,-9.17969 C3.57552,-9.39323 3.82813,-9.5 4.14063,-9.5 L38.6719,-9.5 C38.9427,-9.5 39.1771,-9.39323 39.375,-9.17969 C39.5729,-8.96615 39.6719,-8.70833 39.6719,-8.40625 C39.6719,-8.13542 39.5729,-7.88542 39.375,-7.65625 C39.1771,-7.42708 38.9427,-7.3125 38.6719,-7.3125 L4.14063,-7.3125 M4.14063,-18 C3.82813,-18 3.57552,-18.1068 3.38281,-18.3203 C3.1901,-18.5339 3.09375,-18.7917 3.09375,-19.0938 C3.09375,-19.3646 3.1901,-19.6172 3.38281,-19.8516 C3.57552,-20.0859 3.82813,-20.2031 4.14063,-20.2031 L38.6719,-20.2031 C38.9427,-20.2031 39.1771,-20.0859 39.375,-19.8516 C39.5729,-19.6172 39.6719,-19.3646 39.6719,-19.0938 C39.6719,-18.7917 39.5729,-18.5339 39.375,-18.3203 C39.1771,-18.1068 38.9427,-18 38.6719,-18 L4.14063,-18"/>
</g>

<g fill="#212121" fill-opacity="1" stroke="none" transform="matrix(0.615618,0,0,0.593575,496.495,23.4623)"
font-family="SimSun" font-size="9" font-weight="400" font-style="normal" 
>
<path vector-effect="none" fill-rule="evenodd" d="M5.875,-6.20313 C5.875,-7.02604 5.97396,-7.92969 6.17188,-8.91406 C6.36979,-9.89844 6.56771,-10.7083 6.76563,-11.3438 C6.96354,-11.9792 7.41146,-13.2214 8.10938,-15.0703 C8.80729,-16.9193 9.16667,-17.8802 9.1875,-17.9531 C9.66667,-19.2865 9.90625,-20.3854 9.90625,-21.25 C9.90625,-22.3333 9.50521,-22.875 8.70313,-22.875 C7.25521,-22.875 6.0599,-22.1302 5.11719,-20.6406 C4.17448,-19.151 3.47917,-17.4844 3.03125,-15.6406 C2.95833,-15.4115 2.80729,-15.2969 2.57813,-15.2969 L1.9375,-15.2969 C1.63542,-15.2969 1.48438,-15.4635 1.48438,-15.7969 L1.48438,-15.9531 C2.06771,-18.1406 2.96875,-20.0781 4.1875,-21.7656 C5.40625,-23.4531 6.94792,-24.2969 8.8125,-24.2969 C10.1146,-24.2969 11.2188,-23.8698 12.125,-23.0156 C13.0313,-22.1615 13.4844,-21.0729 13.4844,-19.75 C13.4844,-19.0625 13.3333,-18.3438 13.0313,-17.5938 C12.3125,-15.7396 11.7474,-14.2526 11.3359,-13.1328 C10.9245,-12.013 10.5443,-10.7604 10.1953,-9.375 C9.84635,-7.98958 9.67188,-6.70833 9.67188,-5.53125 C9.67188,-4.15625 9.98958,-3.03385 10.625,-2.16406 C11.2604,-1.29427 12.25,-0.859375 13.5938,-0.859375 C16.1354,-0.859375 18.4271,-2.81771 20.4688,-6.73438 C21.1146,-8.00521 21.724,-9.4974 22.2969,-11.2109 C22.8698,-12.9245 23.1563,-14.3177 23.1563,-15.3906 C23.1563,-16.5052 22.9766,-17.3698 22.6172,-17.9844 C22.2578,-18.599 21.7917,-19.2422 21.2188,-19.9141 C20.6458,-20.5859 20.3594,-21.1198 20.3594,-21.5156 C20.3594,-22.2344 20.6536,-22.888 21.2422,-23.4766 C21.8307,-24.0651 22.4844,-24.3594 23.2031,-24.3594 C24.0781,-24.3594 24.7083,-23.9557 25.0938,-23.1484 C25.4792,-22.3411 25.6719,-21.4271 25.6719,-20.4063 C25.6719,-19.1875 25.4974,-17.737 25.1484,-16.0547 C24.7995,-14.3724 24.3177,-12.6276 23.7031,-10.8203 C23.0885,-9.01302 22.5208,-7.58854 22,-6.54688 C19.5833,-1.76563 16.7604,0.625 13.5313,0.625 C11.2292,0.625 9.3776,0.046875 7.97656,-1.10938 C6.57552,-2.26563 5.875,-3.96354 5.875,-6.20313 "/>
</g>

<g fill="#212121" fill-opacity="1" stroke="none" transform="matrix(0.615618,0,0,0.593575,512.907,28.3592)"
font-family="SimSun" font-size="9" font-weight="400" font-style="normal" 
>
<path vector-effect="none" fill-rule="evenodd" d="M6.76563,0.421875 L5.01563,-23.7813 C4.92188,-24.1563 4.64063,-24.3906 4.17188,-24.4844 C3.70313,-24.5781 3.125,-24.625 2.4375,-24.625 C2.1875,-24.625 2.0625,-24.7917 2.0625,-25.125 C2.14583,-25.4479 2.21354,-25.6667 2.26563,-25.7813 C2.31771,-25.8958 2.45833,-25.9531 2.6875,-25.9531 L11.75,-25.9531 C11.9896,-25.9531 12.1094,-25.7865 12.1094,-25.4531 C12.0156,-24.901 11.8594,-24.625 11.6406,-24.625 C9.60938,-24.625 8.53125,-24.2708 8.40625,-23.5625 L9.76563,-4.375 L19.2656,-20.9375 L19.0781,-23.7813 C18.9844,-24.1563 18.7031,-24.3906 18.2344,-24.4844 C17.7656,-24.5781 17.1875,-24.625 16.5,-24.625 C16.2396,-24.625 16.1094,-24.7917 16.1094,-25.125 C16.1927,-25.4479 16.2604,-25.6667 16.3125,-25.7813 C16.3646,-25.8958 16.5104,-25.9531 16.75,-25.9531 L25.8125,-25.9531 C26.0625,-25.9531 26.1875,-25.7865 26.1875,-25.4531 C26.1667,-25.3906 26.138,-25.2865 26.1016,-25.1406 C26.0651,-24.9948 26.0156,-24.8724 25.9531,-24.7734 C25.8906,-24.6745 25.8021,-24.625 25.6875,-24.625 C23.6458,-24.625 22.5677,-24.2708 22.4531,-23.5625 L22.4531,-23.2813 L23.8281,-4.375 L34.1563,-22.4219 C34.3021,-22.6927 34.375,-22.9583 34.375,-23.2188 C34.375,-23.7292 34.1224,-24.0911 33.6172,-24.3047 C33.112,-24.5182 32.5469,-24.625 31.9219,-24.625 C31.6719,-24.625 31.5469,-24.7917 31.5469,-25.125 C31.599,-25.3229 31.638,-25.4766 31.6641,-25.5859 C31.6901,-25.6953 31.7448,-25.7839 31.8281,-25.8516 C31.9115,-25.9193 32.0313,-25.9531 32.1875,-25.9531 L39.4531,-25.9531 C39.6927,-25.9531 39.8125,-25.7865 39.8125,-25.4531 C39.8021,-25.3906 39.7786,-25.2839 39.7422,-25.1328 C39.7057,-24.9818 39.6536,-24.8594 39.5859,-24.7656 C39.5182,-24.6719 39.4375,-24.625 39.3438,-24.625 C37.5313,-24.625 36.1563,-23.8021 35.2188,-22.1563 C35.1458,-22.0833 35.1094,-22.0469 35.1094,-22.0469 L22.2344,0.421875 C22.099,0.692708 21.8802,0.828125 21.5781,0.828125 L21.2813,0.828125 C20.9688,0.828125 20.8125,0.692708 20.8125,0.421875 L19.375,-19.1563 L8.20313,0.421875 C8.01563,0.692708 7.79167,0.828125 7.53125,0.828125 L7.21875,0.828125 C6.91667,0.828125 6.76563,0.692708 6.76563,0.421875 "/>
</g>

<g fill="#212121" fill-opacity="1" stroke="none" transform="matrix(0.615618,0,0,0.593575,549.682,23.4623)"
font-family="SimSun" font-size="9" font-weight="400" font-style="normal" 
>
<path vector-effect="none" fill-rule="evenodd" d="M4.14063,-7.3125 C3.82813,-7.3125 3.57552,-7.42708 3.38281,-7.65625 C3.1901,-7.88542 3.09375,-8.13542 3.09375,-8.40625 C3.09375,-8.70833 3.1901,-8.96615 3.38281,-9.17969 C3.57552,-9.39323 3.82813,-9.5 4.14063,-9.5 L38.6719,-9.5 C38.9427,-9.5 39.1771,-9.39323 39.375,-9.17969 C39.5729,-8.96615 39.6719,-8.70833 39.6719,-8.40625 C39.6719,-8.13542 39.5729,-7.88542 39.375,-7.65625 C39.1771,-7.42708 38.9427,-7.3125 38.6719,-7.3125 L4.14063,-7.3125 M4.14063,-18 C3.82813,-18 3.57552,-18.1068 3.38281,-18.3203 C3.1901,-18.5339 3.09375,-18.7917 3.09375,-19.0938 C3.09375,-19.3646 3.1901,-19.6172 3.38281,-19.8516 C3.57552,-20.0859 3.82813,-20.2031 4.14063,-20.2031 L38.6719,-20.2031 C38.9427,-20.2031 39.1771,-20.0859 39.375,-19.8516 C39.5729,-19.6172 39.6719,-19.3646 39.6719,-19.0938 C39.6719,-18.7917 39.5729,-18.5339 39.375,-18.3203 C39.1771,-18.1068 38.9427,-18 38.6719,-18 L4.14063,-18"/>
</g>

<g fill="#212121" fill-opacity="1" stroke="none" transform="matrix(0.615618,0,0,0.593575,585.422,23.4623)"
font-family="SimSun" font-size="9" font-weight="400" font-style="normal" 
>
<path vector-effect="none" fill-rule="evenodd" d="M13.75,1.20313 C9.26042,1.20313 6.20573,-0.645833 4.58594,-4.34375 C2.96615,-8.04167 2.15625,-12.4375 2.15625,-17.5313 C2.15625,-20.7188 2.44531,-23.7188 3.02344,-26.5313 C3.60156,-29.3438 4.75521,-31.7292 6.48438,-33.6875 C8.21354,-35.6458 10.6354,-36.625 13.75,-36.625 C16.1667,-36.625 18.1458,-36.0365 19.6875,-34.8594 C21.2292,-33.6823 22.401,-32.1563 23.2031,-30.2813 C24.0052,-28.4063 24.5547,-26.401 24.8516,-24.2656 C25.1484,-22.1302 25.2969,-19.8854 25.2969,-17.5313 C25.2969,-14.3854 25.0052,-11.4375 24.4219,-8.6875 C23.8385,-5.9375 22.6979,-3.60156 21,-1.67969 C19.3021,0.242188 16.8854,1.20313 13.75,1.20313 M13.75,-0.21875 C15.7917,-0.21875 17.3125,-1.26563 18.3125,-3.35938 C19.3125,-5.45313 19.9297,-7.77083 20.1641,-10.3125 C20.3984,-12.8542 20.5156,-15.5573 20.5156,-18.4219 C20.5156,-21.1823 20.3984,-23.7266 20.1641,-26.0547 C19.9297,-28.3828 19.3177,-30.4896 18.3281,-32.375 C17.3385,-34.2604 15.8125,-35.2031 13.75,-35.2031 C11.6771,-35.2031 10.138,-34.2552 9.13281,-32.3594 C8.1276,-30.4635 7.50781,-28.3568 7.27344,-26.0391 C7.03906,-23.7214 6.92188,-21.1823 6.92188,-18.4219 C6.92188,-16.3802 6.97135,-14.4557 7.07031,-12.6484 C7.16927,-10.8411 7.4349,-8.97396 7.86719,-7.04688 C8.29948,-5.11979 8.99479,-3.5 9.95313,-2.1875 C10.9115,-0.875 12.1771,-0.21875 13.75,-0.21875 "/>
</g>

<g fill="none" stroke="#0000ff" stroke-opacity="1" stroke-width="4.16667" stroke-linecap="butt" stroke-linejoin="round" transform="matrix(0.615618,0,0,0.593575,-59.9796,-11.5289)"
font-family="SimSun" font-size="9" font-weight="400" font-style="normal" 
>
<polyline fill="none" vector-effect="none" points="233.383,897.24 234.766,897.24 236.149,897.24 237.532,897.24 238.915,897.24 240.298,897.24 241.681,897.24 243.064,897.24 244.447,897.24 245.83,897.24 247.213,897.24 248.596,897.24 249.979,897.24 251.362,897.24 252.745,897.24 254.128,897.24 255.511,897.24 256.894,897.24 258.277,897.24 259.66,897.24 261.043,897.24 262.426,897.24 263.809,897.24 265.192,897.24 266.575,897.24 267.958,897.24 269.341,897.24 270.724,897.24 272.107,897.24 273.49,897.24 274.873,897.24 276.256,897.24 277.639,897.24 279.022,897.24 280.405,897.24 281.788,897.24 283.171,897.24 284.554,897.24 285.937,897.24 287.32,897.24 288.703,897.24 290.086,897.24 291.469,897.24 292.852,897.24 294.235,897.24 295.618,897.24 297.001,897.24 298.384,897.24 299.767,897.24 301.15,897.24 302.533,897.24 303.916,897.24 305.299,897.24 306.682,897.24 308.065,897.24 309.448,897.24 310.831,897.24 312.214,897.24 313.597,897.24 314.98,897.24 316.363,897.24 317.746,897.24 319.129,897.24 320.512,897.24 321.895,897.24 323.278,897.24 324.661,897.24 326.044,897.24 327.427,897.24 328.81,897.24 330.193,897.24 331.576,897.24 332.959,897.24 334.342,897.24 335.725,897.24 337.108,897.24 338.491,897.24 339.874,897.24 341.257,897.24 342.64,897.24 344.023,897.24 345.406,897.24 346.789,897.24 348.172,897.24 349.555,897.24 350.938,897.24 352.321,897.24 353.704,897.24 355.087,897.24 356.47,897.24 357.853,897.24 359.236,897.24 360.619,897.24 362.002,897.24 363.385,897.24 364.768,897.24 366.151,897.24 367.534,897.24 368.917,897.24 370.3,897.24 371.683,897.24 373.066,897.24 374.449,897.24 375.832,897.24 377.215,897.24 378.598,897.24 379.981,897.24 381.364,897.24 382.747,897.24 384.13,897.24 385.513,897.24 386.896,897.24 388.279,897.24 389.662,897.24 391.045,897.24 392.428,897.24 393.811,897.24 395.194,897.24 396.577,897.24 397.96,897.24 399.343,897.24 400.726,897.24 402.109,897.24 403.492,897.24 404.875,897.24 406.258,897.24 407.641,897.24 409.024,897.24 410.407,897.24 411.79,897.24 413.173,897.24 414.556,897.24 415.939,897.24 417.322,897.24 418.705,897.24 420.088,897.24 421.471,897.24 422.854,897.24 424.237,897.24 425.62,897.24 427.003,897.24 428.386,897.24 429.769,897.24 431.152,897.24 432.535,897.24 433.918,897.24 435.301,897.24 436.684,897.24 438.067,897.24 439.45,897.24 440.833,897.24 442.216,897.24 443.599,897.24 444.982,897.24 446.365,897.24 447.748,897.24 449.131,897.24 450.514,897.24 451.897,897.24 453.28,897.24 454.663,897.24 456.046,897.24 457.429,897.24 458.812,897.24 460.195,897.24 461.578,897.24 462.961,897.24 464.344,897.24 465.727,897.24 467.11,897.24 468.493,897.24 469.876,897.24 471.259,897.24 472.642,897.24 474.025,897.24 475.408,897.24 476.791,897.24 478.174,897.24 479.557,897.24 480.94,897.24 482.323,897.24 483.706,897.24 485.089,897.24 486.472,897.24 487.855,897.24 489.238,897.24 490.621,897.24 492.004,897.24 493.387,897.24 494.77,897.24 496.153,897.24 497.536,897.24 498.919,897.24 500.302,897.24 501.685,897.24 503.068,897.24 504.451,897.24 505.834,897.24 507.217,897.24 508.6,897.24 509.983,897.24 511.366,897.24 512.749,897.24 514.132,897.24 515.515,897.24 516.898,897.24 518.281,897.24 519.664,897.24 521.047,897.24 522.43,897.24 523.813,897.24 525.196,897.24 526.579,897.24 527.962,897.24 529.345,897.24 530.728,897.24 532.111,897.24 533.494,897.24 534.877,897.24 536.26,897.24 537.643,897.24 539.026,897.24 540.409,897.24 541.792,897.24 543.175,897.24 544.558,897.24 545.941,897.24 547.324,897.24 548.707,897.24 550.09,897.24 551.473,897.24 552.856,897.24 554.239,897.24 555.622,897.24 557.005,897.24 558.388,897.24 559.771,897.24 561.154,897.24 562.537,897.24 563.92,897.24 565.303,897.24 566.686,897.24 568.069,897.24 569.452,897.24 570.835,897.24 572.218,897.24 573.601,897.24 574.984,897.24 576.367,897.24 577.75,897.24 579.133,897.24 580.516,897.24 581.899,897.24 583.282,897.24 584.665,897.24 586.048,897.24 587.431,897.24 588.814,897.24 590.197,897.24 591.58,897.24 592.963,897.24 594.346,897.24 595.729,897.24 597.112,897.24 598.495,897.24 599.878,897.24 601.261,897.24 602.644,897.24 604.027,897.24 605.41,897.24 606.793,897.24 608.176,897.24 609.559,897.24 610.942,897.24 612.325,897.24 613.708,897.24 615.091,897.24 616.474,897.24 617.857,897.24 619.24,897.24 620.623,897.24 622.006,897.24 623.389,897.24 624.772,897.24 626.155,897.24 627.538,897.24 628.921,897.24 630.304,897.24 631.687,897.24 633.07,897.24 634.453,897.24 635.836,897.24 637.219,897.24 638.602,897.24 639.985,897.24 641.368,897.24 642.751,897.24 644.134,897.24 645.517,897.24 646.9,897.24 648.283,897.24 649.666,897.24 651.049,897.24 652.432,897.24 653.815,897.24 655.198,897.24 656.581,897.24 657.964,897.24 659.347,897.24 660.73,897.24 662.113,897.24 663.496,897.24 664.879,897.24 666.262,897.24 667.645,897.24 669.028,897.24 670.411,897.24 671.794,897.24 673.177,897.24 674.56,897.24 675.943,897.24 677.326,897.24 678.709,897.24 680.092,897.24 681.475,897.24 682.858,897.24 684.241,897.24 685.624,897.24 687.007,897.24 688.39,897.24 689.773,897.24 691.156,897.24 692.539,897.24 693.922,897.24 695.305,897.24 696.688,897.24 698.071,897.24 699.454,897.24 700.837,897.24 702.22,897.24 703.603,897.24 704.986,897.24 706.369,897.24 707.752,897.24 709.135,897.24 710.518,897.24 711.901,897.24 713.284,897.24 714.667,897.24 716.05,897.24 717.433,897.24 718.816,897.24 720.199,897.24 721.582,897.24 722.965,897.24 724.348,897.24 725.731,897.24 727.114,897.24 728.497,897.24 729.88,897.24 731.263,897.24 732.646,897.24 734.029,897.24 735.412,897.24 736.795,897.24 738.178,897.24 739.561,897.24 740.944,897.24 742.327,897.24 743.71,897.24 745.093,897.24 746.476,897.24 747.859,897.24 749.242,897.24 750.625,897.24 752.008,897.24 753.391,897.24 754.774,897.24 756.157,897.24 757.54,897.24 758.923,897.24 760.306,897.24 761.689,897.24 763.072,897.24 764.455,897.24 765.838,897.24 767.221,897.24 768.604,897.24 769.987,897.24 771.37,897.24 772.753,897.24 774.136,897.24 775.519,897.24 776.902,897.24 778.285,897.24 779.668,897.24 781.051,897.24 782.434,897.24 783.817,897.24 785.2,897.24 786.583,897.24 787.966,897.24 789.349,897.24 790.732,897.24 792.115,897.24 793.498,897.24 794.881,897.24 796.264,897.24 797.647,897.24 799.03,897.24 800.413,897.24 801.796,897.24 803.179,897.24 804.562,897.24 805.945,897.24 807.328,897.24 808.711,897.24 810.094,897.24 811.477,897.24 812.86,897.24 814.243,897.24 815.626,897.24 817.009,897.24 818.392,897.24 819.775,897.24 821.158,897.24 822.541,897.24 823.924,897.24 825.307,897.24 826.69,897.24 828.073,897.24 829.456,897.24 830.839,897.24 832.222,897.24 833.605,897.24 834.988,897.24 836.371,897.24 837.754,897.24 839.137,897.24 840.52,897.24 841.903,897.24 843.286,897.24 844.669,897.24 846.052,897.24 847.435,897.24 848.818,897.24 850.201,897.24 851.584,897.24 852.967,897.24 854.35,897.24 855.733,897.24 857.116,897.24 858.499,897.24 859.882,897.24 861.265,897.24 862.648,897.24 864.031,897.24 865.414,897.24 866.797,897.24 868.18,897.24 869.563,897.24 870.946,897.24 872.329,897.24 873.712,897.24 875.095,897.24 876.478,897.24 877.861,897.24 879.244,897.24 880.627,897.24 882.01,897.24 883.393,897.24 884.776,897.24 886.159,897.24 887.542,897.24 888.925,897.24 890.308,897.24 891.691,897.24 893.074,897.24 894.457,897.24 895.84,897.24 897.223,897.24 898.606,897.24 899.989,897.24 901.372,897.24 902.755,897.24 904.138,897.24 905.521,897.24 906.904,897.24 908.287,897.24 909.67,897.24 911.053,897.24 912.436,897.24 913.819,897.24 915.202,897.24 916.585,897.24 917.968,897.24 919.351,897.24 920.734,897.24 922.117,897.24 923.5,897.24 924.883,897.24 926.266,897.24 927.649,897.24 929.032,897.24 930.415,897.24 931.798,897.24 933.181,897.24 934.564,897.24 935.947,897.24 937.33,897.24 938.713,897.24 940.096,897.24 941.479,897.24 942.862,897.24 944.245,897.24 945.628,897.24 947.011,897.24 948.394,897.24 949.777,897.24 951.16,897.24 952.543,897.24 953.926,897.24 955.309,897.24 956.692,897.24 958.075,897.24 959.458,897.24 960.841,897.24 962.224,897.24 963.607,897.24 964.99,897.24 966.373,897.24 967.756,897.24 969.139,897.24 970.522,897.24 971.905,897.24 973.288,897.24 974.671,897.24 976.054,897.24 977.437,897.24 978.82,897.24 980.203,897.24 981.586,897.24 982.969,897.24 984.352,897.24 985.735,897.24 987.118,897.24 988.501,897.24 989.884,897.24 991.267,897.24 992.65,897.24 994.033,897.24 995.416,897.24 996.799,897.24 998.182,897.24 999.565,897.24 1000.95,897.24 1002.33,897.24 1003.71,897.24 1005.1,897.24 1006.48,897.24 1007.86,897.24 1009.25,897.24 1010.63,897.24 1012.01,897.24 1013.4,897.24 1014.78,897.24 1016.16,897.24 1017.54,897.24 1018.93,897.24 1020.31,897.24 1021.69,897.24 1023.08,897.24 1024.46,897.24 1025.84,897.24 1027.22,897.24 1028.61,897.24 1029.99,897.24 1031.37,897.24 1032.76,897.24 1034.14,897.24 1035.52,897.24 1036.91,897.24 1038.29,897.24 1039.67,897.24 1041.06,897.24 1042.44,897.24 1043.82,897.24 1045.2,897.24 1046.59,897.24 1047.97,897.24 1049.35,897.24 1050.74,897.24 1052.12,897.24 1053.5,897.24 1054.89,897.24 1056.27,897.24 1057.65,897.24 1059.03,897.24 1060.42,897.24 1061.8,897.24 1063.18,897.24 1064.57,897.24 1065.95,897.24 1067.33,897.24 1068.71,897.24 1070.1,897.24 1071.48,897.24 1072.86,897.24 1074.25,897.24 1075.63,897.24 1077.01,897.24 1078.4,897.24 1079.78,897.24 1081.16,897.24 1082.55,897.24 1083.93,897.24 1085.31,897.24 1086.69,897.24 1088.08,897.24 1089.46,897.24 1090.84,897.24 1092.23,897.24 1093.61,897.24 1094.99,897.24 1096.38,897.24 1097.76,897.24 1099.14,897.24 1100.52,897.24 1101.91,897.24 1103.29,897.24 1104.67,897.24 1106.06,897.24 1107.44,897.24 1108.82,897.24 1110.2,897.24 1111.59,897.24 1112.97,897.24 1114.35,897.24 1115.74,897.24 1117.12,897.24 1118.5,897.24 1119.89,897.24 1121.27,897.24 1122.65,897.24 1124.04,897.24 1125.42,897.24 1126.8,897.24 1128.18,897.24 1129.57,897.24 1130.95,897.24 1132.33,897.24 1133.72,897.24 1135.1,897.24 1136.48,897.24 1137.86,897.24 1139.25,897.24 1140.63,897.24 1142.01,897.24 1143.4,897.24 1144.78,897.24 1146.16,897.24 1147.55,897.24 1148.93,897.24 1150.31,897.24 1151.69,897.24 1153.08,897.24 1154.46,897.24 1155.84,897.24 1157.23,897.24 1158.61,897.24 1159.99,897.24 1161.38,897.24 1162.76,897.24 1164.14,897.24 1165.53,897.24 1166.91,897.24 1168.29,897.24 1169.67,897.24 1171.06,897.24 1172.44,897.24 1173.82,897.24 1175.21,897.24 1176.59,897.24 1177.97,897.24 1179.35,897.24 1180.74,897.24 1182.12,897.24 1183.5,897.24 1184.89,897.24 1186.27,897.24 1187.65,897.24 1189.04,897.24 1190.42,897.24 1191.8,897.24 1193.19,897.24 1194.57,897.24 1195.95,897.24 1197.33,897.24 1198.72,897.24 1200.1,897.24 1201.48,897.24 1202.87,897.24 1204.25,897.24 1205.63,897.24 1207.02,897.24 1208.4,897.24 1209.78,897.24 1211.16,897.24 1212.55,897.24 1213.93,897.24 1215.31,897.24 1216.7,897.24 1218.08,897.24 1219.46,897.24 1220.84,897.24 1222.23,897.24 1223.61,897.24 1224.99,897.24 1226.38,897.24 1227.76,897.24 1229.14,897.24 1230.53,897.24 1231.91,897.24 1233.29,897.24 1234.68,897.24 1236.06,897.24 1237.44,897.24 1238.82,897.24 1240.21,897.24 1241.59,897.24 1242.97,897.24 1244.36,897.24 1245.74,897.24 1247.12,897.24 1248.51,897.24 1249.89,897.24 1251.27,897.24 1252.65,897.24 1254.04,897.24 1255.42,897.24 1256.8,897.24 1258.19,897.24 1259.57,897.24 1260.95,897.24 1262.33,897.24 1263.72,897.24 1265.1,897.24 1266.48,897.24 1267.87,897.24 1269.25,897.24 1270.63,897.24 1272.02,897.24 1273.4,897.24 1274.78,897.24 1276.17,897.24 1277.55,897.24 1278.93,897.24 1280.31,897.24 1281.7,897.24 1283.08,897.24 1284.46,897.24 1285.85,897.24 1287.23,897.24 1288.61,897.24 1289.99,897.24 1291.38,897.24 1292.76,897.24 1294.14,897.24 1295.53,897.24 1296.91,897.24 1298.29,897.24 1299.68,897.24 1301.06,897.24 1302.44,897.24 1303.82,897.24 1305.21,897.24 1306.59,897.24 1307.97,897.24 1309.36,897.24 1310.74,897.24 1312.12,897.24 1313.51,897.24 1314.89,897.24 1316.27,897.24 1317.66,897.24 1319.04,897.24 1320.42,897.24 1321.8,897.24 1323.19,897.24 1324.57,897.24 1325.95,897.24 1327.34,897.24 1328.72,897.24 1330.1,897.24 1331.48,897.24 1332.87,897.24 1334.25,897.24 1335.63,897.24 1337.02,897.24 1338.4,897.24 1339.78,897.24 " />
</g>

<g fill="none" stroke="#000000" stroke-opacity="1" stroke-dasharray="16,16" stroke-dashoffset="0" stroke-width="4.16667" stroke-linecap="butt" stroke-linejoin="round" transform="matrix(0.615618,0,0,0.593575,-59.9796,-11.5289)"
font-family="SimSun" font-size="9" font-weight="400" font-style="normal" 
>
<polyline fill="none" vector-effect="none" points="233.383,897.24 234.766,896.396 236.149,895.552 237.532,894.708 238.915,893.864 240.298,893.02 241.681,892.176 243.064,891.332 244.447,890.488 245.83,889.644 247.213,888.8 248.596,887.956 249.979,887.112 251.362,886.268 252.745,885.424 254.128,884.58 255.511,883.736 256.894,882.892 258.277,882.048 259.66,881.204 261.043,880.36 262.426,879.516 263.809,878.672 265.192,877.828 266.575,876.984 267.958,876.14 269.341,875.296 270.724,874.452 272.107,873.608 273.49,872.764 274.873,871.92 276.256,871.076 277.639,870.232 279.022,869.388 280.405,868.544 281.788,867.7 283.171,866.856 284.554,866.012 285.937,865.168 287.32,864.324 288.703,863.48 290.086,862.636 291.469,861.792 292.852,860.948 294.235,860.104 295.618,859.26 297.001,858.416 298.384,857.572 299.767,856.728 301.15,855.884 302.533,855.04 303.916,854.196 305.299,853.352 306.682,852.508 308.065,851.664 309.448,850.82 310.831,849.976 312.214,849.132 313.597,848.288 314.98,847.444 316.363,846.6 317.746,845.756 319.129,844.912 320.512,844.068 321.895,843.224 323.278,842.38 324.661,841.536 326.044,840.692 327.427,839.848 328.81,839.004 330.193,838.16 331.576,837.316 332.959,836.472 334.342,835.628 335.725,834.784 337.108,833.94 338.491,833.096 339.874,832.252 341.257,831.408 342.64,830.564 344.023,829.72 345.406,828.876 346.789,828.032 348.172,827.188 349.555,826.344 350.938,825.5 352.321,824.656 353.704,823.812 355.087,822.968 356.47,822.124 357.853,821.28 359.236,820.436 360.619,819.592 362.002,818.748 363.385,817.904 364.768,817.06 366.151,816.216 367.534,815.372 368.917,814.528 370.3,813.684 371.683,812.84 373.066,811.996 374.449,811.152 375.832,810.308 377.215,809.464 378.598,808.62 379.981,807.776 381.364,806.932 382.747,806.088 384.13,805.244 385.513,804.4 386.896,803.556 388.279,802.712 389.662,801.868 391.045,801.024 392.428,800.18 393.811,799.336 395.194,798.492 396.577,797.648 397.96,796.804 399.343,795.96 400.726,795.116 402.109,794.272 403.492,793.428 404.875,792.584 406.258,791.74 407.641,790.896 409.024,790.052 410.407,789.208 411.79,788.364 413.173,787.52 414.556,786.676 415.939,785.832 417.322,784.988 418.705,784.144 420.088,783.3 421.471,782.456 422.854,781.612 424.237,780.768 425.62,779.924 427.003,779.08 428.386,778.236 429.769,777.392 431.152,776.548 432.535,775.704 433.918,774.86 435.301,774.016 436.684,773.172 438.067,772.328 439.45,771.484 440.833,770.64 442.216,769.796 443.599,768.952 444.982,768.108 446.365,767.264 447.748,766.42 449.131,765.576 450.514,764.732 451.897,763.888 453.28,763.044 454.663,762.2 456.046,761.356 457.429,760.512 458.812,759.668 460.195,758.824 461.578,757.98 462.961,757.136 464.344,756.292 465.727,755.448 467.11,754.604 468.493,753.76 469.876,752.916 471.259,752.072 472.642,751.228 474.025,750.384 475.408,749.54 476.791,748.696 478.174,747.852 479.557,747.008 480.94,746.164 482.323,745.32 483.706,744.476 485.089,743.632 486.472,742.788 487.855,741.944 489.238,741.1 490.621,740.256 492.004,739.412 493.387,738.568 494.77,737.724 496.153,736.88 497.536,736.036 498.919,735.192 500.302,734.348 501.685,733.504 503.068,732.66 504.451,731.816 505.834,730.972 507.217,730.128 508.6,729.284 509.983,728.44 511.366,727.596 512.749,726.752 514.132,725.908 515.515,725.064 516.898,724.22 518.281,723.376 519.664,722.532 521.047,721.688 522.43,720.844 523.813,720 525.196,719.156 526.579,718.312 527.962,717.468 529.345,716.624 530.728,715.78 532.111,714.936 533.494,714.092 534.877,713.248 536.26,712.404 537.643,711.56 539.026,710.716 540.409,709.872 541.792,709.028 543.175,708.184 544.558,707.34 545.941,706.496 547.324,705.652 548.707,704.808 550.09,703.964 551.473,703.12 552.856,702.276 554.239,701.432 555.622,700.588 557.005,699.744 558.388,698.9 559.771,698.056 561.154,697.212 562.537,696.368 563.92,695.524 565.303,694.68 566.686,693.836 568.069,692.992 569.452,692.148 570.835,691.304 572.218,690.46 573.601,689.616 574.984,688.772 576.367,687.928 577.75,687.084 579.133,686.24 580.516,685.396 581.899,684.552 583.282,683.708 584.665,682.864 586.048,682.02 587.431,681.176 588.814,680.332 590.197,679.488 591.58,678.644 592.963,677.8 594.346,676.956 595.729,676.112 597.112,675.268 598.495,674.424 599.878,673.58 601.261,672.736 602.644,671.892 604.027,671.048 605.41,670.204 606.793,669.36 608.176,668.516 609.559,667.672 610.942,666.828 612.325,665.984 613.708,665.14 615.091,664.296 616.474,663.452 617.857,662.608 619.24,661.764 620.623,660.92 622.006,660.076 623.389,659.232 624.772,658.388 626.155,657.544 627.538,656.7 628.921,655.856 630.304,655.012 631.687,654.168 633.07,653.324 634.453,652.48 635.836,651.636 637.219,650.792 638.602,649.948 639.985,649.104 641.368,648.26 642.751,647.416 644.134,646.572 645.517,645.728 646.9,644.884 648.283,644.04 649.666,643.196 651.049,642.352 652.432,641.508 653.815,640.664 655.198,639.82 656.581,638.976 657.964,638.132 659.347,637.288 660.73,636.444 662.113,635.6 663.496,634.756 664.879,633.912 666.262,633.068 667.645,632.224 669.028,631.38 670.411,630.536 671.794,629.692 673.177,628.848 674.56,628.004 675.943,627.16 677.326,626.316 678.709,625.472 680.092,624.628 681.475,623.784 682.858,622.94 684.241,622.096 685.624,621.252 687.007,620.408 688.39,619.564 689.773,618.72 691.156,617.876 692.539,617.032 693.922,616.188 695.305,615.344 696.688,614.5 698.071,613.656 699.454,612.812 700.837,611.968 702.22,611.124 703.603,610.28 704.986,609.436 706.369,608.592 707.752,607.748 709.135,606.904 710.518,606.06 711.901,605.216 713.284,604.372 714.667,603.528 716.05,602.684 717.433,601.84 718.816,600.996 720.199,600.152 721.582,599.308 722.965,598.464 724.348,597.62 725.731,596.776 727.114,595.932 728.497,595.088 729.88,594.244 731.263,593.4 732.646,592.556 734.029,591.712 735.412,590.868 736.795,590.024 738.178,589.18 739.561,588.336 740.944,587.492 742.327,586.648 743.71,585.804 745.093,584.96 746.476,584.116 747.859,583.272 749.242,582.428 750.625,581.584 752.008,580.74 753.391,579.896 754.774,579.052 756.157,578.208 757.54,577.364 758.923,576.52 760.306,575.676 761.689,574.832 763.072,573.988 764.455,573.144 765.838,572.3 767.221,571.456 768.604,570.612 769.987,569.768 771.37,568.924 772.753,568.08 774.136,567.236 775.519,566.392 776.902,565.548 778.285,564.704 779.668,563.86 781.051,563.016 782.434,562.172 783.817,561.328 785.2,560.484 786.583,559.64 787.966,558.796 789.349,557.952 790.732,557.108 792.115,556.264 793.498,555.42 794.881,554.576 796.264,553.732 797.647,552.888 799.03,552.044 800.413,551.2 801.796,550.356 803.179,549.512 804.562,548.668 805.945,547.824 807.328,546.98 808.711,546.136 810.094,545.292 811.477,544.448 812.86,543.604 814.243,542.76 815.626,541.916 817.009,541.072 818.392,540.228 819.775,539.384 821.158,538.54 822.541,537.696 823.924,536.852 825.307,536.008 826.69,535.164 828.073,534.32 829.456,533.476 830.839,532.632 832.222,531.788 833.605,530.944 834.988,530.1 836.371,529.256 837.754,528.412 839.137,527.568 840.52,526.724 841.903,525.88 843.286,525.036 844.669,524.192 846.052,523.348 847.435,522.504 848.818,521.66 850.201,520.816 851.584,519.972 852.967,519.128 854.35,518.284 855.733,517.44 857.116,516.596 858.499,515.752 859.882,514.908 861.265,514.064 862.648,513.22 864.031,512.376 865.414,511.532 866.797,510.688 868.18,509.844 869.563,509 870.946,508.156 872.329,507.312 873.712,506.468 875.095,505.624 876.478,504.78 877.861,503.936 879.244,503.092 880.627,502.248 882.01,501.404 883.393,500.56 884.776,499.716 886.159,498.872 887.542,498.028 888.925,497.184 890.308,496.34 891.691,495.496 893.074,494.652 894.457,493.808 895.84,492.964 897.223,492.12 898.606,491.276 899.989,490.432 901.372,489.588 902.755,488.744 904.138,487.9 905.521,487.056 906.904,486.212 908.287,485.368 909.67,484.524 911.053,483.68 912.436,482.836 913.819,481.992 915.202,481.148 916.585,480.304 917.968,479.46 919.351,478.616 920.734,477.772 922.117,476.928 923.5,476.084 924.883,475.24 926.266,474.396 927.649,473.552 929.032,472.708 930.415,471.864 931.798,471.02 933.181,470.176 934.564,469.332 935.947,468.488 937.33,467.644 938.713,466.8 940.096,465.956 941.479,465.112 942.862,464.268 944.245,463.424 945.628,462.58 947.011,461.736 948.394,460.892 949.777,460.048 951.16,459.204 952.543,458.36 953.926,457.516 955.309,456.672 956.692,455.828 958.075,454.984 959.458,454.14 960.841,453.296 962.224,452.452 963.607,451.608 964.99,450.764 966.373,449.92 967.756,449.076 969.139,448.232 970.522,447.388 971.905,446.544 973.288,445.7 974.671,444.856 976.054,444.012 977.437,443.168 978.82,442.324 980.203,441.48 981.586,440.636 982.969,439.792 984.352,438.948 985.735,438.104 987.118,437.26 988.501,436.416 989.884,435.572 991.267,434.728 992.65,433.884 994.033,433.04 995.416,432.196 996.799,431.352 998.182,430.508 999.565,429.664 1000.95,428.82 1002.33,427.976 1003.71,427.132 1005.1,426.288 1006.48,425.444 1007.86,424.6 1009.25,423.756 1010.63,422.912 1012.01,422.068 1013.4,421.224 1014.78,420.38 1016.16,419.536 1017.54,418.692 1018.93,417.848 1020.31,417.004 1021.69,416.16 1023.08,415.316 1024.46,414.472 1025.84,413.628 1027.22,412.784 1028.61,411.94 1029.99,411.096 1031.37,410.252 1032.76,409.408 1034.14,408.564 1035.52,407.72 1036.91,406.876 1038.29,406.032 1039.67,405.188 1041.06,404.344 1042.44,403.5 1043.82,402.656 1045.2,401.812 1046.59,400.968 1047.97,400.124 1049.35,399.28 1050.74,398.436 1052.12,397.592 1053.5,396.748 1054.89,395.904 1056.27,395.06 1057.65,394.216 1059.03,393.372 1060.42,392.528 1061.8,391.684 1063.18,390.84 1064.57,389.996 1065.95,389.152 1067.33,388.308 1068.71,387.464 1070.1,386.62 1071.48,385.776 1072.86,384.932 1074.25,384.088 1075.63,383.244 1077.01,382.4 1078.4,381.556 1079.78,380.712 1081.16,379.868 1082.55,379.024 1083.93,378.18 1085.31,377.336 1086.69,376.492 1088.08,375.648 1089.46,374.804 1090.84,373.96 1092.23,373.116 1093.61,372.272 1094.99,371.428 1096.38,370.584 1097.76,369.74 1099.14,368.896 1100.52,368.052 1101.91,367.208 1103.29,366.364 1104.67,365.52 1106.06,364.676 1107.44,363.832 1108.82,362.988 1110.2,362.144 1111.59,361.3 1112.97,360.456 1114.35,359.612 1115.74,358.768 1117.12,357.924 1118.5,357.08 1119.89,356.236 1121.27,355.392 1122.65,354.548 1124.04,353.704 1125.42,352.86 1126.8,352.016 1128.18,351.172 1129.57,350.328 1130.95,349.484 1132.33,348.64 1133.72,347.796 1135.1,346.952 1136.48,346.108 1137.86,345.264 1139.25,344.42 1140.63,343.576 1142.01,342.732 1143.4,341.888 1144.78,341.044 1146.16,340.2 1147.55,339.356 1148.93,338.512 1150.31,337.668 1151.69,336.824 1153.08,335.98 1154.46,335.136 1155.84,334.292 1157.23,333.448 1158.61,332.604 1159.99,331.76 1161.38,330.916 1162.76,330.072 1164.14,329.228 1165.53,328.384 1166.91,327.54 1168.29,326.696 1169.67,325.852 1171.06,325.008 1172.44,324.164 1173.82,323.32 1175.21,322.476 1176.59,321.632 1177.97,320.788 1179.35,319.944 1180.74,319.1 1182.12,318.256 1183.5,317.412 1184.89,316.568 1186.27,315.724 1187.65,314.88 1189.04,314.036 1190.42,313.192 1191.8,312.348 1193.19,311.504 1194.57,310.66 1195.95,309.816 1197.33,308.972 1198.72,308.128 1200.1,307.284 1201.48,306.44 1202.87,305.596 1204.25,304.752 1205.63,303.908 1207.02,303.064 1208.4,302.22 1209.78,301.376 1211.16,300.532 1212.55,299.688 1213.93,298.844 1215.31,298 1216.7,297.156 1218.08,296.312 1219.46,295.468 1220.84,294.624 1222.23,293.78 1223.61,292.936 1224.99,292.092 1226.38,291.248 1227.76,290.404 1229.14,289.56 1230.53,288.716 1231.91,287.872 1233.29,287.028 1234.68,286.184 1236.06,285.34 1237.44,284.496 1238.82,283.652 1240.21,282.808 1241.59,281.964 1242.97,281.12 1244.36,280.276 1245.74,279.432 1247.12,278.588 1248.51,277.744 1249.89,276.9 1251.27,276.056 1252.65,275.212 1254.04,274.368 1255.42,273.524 1256.8,272.68 1258.19,271.836 1259.57,270.992 1260.95,270.148 1262.33,269.304 1263.72,268.46 1265.1,267.616 1266.48,266.772 1267.87,265.928 1269.25,265.084 1270.63,264.24 1272.02,263.396 1273.4,262.552 1274.78,261.708 1276.17,260.864 1277.55,260.02 1278.93,259.176 1280.31,258.332 1281.7,257.488 1283.08,256.644 1284.46,255.8 1285.85,254.956 1287.23,254.112 1288.61,253.268 1289.99,252.424 1291.38,251.58 1292.76,250.736 1294.14,249.892 1295.53,249.048 1296.91,248.204 1298.29,247.36 1299.68,246.516 1301.06,245.672 1302.44,244.828 1303.82,243.984 1305.21,243.14 1306.59,242.296 1307.97,241.452 1309.36,240.608 1310.74,239.764 1312.12,238.92 1313.51,238.076 1314.89,237.232 1316.27,236.388 1317.66,235.544 1319.04,234.7 1320.42,233.856 1321.8,233.012 1323.19,232.168 1324.57,231.324 1325.95,230.48 1327.34,229.636 1328.72,228.792 1330.1,227.948 1331.48,227.104 1332.87,226.26 1334.25,225.416 1335.63,224.572 1337.02,223.728 1338.4,222.884 1339.78,222.04 " />
</g>

<g fill="#ffffff" fill-opacity="1" stroke="none" transform="matrix(6.15618e-05,0,0,5.93575e-05,-59.9796,-11.5289)"
font-family="SimSun" font-size="9" font-weight="400" font-style="normal" 
>
<path vector-effect="none" fill-rule="evenodd" d="M3.67e+06,3.06e+06 L3.67e+06,4.42e+06 L4.82e+06,4.42e+06 L4.82e+06,3.06e+06 L3.67e+06,3.06e+06"/>
</g>

<g fill="#0000ff" fill-opacity="1" stroke="#0000ff" stroke-opacity="1" stroke-width="4.16667" stroke-linecap="butt" stroke-linejoin="round" transform="matrix(0.615618,0,0,0.593575,-59.9796,-11.5289)"
font-family="SimSun" font-size="9" font-weight="400" font-style="normal" 
>
<polyline fill="none" vector-effect="none" points="372.011,341.097 422.126,341.097 " />
</g>

<g fill="#000000" fill-opacity="1" stroke="#000000" stroke-opacity="1" stroke-dasharray="16,16" stroke-dashoffset="0" stroke-width="4.16667" stroke-linecap="butt" stroke-linejoin="round" transform="matrix(0.615618,0,0,0.593575,-59.9796,-11.5289)"
font-family="SimSun" font-size="9" font-weight="400" font-style="normal" 
>
<polyline fill="none" vector-effect="none" points="372.011,406.903 422.126,406.903 " />
</g>

<g fill="#212121" fill-opacity="1" stroke="none" transform="matrix(0.615618,0,0,0.593575,208.402,192.028)"
font-family="SimSun" font-size="9" font-weight="400" font-style="normal" 
>
<path vector-effect="none" fill-rule="evenodd" d="M6.0625,-24.2188 L5.1875,-25.1563 L11.25,-31.2188 L17.2656,-25.1563 L16.375,-24.2188 L11.25,-28.7188 L6.0625,-24.2188"/>
</g>

<g fill="#212121" fill-opacity="1" stroke="none" transform="matrix(0.615618,0,0,0.593575,202.203,198.78)"
font-family="SimSun" font-size="9" font-weight="400" font-style="normal" 
>
<path vector-effect="none" fill-rule="evenodd" d="M2.20313,0 C1.91146,0 1.76563,-0.197917 1.76563,-0.59375 C1.77604,-0.666667 1.80208,-0.794271 1.84375,-0.976563 C1.88542,-1.15885 1.94792,-1.30469 2.03125,-1.41406 C2.11458,-1.52344 2.21354,-1.57813 2.32813,-1.57813 C4.16146,-1.57813 5.44271,-1.68229 6.17188,-1.89063 C6.55729,-2.02604 6.83854,-2.42708 7.01563,-3.09375 L13.1875,-27.8125 C13.2396,-28.1042 13.2656,-28.3125 13.2656,-28.4375 C13.2656,-28.7604 13.0938,-28.9427 12.75,-28.9844 C12.1771,-29.099 11.0938,-29.1563 9.5,-29.1563 C9.19792,-29.1563 9.04688,-29.3542 9.04688,-29.75 C9.06771,-29.8229 9.09896,-29.9505 9.14063,-30.1328 C9.18229,-30.3151 9.24479,-30.4609 9.32813,-30.5703 C9.41146,-30.6797 9.51042,-30.7344 9.625,-30.7344 L25.1563,-30.7344 C26.5833,-30.7344 27.9635,-30.4818 29.2969,-29.9766 C30.6302,-29.4714 31.7214,-28.7005 32.5703,-27.6641 C33.4193,-26.6276 33.8438,-25.3698 33.8438,-23.8906 C33.8438,-21.9844 33.1719,-20.2839 31.8281,-18.7891 C30.4844,-17.2943 28.8125,-16.1302 26.8125,-15.2969 C24.8125,-14.4635 22.875,-14.0469 21,-14.0469 L13.6875,-14.0469 L10.9375,-2.92188 C10.8854,-2.63021 10.8594,-2.41667 10.8594,-2.28125 C10.8594,-2.16667 10.8776,-2.07031 10.9141,-1.99219 C10.9505,-1.91406 11,-1.86198 11.0625,-1.83594 C11.125,-1.8099 11.2292,-1.78646 11.375,-1.76563 C11.9479,-1.64063 13.0365,-1.57813 14.6406,-1.57813 C14.9323,-1.57813 15.0781,-1.38021 15.0781,-0.984375 C14.974,-0.567708 14.8932,-0.299479 14.8359,-0.179688 C14.7786,-0.0598958 14.599,0 14.2969,0 L2.20313,0 M13.9063,-15.375 L20.2188,-15.375 C23.1354,-15.375 25.3542,-16.1615 26.875,-17.7344 C27.6458,-18.5052 28.2786,-19.625 28.7734,-21.0938 C29.2682,-22.5625 29.5156,-23.8906 29.5156,-25.0781 C29.5156,-26.5573 28.9505,-27.6068 27.8203,-28.2266 C26.6901,-28.8464 25.2917,-29.1563 23.625,-29.1563 L19.3125,-29.1563 C18.4896,-29.1563 17.9479,-29.0859 17.6875,-28.9453 C17.4271,-28.8047 17.1875,-28.3646 16.9688,-27.625 L13.9063,-15.375"/>
</g>

<g fill="#212121" fill-opacity="1" stroke="none" transform="matrix(0.615618,0,0,0.593575,210.283,231.089)"
font-family="SimSun" font-size="9" font-weight="400" font-style="normal" 
>
<path vector-effect="none" fill-rule="evenodd" d="M6.0625,-24.2188 L5.1875,-25.1563 L11.25,-31.2188 L17.2656,-25.1563 L16.375,-24.2188 L11.25,-28.7188 L6.0625,-24.2188"/>
</g>

<g fill="#212121" fill-opacity="1" stroke="none" transform="matrix(0.615618,0,0,0.593575,202.203,237.841)"
font-family="SimSun" font-size="9" font-weight="400" font-style="normal" 
>
<path vector-effect="none" fill-rule="evenodd" d="M8.01563,0.5 L5.9375,-28.1719 C5.83333,-28.6094 5.5026,-28.8828 4.94531,-28.9922 C4.38802,-29.1016 3.69792,-29.1563 2.875,-29.1563 C2.58333,-29.1563 2.4375,-29.3542 2.4375,-29.75 C2.54167,-30.1354 2.6224,-30.3958 2.67969,-30.5313 C2.73698,-30.6667 2.90625,-30.7344 3.1875,-30.7344 L13.9063,-30.7344 C14.1979,-30.7344 14.3438,-30.5365 14.3438,-30.1406 C14.2292,-29.4844 14.0417,-29.1563 13.7813,-29.1563 C11.375,-29.1563 10.099,-28.7396 9.95313,-27.9063 L11.5625,-5.1875 L22.8125,-24.7813 L22.5938,-28.1719 C22.4896,-28.6094 22.1589,-28.8828 21.6016,-28.9922 C21.0443,-29.1016 20.3542,-29.1563 19.5313,-29.1563 C19.2292,-29.1563 19.0781,-29.3542 19.0781,-29.75 C19.1719,-30.1354 19.25,-30.3958 19.3125,-30.5313 C19.375,-30.6667 19.5521,-30.7344 19.8438,-30.7344 L30.5625,-30.7344 C30.8542,-30.7344 31,-30.5365 31,-30.1406 C30.9896,-30.0677 30.9609,-29.9453 30.9141,-29.7734 C30.8672,-29.6016 30.8073,-29.4557 30.7344,-29.3359 C30.6615,-29.2161 30.5521,-29.1563 30.4063,-29.1563 C27.9896,-29.1563 26.7188,-28.7396 26.5938,-27.9063 L26.5938,-27.5781 L28.2188,-5.1875 L40.4531,-26.5469 C40.6302,-26.8698 40.7188,-27.1823 40.7188,-27.4844 C40.7188,-28.099 40.4167,-28.5313 39.8125,-28.7813 C39.2083,-29.0313 38.5365,-29.1563 37.7969,-29.1563 C37.5052,-29.1563 37.3594,-29.3542 37.3594,-29.75 C37.4115,-29.9896 37.4557,-30.1745 37.4922,-30.3047 C37.5286,-30.4349 37.5964,-30.5391 37.6953,-30.6172 C37.7943,-30.6953 37.9375,-30.7344 38.125,-30.7344 L46.7188,-30.7344 C47.0104,-30.7344 47.1563,-30.5365 47.1563,-30.1406 C47.1354,-30.0677 47.1042,-29.9401 47.0625,-29.7578 C47.0208,-29.5755 46.9609,-29.4297 46.8828,-29.3203 C46.8047,-29.2109 46.7031,-29.1563 46.5781,-29.1563 C44.4427,-29.1563 42.8177,-28.1823 41.7031,-26.2344 C41.6198,-26.151 41.5781,-26.1094 41.5781,-26.1094 L26.3281,0.5 C26.1615,0.822917 25.901,0.984375 25.5469,0.984375 L25.2031,0.984375 C24.8385,0.984375 24.6563,0.822917 24.6563,0.5 L22.9375,-22.6719 L9.71875,0.5 C9.48958,0.822917 9.22396,0.984375 8.92188,0.984375 L8.54688,0.984375 C8.19271,0.984375 8.01563,0.822917 8.01563,0.5 "/>
</g>

<g fill="none" stroke="#212121" stroke-opacity="1" stroke-width="2" stroke-linecap="butt" stroke-linejoin="miter" stroke-miterlimit="2" transform="matrix(0.615618,0,0,0.593575,-59.9796,-11.5289)"
font-family="SimSun" font-size="9" font-weight="400" font-style="normal" 
>
<path vector-effect="none" fill-rule="evenodd" d="M367,442 L367,306 L482,306 L482,442 L367,442"/>
</g>
</g>
</svg>
