<?xml version="1.0" encoding="UTF-8" standalone="no"?>
<svg width="335.844mm" height="216.606mm"
 viewBox="0 0 952 614"
 xmlns="http://www.w3.org/2000/svg" xmlns:xlink="http://www.w3.org/1999/xlink"  version="1.2" baseProfile="tiny">
<title>Qt SVG Document</title>
<desc>MATLAB, The MathWorks, Inc. Version 25.1.0.2973910 R2025a Update 1</desc>
<defs>
</defs>
<g fill="none" stroke="black" stroke-width="1" fill-rule="evenodd" stroke-linecap="square" stroke-linejoin="bevel" >

<g fill="#ffffff" fill-opacity="1" stroke="none" transform="matrix(0.615618,0,0,0.593727,-59.9796,-11.5322)"
font-family="SimSun" font-size="9" font-weight="400" font-style="normal" 
>
<path vector-effect="none" fill-rule="evenodd" d="M96,18 L1643,18 L1643,1053 L96,1053 L96,18"/>
</g>

<g fill="#ffffff" fill-opacity="1" stroke="none" transform="matrix(6.15618e-05,0,0,5.93727e-05,-59.9796,-11.5322)"
font-family="SimSun" font-size="9" font-weight="400" font-style="normal" 
>
<path vector-effect="none" fill-rule="evenodd" d="M2.32e+06,870000 L2.32e+06,9.32e+06 L1.615e+07,9.32e+06 L1.615e+07,870000 L2.32e+06,870000"/>
</g>

<g fill="#212121" fill-opacity="1" stroke="none" transform="matrix(0.615618,0,0,0.593727,501.96,611.406)"
font-family="SimSun" font-size="9" font-weight="400" font-style="normal" 
>
<path vector-effect="none" fill-rule="evenodd" d="M5.60938,-6.60938 L5.60938,-21.7813 L1.04688,-21.7813 L1.04688,-23.2031 C3.44271,-23.2031 5.20573,-24.3229 6.33594,-26.5625 C7.46615,-28.8021 8.03125,-31.2292 8.03125,-33.8438 L9.60938,-33.8438 L9.60938,-23.7188 L17.375,-23.7188 L17.375,-21.7813 L9.60938,-21.7813 L9.60938,-6.73438 C9.60938,-5.21354 9.86458,-3.88021 10.375,-2.73438 C10.8854,-1.58854 11.8021,-1.01563 13.125,-1.01563 C14.3854,-1.01563 15.2917,-1.61979 15.8438,-2.82813 C16.3958,-4.03646 16.6719,-5.33854 16.6719,-6.73438 L16.6719,-9.98438 L18.2656,-9.98438 L18.2656,-6.60938 C18.2656,-5.46354 18.0547,-4.33073 17.6328,-3.21094 C17.2109,-2.09115 16.5885,-1.17188 15.7656,-0.453125 C14.9427,0.265625 13.9375,0.625 12.75,0.625 C10.5521,0.625 8.8125,-0.0338542 7.53125,-1.35156 C6.25,-2.66927 5.60938,-4.42188 5.60938,-6.60938 "/>
</g>

<g fill="#212121" fill-opacity="1" stroke="#212121" stroke-opacity="1" stroke-width="2" stroke-linecap="square" stroke-linejoin="round" transform="matrix(0.615618,0,0,0.593727,-59.9796,-11.5322)"
font-family="SimSun" font-size="9" font-weight="400" font-style="normal" 
>
<polyline fill="none" vector-effect="none" points="232,932 1615,932 " />
<polyline fill="none" vector-effect="none" points="232,87 1615,87 " />
<polyline fill="none" vector-effect="none" points="232,932 232,918.17 " />
<polyline fill="none" vector-effect="none" points="232,100.83 232,87 " />
<polyline fill="none" vector-effect="none" points="508.6,932 508.6,918.17 " />
<polyline fill="none" vector-effect="none" points="508.6,100.83 508.6,87 " />
<polyline fill="none" vector-effect="none" points="785.2,932 785.2,918.17 " />
<polyline fill="none" vector-effect="none" points="785.2,100.83 785.2,87 " />
<polyline fill="none" vector-effect="none" points="1061.8,932 1061.8,918.17 " />
<polyline fill="none" vector-effect="none" points="1061.8,100.83 1061.8,87 " />
<polyline fill="none" vector-effect="none" points="1338.4,932 1338.4,918.17 " />
<polyline fill="none" vector-effect="none" points="1338.4,100.83 1338.4,87 " />
<polyline fill="none" vector-effect="none" points="1615,932 1615,918.17 " />
<polyline fill="none" vector-effect="none" points="1615,100.83 1615,87 " />
</g>

<g fill="#212121" fill-opacity="1" stroke="none" transform="matrix(0.615618,0,0,0.593727,74.2252,577.049)"
font-family="SimSun" font-size="9" font-weight="400" font-style="normal" 
>
<path vector-effect="none" fill-rule="evenodd" d="M2.07813,-17.6563 C2.07813,-21.8854 2.51302,-25.2891 3.38281,-27.8672 C4.2526,-30.4453 5.54688,-32.4349 7.26563,-33.8359 C8.98438,-35.237 11.1458,-35.9375 13.75,-35.9375 C15.6667,-35.9375 17.349,-35.5521 18.7969,-34.7813 C20.2448,-34.0104 21.4401,-32.8958 22.3828,-31.4375 C23.3255,-29.9792 24.0677,-28.2031 24.6094,-26.1094 C25.151,-24.0156 25.4219,-21.1979 25.4219,-17.6563 C25.4219,-13.4583 24.9896,-10.0677 24.125,-7.48438 C23.2604,-4.90104 21.9688,-2.90625 20.25,-1.5 C18.5313,-0.09375 16.3646,0.609375 13.75,0.609375 C10.2917,0.609375 7.57813,-0.625 5.60938,-3.09375 C3.25521,-6.07292 2.07813,-10.9271 2.07813,-17.6563 M6.59375,-17.6563 C6.59375,-11.7813 7.28125,-7.86979 8.65625,-5.92188 C10.0313,-3.97396 11.7292,-3 13.75,-3 C15.7604,-3 17.4557,-3.97656 18.8359,-5.92969 C20.2161,-7.88281 20.9063,-11.7917 20.9063,-17.6563 C20.9063,-23.5417 20.2161,-27.4531 18.8359,-29.3906 C17.4557,-31.3281 15.7448,-32.2969 13.7031,-32.2969 C11.6823,-32.2969 10.0677,-31.4427 8.85938,-29.7344 C7.34896,-27.5573 6.59375,-23.5313 6.59375,-17.6563 "/>
</g>

<g fill="#212121" fill-opacity="1" stroke="none" transform="matrix(0.615618,0,0,0.593727,244.505,577.049)"
font-family="SimSun" font-size="9" font-weight="400" font-style="normal" 
>
<path vector-effect="none" fill-rule="evenodd" d="M2.07813,-9.375 L6.6875,-9.76563 C7.03125,-7.51563 7.82552,-5.82552 9.07031,-4.69531 C10.3151,-3.5651 11.8177,-3 13.5781,-3 C15.6927,-3 17.4818,-3.79688 18.9453,-5.39063 C20.4089,-6.98438 21.1406,-9.10417 21.1406,-11.75 C21.1406,-14.25 20.4375,-16.224 19.0313,-17.6719 C17.625,-19.1198 15.7813,-19.8438 13.5,-19.8438 C12.0833,-19.8438 10.8047,-19.5234 9.66406,-18.8828 C8.52344,-18.2422 7.63021,-17.4063 6.98438,-16.375 L2.85938,-16.9219 L6.32813,-35.2969 L24.125,-35.2969 L24.125,-31.1094 L9.84375,-31.1094 L7.90625,-21.4844 C10.0625,-22.9844 12.3177,-23.7344 14.6719,-23.7344 C17.7969,-23.7344 20.4349,-22.651 22.5859,-20.4844 C24.737,-18.3177 25.8125,-15.5365 25.8125,-12.1406 C25.8125,-8.90104 24.8646,-6.09896 22.9688,-3.73438 C20.6771,-0.838542 17.5469,0.609375 13.5781,0.609375 C10.3177,0.609375 7.65885,-0.302083 5.60156,-2.125 C3.54427,-3.94792 2.36979,-6.36458 2.07813,-9.375 "/>
</g>

<g fill="#212121" fill-opacity="1" stroke="none" transform="matrix(0.615618,0,0,0.593727,406.167,577.049)"
font-family="SimSun" font-size="9" font-weight="400" font-style="normal" 
>
<path vector-effect="none" fill-rule="evenodd" d="M18.625,0 L14.2344,0 L14.2344,-28 C13.1719,-26.9896 11.7839,-25.9818 10.0703,-24.9766 C8.35677,-23.9714 6.8125,-23.2135 5.4375,-22.7031 L5.4375,-26.9531 C7.89583,-28.1094 10.0469,-29.5104 11.8906,-31.1563 C13.7344,-32.8021 15.0365,-34.3958 15.7969,-35.9375 L18.625,-35.9375 L18.625,0 M30.0781,-17.6563 C30.0781,-21.8854 30.513,-25.2891 31.3828,-27.8672 C32.2526,-30.4453 33.5469,-32.4349 35.2656,-33.8359 C36.9844,-35.237 39.1458,-35.9375 41.75,-35.9375 C43.6667,-35.9375 45.349,-35.5521 46.7969,-34.7813 C48.2448,-34.0104 49.4401,-32.8958 50.3828,-31.4375 C51.3255,-29.9792 52.0677,-28.2031 52.6094,-26.1094 C53.151,-24.0156 53.4219,-21.1979 53.4219,-17.6563 C53.4219,-13.4583 52.9896,-10.0677 52.125,-7.48438 C51.2604,-4.90104 49.9688,-2.90625 48.25,-1.5 C46.5313,-0.09375 44.3646,0.609375 41.75,0.609375 C38.2917,0.609375 35.5781,-0.625 33.6094,-3.09375 C31.2552,-6.07292 30.0781,-10.9271 30.0781,-17.6563 M34.5938,-17.6563 C34.5938,-11.7813 35.2813,-7.86979 36.6563,-5.92188 C38.0313,-3.97396 39.7292,-3 41.75,-3 C43.7604,-3 45.4557,-3.97656 46.8359,-5.92969 C48.2161,-7.88281 48.9063,-11.7917 48.9063,-17.6563 C48.9063,-23.5417 48.2161,-27.4531 46.8359,-29.3906 C45.4557,-31.3281 43.7448,-32.2969 41.7031,-32.2969 C39.6823,-32.2969 38.0677,-31.4427 36.8594,-29.7344 C35.349,-27.5573 34.5938,-23.5313 34.5938,-17.6563 "/>
</g>

<g fill="#212121" fill-opacity="1" stroke="none" transform="matrix(0.615618,0,0,0.593727,576.447,577.049)"
font-family="SimSun" font-size="9" font-weight="400" font-style="normal" 
>
<path vector-effect="none" fill-rule="evenodd" d="M18.625,0 L14.2344,0 L14.2344,-28 C13.1719,-26.9896 11.7839,-25.9818 10.0703,-24.9766 C8.35677,-23.9714 6.8125,-23.2135 5.4375,-22.7031 L5.4375,-26.9531 C7.89583,-28.1094 10.0469,-29.5104 11.8906,-31.1563 C13.7344,-32.8021 15.0365,-34.3958 15.7969,-35.9375 L18.625,-35.9375 L18.625,0 M30.0781,-9.375 L34.6875,-9.76563 C35.0313,-7.51563 35.8255,-5.82552 37.0703,-4.69531 C38.3151,-3.5651 39.8177,-3 41.5781,-3 C43.6927,-3 45.4818,-3.79688 46.9453,-5.39063 C48.4089,-6.98438 49.1406,-9.10417 49.1406,-11.75 C49.1406,-14.25 48.4375,-16.224 47.0313,-17.6719 C45.625,-19.1198 43.7813,-19.8438 41.5,-19.8438 C40.0833,-19.8438 38.8047,-19.5234 37.6641,-18.8828 C36.5234,-18.2422 35.6302,-17.4063 34.9844,-16.375 L30.8594,-16.9219 L34.3281,-35.2969 L52.125,-35.2969 L52.125,-31.1094 L37.8438,-31.1094 L35.9063,-21.4844 C38.0625,-22.9844 40.3177,-23.7344 42.6719,-23.7344 C45.7969,-23.7344 48.4349,-22.651 50.5859,-20.4844 C52.737,-18.3177 53.8125,-15.5365 53.8125,-12.1406 C53.8125,-8.90104 52.8646,-6.09896 50.9688,-3.73438 C48.6771,-0.838542 45.5469,0.609375 41.5781,0.609375 C38.3177,0.609375 35.6589,-0.302083 33.6016,-2.125 C31.5443,-3.94792 30.3698,-6.36458 30.0781,-9.375 "/>
</g>

<g fill="#212121" fill-opacity="1" stroke="none" transform="matrix(0.615618,0,0,0.593727,746.727,577.049)"
font-family="SimSun" font-size="9" font-weight="400" font-style="normal" 
>
<path vector-effect="none" fill-rule="evenodd" d="M25.1719,-4.21875 L25.1719,0 L1.51563,0 C1.48438,-1.0625 1.65625,-2.07813 2.03125,-3.04688 C2.63542,-4.66146 3.59896,-6.25 4.92188,-7.8125 C6.24479,-9.375 8.16146,-11.1823 10.6719,-13.2344 C14.5573,-16.4219 17.1849,-18.9479 18.5547,-20.8125 C19.9245,-22.6771 20.6094,-24.4375 20.6094,-26.0938 C20.6094,-27.8438 19.987,-29.3151 18.7422,-30.5078 C17.4974,-31.7005 15.875,-32.2969 13.875,-32.2969 C11.75,-32.2969 10.0547,-31.6615 8.78906,-30.3906 C7.52344,-29.1198 6.88021,-27.3646 6.85938,-25.125 L2.34375,-25.5938 C2.65625,-28.9583 3.82031,-31.5234 5.83594,-33.2891 C7.85156,-35.0547 10.5625,-35.9375 13.9688,-35.9375 C17.3958,-35.9375 20.112,-34.9844 22.1172,-33.0781 C24.1224,-31.1719 25.125,-28.8125 25.125,-26 C25.125,-24.5729 24.8307,-23.1667 24.2422,-21.7813 C23.6536,-20.3958 22.6797,-18.9375 21.3203,-17.4063 C19.9609,-15.875 17.7031,-13.776 14.5469,-11.1094 C11.9115,-8.89063 10.2188,-7.38802 9.46875,-6.60156 C8.71875,-5.8151 8.10417,-5.02083 7.625,-4.21875 L25.1719,-4.21875 M30.0781,-17.6563 C30.0781,-21.8854 30.513,-25.2891 31.3828,-27.8672 C32.2526,-30.4453 33.5469,-32.4349 35.2656,-33.8359 C36.9844,-35.237 39.1458,-35.9375 41.75,-35.9375 C43.6667,-35.9375 45.349,-35.5521 46.7969,-34.7813 C48.2448,-34.0104 49.4401,-32.8958 50.3828,-31.4375 C51.3255,-29.9792 52.0677,-28.2031 52.6094,-26.1094 C53.151,-24.0156 53.4219,-21.1979 53.4219,-17.6563 C53.4219,-13.4583 52.9896,-10.0677 52.125,-7.48438 C51.2604,-4.90104 49.9688,-2.90625 48.25,-1.5 C46.5313,-0.09375 44.3646,0.609375 41.75,0.609375 C38.2917,0.609375 35.5781,-0.625 33.6094,-3.09375 C31.2552,-6.07292 30.0781,-10.9271 30.0781,-17.6563 M34.5938,-17.6563 C34.5938,-11.7813 35.2813,-7.86979 36.6563,-5.92188 C38.0313,-3.97396 39.7292,-3 41.75,-3 C43.7604,-3 45.4557,-3.97656 46.8359,-5.92969 C48.2161,-7.88281 48.9063,-11.7917 48.9063,-17.6563 C48.9063,-23.5417 48.2161,-27.4531 46.8359,-29.3906 C45.4557,-31.3281 43.7448,-32.2969 41.7031,-32.2969 C39.6823,-32.2969 38.0677,-31.4427 36.8594,-29.7344 C35.349,-27.5573 34.5938,-23.5313 34.5938,-17.6563 "/>
</g>

<g fill="#212121" fill-opacity="1" stroke="none" transform="matrix(0.615618,0,0,0.593727,917.007,577.049)"
font-family="SimSun" font-size="9" font-weight="400" font-style="normal" 
>
<path vector-effect="none" fill-rule="evenodd" d="M25.1719,-4.21875 L25.1719,0 L1.51563,0 C1.48438,-1.0625 1.65625,-2.07813 2.03125,-3.04688 C2.63542,-4.66146 3.59896,-6.25 4.92188,-7.8125 C6.24479,-9.375 8.16146,-11.1823 10.6719,-13.2344 C14.5573,-16.4219 17.1849,-18.9479 18.5547,-20.8125 C19.9245,-22.6771 20.6094,-24.4375 20.6094,-26.0938 C20.6094,-27.8438 19.987,-29.3151 18.7422,-30.5078 C17.4974,-31.7005 15.875,-32.2969 13.875,-32.2969 C11.75,-32.2969 10.0547,-31.6615 8.78906,-30.3906 C7.52344,-29.1198 6.88021,-27.3646 6.85938,-25.125 L2.34375,-25.5938 C2.65625,-28.9583 3.82031,-31.5234 5.83594,-33.2891 C7.85156,-35.0547 10.5625,-35.9375 13.9688,-35.9375 C17.3958,-35.9375 20.112,-34.9844 22.1172,-33.0781 C24.1224,-31.1719 25.125,-28.8125 25.125,-26 C25.125,-24.5729 24.8307,-23.1667 24.2422,-21.7813 C23.6536,-20.3958 22.6797,-18.9375 21.3203,-17.4063 C19.9609,-15.875 17.7031,-13.776 14.5469,-11.1094 C11.9115,-8.89063 10.2188,-7.38802 9.46875,-6.60156 C8.71875,-5.8151 8.10417,-5.02083 7.625,-4.21875 L25.1719,-4.21875 M30.0781,-9.375 L34.6875,-9.76563 C35.0313,-7.51563 35.8255,-5.82552 37.0703,-4.69531 C38.3151,-3.5651 39.8177,-3 41.5781,-3 C43.6927,-3 45.4818,-3.79688 46.9453,-5.39063 C48.4089,-6.98438 49.1406,-9.10417 49.1406,-11.75 C49.1406,-14.25 48.4375,-16.224 47.0313,-17.6719 C45.625,-19.1198 43.7813,-19.8438 41.5,-19.8438 C40.0833,-19.8438 38.8047,-19.5234 37.6641,-18.8828 C36.5234,-18.2422 35.6302,-17.4063 34.9844,-16.375 L30.8594,-16.9219 L34.3281,-35.2969 L52.125,-35.2969 L52.125,-31.1094 L37.8438,-31.1094 L35.9063,-21.4844 C38.0625,-22.9844 40.3177,-23.7344 42.6719,-23.7344 C45.7969,-23.7344 48.4349,-22.651 50.5859,-20.4844 C52.737,-18.3177 53.8125,-15.5365 53.8125,-12.1406 C53.8125,-8.90104 52.8646,-6.09896 50.9688,-3.73438 C48.6771,-0.838542 45.5469,0.609375 41.5781,0.609375 C38.3177,0.609375 35.6589,-0.302083 33.6016,-2.125 C31.5443,-3.94792 30.3698,-6.36458 30.0781,-9.375 "/>
</g>

<g fill="#212121" fill-opacity="1" stroke="none" transform="matrix(0,-0.593727,0.615618,0,24.8935,388.075)"
font-family="SimSun" font-size="9" font-weight="400" font-style="normal" 
>
<path vector-effect="none" fill-rule="evenodd" d="M9.29688,0 L9.29688,-1.9375 C11.1406,-1.9375 12.9297,-2.03906 14.6641,-2.24219 C16.3984,-2.44531 17.2656,-2.92188 17.2656,-3.67188 L17.2656,-33.8906 C17.2656,-34.6823 17.0469,-35.1719 16.6094,-35.3594 C16.1719,-35.5469 15.4583,-35.6406 14.4688,-35.6406 L12.1719,-35.6406 C9.14063,-35.6406 6.98958,-34.9792 5.71875,-33.6563 C5.0625,-32.9896 4.59115,-31.9271 4.30469,-30.4688 C4.01823,-29.0104 3.77604,-27.1771 3.57813,-24.9688 L1.98438,-24.9688 L3.03125,-37.5781 L36.625,-37.5781 L37.6719,-24.9688 L36.0625,-24.9688 C35.8542,-27.3333 35.6198,-29.2109 35.3594,-30.6016 C35.099,-31.9922 34.6302,-33.0104 33.9531,-33.6563 C32.6615,-34.9792 30.5104,-35.6406 27.5,-35.6406 L25.1875,-35.6406 C24.5313,-35.6406 24.0182,-35.612 23.6484,-35.5547 C23.2786,-35.4974 22.9766,-35.3411 22.7422,-35.0859 C22.5078,-34.8307 22.3906,-34.4323 22.3906,-33.8906 L22.3906,-3.67188 C22.3906,-2.92188 23.2604,-2.44531 25,-2.24219 C26.7396,-2.03906 28.5208,-1.9375 30.3438,-1.9375 L30.3438,0 L9.29688,0"/>
</g>

<g fill="#212121" fill-opacity="1" stroke="none" transform="matrix(0,-0.593727,0.615618,0,24.8935,367.212)"
font-family="SimSun" font-size="9" font-weight="400" font-style="normal" 
>
<path vector-effect="none" fill-rule="evenodd" d="M13.75,0.625 C11.5521,0.625 9.51302,0.0651042 7.63281,-1.05469 C5.7526,-2.17448 4.26563,-3.67448 3.17188,-5.55469 C2.07813,-7.4349 1.53125,-9.48438 1.53125,-11.7031 C1.53125,-13.3906 1.83073,-15.013 2.42969,-16.5703 C3.02865,-18.1276 3.88802,-19.5182 5.00781,-20.7422 C6.1276,-21.9661 7.42969,-22.9245 8.91406,-23.6172 C10.3984,-24.3099 12.0104,-24.6563 13.75,-24.6563 C16.0104,-24.6563 18.0651,-24.0599 19.9141,-22.8672 C21.763,-21.6745 23.2266,-20.0807 24.3047,-18.0859 C25.3828,-16.0911 25.9219,-13.9635 25.9219,-11.7031 C25.9219,-9.50521 25.375,-7.46094 24.2813,-5.57031 C23.1875,-3.67969 21.7057,-2.17448 19.8359,-1.05469 C17.9661,0.0651042 15.9375,0.625 13.75,0.625 M13.75,-1.01563 C16.6875,-1.01563 18.6484,-2.07813 19.6328,-4.20313 C20.6172,-6.32813 21.1094,-9.03646 21.1094,-12.3281 C21.1094,-14.1615 21.0104,-15.6823 20.8125,-16.8906 C20.6146,-18.099 20.1875,-19.1927 19.5313,-20.1719 C19.1146,-20.7865 18.5885,-21.3203 17.9531,-21.7734 C17.3177,-22.2266 16.6458,-22.5729 15.9375,-22.8125 C15.2292,-23.0521 14.5,-23.1719 13.75,-23.1719 C12.6042,-23.1719 11.5156,-22.9141 10.4844,-22.3984 C9.45313,-21.8828 8.59896,-21.1406 7.92188,-20.1719 C7.24479,-19.1406 6.8125,-18.0026 6.625,-16.7578 C6.4375,-15.513 6.34375,-14.0365 6.34375,-12.3281 C6.34375,-10.276 6.52083,-8.43229 6.875,-6.79688 C7.22917,-5.16146 7.94792,-3.78906 9.03125,-2.67969 C10.1146,-1.57031 11.6875,-1.01563 13.75,-1.01563 "/>
</g>

<g fill="#212121" fill-opacity="1" stroke="none" transform="matrix(0,-0.593727,0.615618,0,24.8935,350.885)"
font-family="SimSun" font-size="9" font-weight="400" font-style="normal" 
>
<path vector-effect="none" fill-rule="evenodd" d="M5.60938,-6.60938 L5.60938,-21.7813 L1.04688,-21.7813 L1.04688,-23.2031 C3.44271,-23.2031 5.20573,-24.3229 6.33594,-26.5625 C7.46615,-28.8021 8.03125,-31.2292 8.03125,-33.8438 L9.60938,-33.8438 L9.60938,-23.7188 L17.375,-23.7188 L17.375,-21.7813 L9.60938,-21.7813 L9.60938,-6.73438 C9.60938,-5.21354 9.86458,-3.88021 10.375,-2.73438 C10.8854,-1.58854 11.8021,-1.01563 13.125,-1.01563 C14.3854,-1.01563 15.2917,-1.61979 15.8438,-2.82813 C16.3958,-4.03646 16.6719,-5.33854 16.6719,-6.73438 L16.6719,-9.98438 L18.2656,-9.98438 L18.2656,-6.60938 C18.2656,-5.46354 18.0547,-4.33073 17.6328,-3.21094 C17.2109,-2.09115 16.5885,-1.17188 15.7656,-0.453125 C14.9427,0.265625 13.9375,0.625 12.75,0.625 C10.5521,0.625 8.8125,-0.0338542 7.53125,-1.35156 C6.25,-2.66927 5.60938,-4.42188 5.60938,-6.60938 "/>
</g>

<g fill="#212121" fill-opacity="1" stroke="none" transform="matrix(0,-0.593727,0.615618,0,24.8935,338.185)"
font-family="SimSun" font-size="9" font-weight="400" font-style="normal" 
>
<path vector-effect="none" fill-rule="evenodd" d="M2.20313,-5.39063 C2.20313,-7.57813 3.0625,-9.35677 4.78125,-10.7266 C6.5,-12.0964 8.5625,-13.0625 10.9688,-13.625 C13.375,-14.1875 15.6615,-14.4688 17.8281,-14.4688 L17.8281,-16.7188 C17.8281,-17.7708 17.5964,-18.7943 17.1328,-19.7891 C16.6693,-20.7839 15.9974,-21.5964 15.1172,-22.2266 C14.237,-22.8568 13.2708,-23.1719 12.2188,-23.1719 C9.78125,-23.1719 7.92708,-22.6302 6.65625,-21.5469 C7.35417,-21.5469 7.93229,-21.2839 8.39063,-20.7578 C8.84896,-20.2318 9.07813,-19.6198 9.07813,-18.9219 C9.07813,-18.1927 8.81771,-17.5703 8.29688,-17.0547 C7.77604,-16.5391 7.16146,-16.2813 6.45313,-16.2813 C5.71354,-16.2813 5.08333,-16.5391 4.5625,-17.0547 C4.04167,-17.5703 3.78125,-18.1979 3.78125,-18.9375 C3.78125,-20.8646 4.65885,-22.2995 6.41406,-23.2422 C8.16927,-24.1849 10.1042,-24.6563 12.2188,-24.6563 C13.7083,-24.6563 15.2031,-24.3385 16.7031,-23.7031 C18.2031,-23.0677 19.4323,-22.1589 20.3906,-20.9766 C21.349,-19.7943 21.8281,-18.4167 21.8281,-16.8438 L21.8281,-4.48438 C21.8281,-3.76563 21.9818,-3.10677 22.2891,-2.50781 C22.5964,-1.90885 23.0729,-1.60938 23.7188,-1.60938 C24.3229,-1.60938 24.7734,-1.91146 25.0703,-2.51563 C25.3672,-3.11979 25.5156,-3.76563 25.5156,-4.45313 L25.5156,-7.95313 L27.125,-7.95313 L27.125,-4.4375 C27.125,-3.625 26.9089,-2.84635 26.4766,-2.10156 C26.0443,-1.35677 25.4661,-0.765625 24.7422,-0.328125 C24.0182,0.109375 23.2344,0.328125 22.3906,0.328125 C21.3177,0.328125 20.3932,-0.0911458 19.6172,-0.929688 C18.8411,-1.76823 18.4063,-2.76563 18.3125,-3.92188 C17.6354,-2.53646 16.6354,-1.43229 15.3125,-0.609375 C13.9896,0.213542 12.5729,0.625 11.0625,0.625 C9.66667,0.625 8.29427,0.416667 6.94531,0 C5.59635,-0.416667 4.46875,-1.06771 3.5625,-1.95313 C2.65625,-2.83854 2.20313,-3.98438 2.20313,-5.39063 M6.65625,-5.40625 C6.65625,-4.125 7.13021,-3.04688 8.07813,-2.17188 C9.02604,-1.29688 10.1458,-0.859375 11.4375,-0.859375 C12.625,-0.859375 13.7005,-1.15365 14.6641,-1.74219 C15.6276,-2.33073 16.3958,-3.13281 16.9688,-4.14844 C17.5417,-5.16406 17.8281,-6.23438 17.8281,-7.35938 L17.8281,-13.0469 C16.1615,-13.0469 14.4557,-12.776 12.7109,-12.2344 C10.9661,-11.6927 9.52083,-10.8411 8.375,-9.67969 C7.22917,-8.51823 6.65625,-7.09375 6.65625,-5.40625 "/>
</g>

<g fill="#212121" fill-opacity="1" stroke="none" transform="matrix(0,-0.593727,0.615618,0,24.8935,321.858)"
font-family="SimSun" font-size="9" font-weight="400" font-style="normal" 
>
<path vector-effect="none" fill-rule="evenodd" d="M1.6875,0 L1.6875,-1.9375 C2.94792,-1.9375 3.97917,-2.03646 4.78125,-2.23438 C5.58333,-2.43229 5.98438,-2.91146 5.98438,-3.67188 L5.98438,-32.5469 C5.98438,-33.5365 5.83854,-34.25 5.54688,-34.6875 C5.25521,-35.125 4.83073,-35.3932 4.27344,-35.4922 C3.71615,-35.5911 2.85417,-35.6406 1.6875,-35.6406 L1.6875,-37.5781 L9.85938,-38.1563 L9.85938,-3.67188 C9.85938,-2.91146 10.2604,-2.43229 11.0625,-2.23438 C11.8646,-2.03646 12.8854,-1.9375 14.125,-1.9375 L14.125,0 L1.6875,0"/>
</g>

<g fill="#212121" fill-opacity="1" stroke="none" transform="matrix(0,-0.593727,0.615618,0,24.8935,301.902)"
font-family="SimSun" font-size="9" font-weight="400" font-style="normal" 
>
<path vector-effect="none" fill-rule="evenodd" d="M1.64063,0 L1.64063,-1.9375 C2.89063,-1.9375 3.91927,-2.03646 4.72656,-2.23438 C5.53385,-2.43229 5.9375,-2.91146 5.9375,-3.67188 L5.9375,-18.6875 C5.9375,-19.6771 5.78906,-20.3906 5.49219,-20.8281 C5.19531,-21.2656 4.77083,-21.5339 4.21875,-21.6328 C3.66667,-21.7318 2.80729,-21.7813 1.64063,-21.7813 L1.64063,-23.7188 L9.60938,-24.2969 L9.60938,-18.9375 C10.349,-20.5104 11.4401,-21.7969 12.8828,-22.7969 C14.3255,-23.7969 15.8958,-24.2969 17.5938,-24.2969 C20.1354,-24.2969 22.0469,-23.6901 23.3281,-22.4766 C24.6094,-21.263 25.25,-19.401 25.25,-16.8906 L25.25,-3.67188 C25.25,-2.91146 25.651,-2.43229 26.4531,-2.23438 C27.2552,-2.03646 28.2865,-1.9375 29.5469,-1.9375 L29.5469,0 L16.9531,0 L16.9531,-1.9375 C18.2031,-1.9375 19.2318,-2.03646 20.0391,-2.23438 C20.8464,-2.43229 21.25,-2.91146 21.25,-3.67188 L21.25,-16.7344 C21.25,-18.526 20.9896,-19.9974 20.4688,-21.1484 C19.9479,-22.2995 18.8802,-22.875 17.2656,-22.875 C15.1406,-22.875 13.3932,-22.026 12.0234,-20.3281 C10.6536,-18.6302 9.96875,-16.6979 9.96875,-14.5313 L9.96875,-3.67188 C9.96875,-2.91146 10.3698,-2.43229 11.1719,-2.23438 C11.974,-2.03646 12.9948,-1.9375 14.2344,-1.9375 L14.2344,0 L1.64063,0"/>
</g>

<g fill="#212121" fill-opacity="1" stroke="none" transform="matrix(0,-0.593727,0.615618,0,24.8935,284.668)"
font-family="SimSun" font-size="9" font-weight="400" font-style="normal" 
>
<path vector-effect="none" fill-rule="evenodd" d="M5.9375,-6.54688 L5.9375,-18.6875 C5.9375,-19.6771 5.78906,-20.3906 5.49219,-20.8281 C5.19531,-21.2656 4.77083,-21.5339 4.21875,-21.6328 C3.66667,-21.7318 2.80729,-21.7813 1.64063,-21.7813 L1.64063,-23.7188 L9.96875,-24.2969 L9.96875,-6.57813 C9.96875,-5.14063 10.0703,-4.02604 10.2734,-3.23438 C10.4766,-2.44271 10.9141,-1.84896 11.5859,-1.45313 C12.2578,-1.05729 13.3281,-0.859375 14.7969,-0.859375 C16.7656,-0.859375 18.3333,-1.68229 19.5,-3.32813 C20.6667,-4.97396 21.25,-6.84375 21.25,-8.9375 L21.25,-18.7031 C21.25,-19.6823 21.0964,-20.3906 20.7891,-20.8281 C20.4818,-21.2656 20.0547,-21.5339 19.5078,-21.6328 C18.9609,-21.7318 18.1094,-21.7813 16.9531,-21.7813 L16.9531,-23.7188 L25.25,-24.2969 L25.25,-5 C25.25,-4.03125 25.3958,-3.32813 25.6875,-2.89063 C25.9792,-2.45313 26.4036,-2.1849 26.9609,-2.08594 C27.5182,-1.98698 28.3802,-1.9375 29.5469,-1.9375 L29.5469,0 L21.4063,0.625 L21.4063,-4.0625 C20.7292,-2.66667 19.7813,-1.53646 18.5625,-0.671875 C17.3438,0.192708 16,0.625 14.5313,0.625 C11.8958,0.625 9.80469,0.0651042 8.25781,-1.05469 C6.71094,-2.17448 5.9375,-4.00521 5.9375,-6.54688 "/>
</g>

<g fill="#212121" fill-opacity="1" stroke="none" transform="matrix(0,-0.593727,0.615618,0,24.8935,266.526)"
font-family="SimSun" font-size="9" font-weight="400" font-style="normal" 
>
<path vector-effect="none" fill-rule="evenodd" d="M1.64063,0 L1.64063,-1.9375 C2.89063,-1.9375 3.91927,-2.03646 4.72656,-2.23438 C5.53385,-2.43229 5.9375,-2.91146 5.9375,-3.67188 L5.9375,-18.6875 C5.9375,-19.6771 5.78906,-20.3906 5.49219,-20.8281 C5.19531,-21.2656 4.77083,-21.5339 4.21875,-21.6328 C3.66667,-21.7318 2.80729,-21.7813 1.64063,-21.7813 L1.64063,-23.7188 L9.60938,-24.2969 L9.60938,-18.9375 C10.349,-20.5104 11.4401,-21.7969 12.8828,-22.7969 C14.3255,-23.7969 15.8958,-24.2969 17.5938,-24.2969 C21.8125,-24.2969 24.2917,-22.5781 25.0313,-19.1406 C25.7604,-20.6823 26.8333,-21.9271 28.25,-22.875 C29.6667,-23.8229 31.2135,-24.2969 32.8906,-24.2969 C34.5573,-24.2969 35.9609,-24.0286 37.1016,-23.4922 C38.2422,-22.9557 39.099,-22.138 39.6719,-21.0391 C40.2448,-19.9401 40.5313,-18.5573 40.5313,-16.8906 L40.5313,-3.67188 C40.5313,-2.91146 40.9375,-2.43229 41.75,-2.23438 C42.5625,-2.03646 43.5885,-1.9375 44.8281,-1.9375 L44.8281,0 L32.2344,0 L32.2344,-1.9375 C33.4844,-1.9375 34.513,-2.03646 35.3203,-2.23438 C36.1276,-2.43229 36.5313,-2.91146 36.5313,-3.67188 L36.5313,-16.7344 C36.5313,-18.5781 36.2708,-20.0625 35.75,-21.1875 C35.2292,-22.3125 34.1615,-22.875 32.5469,-22.875 C30.4323,-22.875 28.6875,-22.026 27.3125,-20.3281 C25.9375,-18.6302 25.25,-16.6979 25.25,-14.5313 L25.25,-3.67188 C25.25,-2.91146 25.651,-2.43229 26.4531,-2.23438 C27.2552,-2.03646 28.2865,-1.9375 29.5469,-1.9375 L29.5469,0 L16.9531,0 L16.9531,-1.9375 C18.2031,-1.9375 19.2318,-2.03646 20.0391,-2.23438 C20.8464,-2.43229 21.25,-2.91146 21.25,-3.67188 L21.25,-16.7344 C21.25,-18.526 20.9896,-19.9974 20.4688,-21.1484 C19.9479,-22.2995 18.8802,-22.875 17.2656,-22.875 C15.1406,-22.875 13.3932,-22.026 12.0234,-20.3281 C10.6536,-18.6302 9.96875,-16.6979 9.96875,-14.5313 L9.96875,-3.67188 C9.96875,-2.91146 10.3698,-2.43229 11.1719,-2.23438 C11.974,-2.03646 12.9948,-1.9375 14.2344,-1.9375 L14.2344,0 L1.64063,0"/>
</g>

<g fill="#212121" fill-opacity="1" stroke="none" transform="matrix(0,-0.593727,0.615618,0,24.8935,240.221)"
font-family="SimSun" font-size="9" font-weight="400" font-style="normal" 
>
<path vector-effect="none" fill-rule="evenodd" d="M5.71875,0 L5.71875,-32.5469 C5.71875,-33.5365 5.57031,-34.25 5.27344,-34.6875 C4.97656,-35.125 4.55208,-35.3932 4,-35.4922 C3.44792,-35.5911 2.58854,-35.6406 1.42188,-35.6406 L1.42188,-37.5781 L9.5625,-38.1563 L9.5625,-20.9531 C10.1667,-21.6302 10.8776,-22.224 11.6953,-22.7344 C12.513,-23.2448 13.3854,-23.6328 14.3125,-23.8984 C15.2396,-24.1641 16.1875,-24.2969 17.1563,-24.2969 C18.8021,-24.2969 20.3281,-23.9661 21.7344,-23.3047 C23.1406,-22.6432 24.3646,-21.7318 25.4063,-20.5703 C26.4479,-19.4089 27.2578,-18.0703 27.8359,-16.5547 C28.4141,-15.0391 28.7031,-13.4792 28.7031,-11.875 C28.7031,-9.65625 28.1615,-7.58854 27.0781,-5.67188 C25.9948,-3.75521 24.5182,-2.22656 22.6484,-1.08594 C20.7786,0.0546875 18.724,0.625 16.4844,0.625 C15.0885,0.625 13.737,0.263021 12.4297,-0.460938 C11.1224,-1.1849 10.0417,-2.14063 9.1875,-3.32813 L7.3125,0 L5.71875,0 M9.71875,-5.42188 C10.3333,-4.07813 11.2135,-2.98177 12.3594,-2.13281 C13.5052,-1.28385 14.776,-0.859375 16.1719,-0.859375 C18.0677,-0.859375 19.6016,-1.40365 20.7734,-2.49219 C21.9453,-3.58073 22.763,-4.95833 23.2266,-6.625 C23.6901,-8.29167 23.9219,-10.0469 23.9219,-11.8906 C23.9219,-14.9844 23.5208,-17.3333 22.7188,-18.9375 C22.3646,-19.6563 21.8776,-20.3177 21.2578,-20.9219 C20.638,-21.526 19.9479,-22.0026 19.1875,-22.3516 C18.4271,-22.7005 17.625,-22.875 16.7813,-22.875 C15.3125,-22.875 13.9531,-22.487 12.7031,-21.7109 C11.4531,-20.9349 10.4583,-19.8958 9.71875,-18.5938 L9.71875,-5.42188"/>
</g>

<g fill="#212121" fill-opacity="1" stroke="none" transform="matrix(0,-0.593727,0.615618,0,24.8935,221.172)"
font-family="SimSun" font-size="9" font-weight="400" font-style="normal" 
>
<path vector-effect="none" fill-rule="evenodd" d="M13.7031,0.625 C11.4635,0.625 9.40885,0.0364583 7.53906,-1.14063 C5.66927,-2.31771 4.20052,-3.88542 3.13281,-5.84375 C2.0651,-7.80208 1.53125,-9.875 1.53125,-12.0625 C1.53125,-14.2083 2.01823,-16.2474 2.99219,-18.1797 C3.96615,-20.112 5.32552,-21.6745 7.07031,-22.8672 C8.8151,-24.0599 10.7656,-24.6563 12.9219,-24.6563 C14.599,-24.6563 16.0599,-24.375 17.3047,-23.8125 C18.5495,-23.25 19.5755,-22.4661 20.3828,-21.4609 C21.1901,-20.4557 21.7995,-19.2734 22.2109,-17.9141 C22.6224,-16.5547 22.8281,-15.0573 22.8281,-13.4219 C22.8281,-12.9427 22.6406,-12.7031 22.2656,-12.7031 L6.34375,-12.7031 L6.34375,-12.1094 C6.34375,-9.07813 6.95573,-6.47135 8.17969,-4.28906 C9.40365,-2.10677 11.4063,-1.01563 14.1875,-1.01563 C15.3125,-1.01563 16.3542,-1.26563 17.3125,-1.76563 C18.2708,-2.26563 19.1016,-2.96354 19.8047,-3.85938 C20.5078,-4.75521 20.9896,-5.71354 21.25,-6.73438 C21.2813,-6.85938 21.3464,-6.96875 21.4453,-7.0625 C21.5443,-7.15625 21.6563,-7.20313 21.7813,-7.20313 L22.2656,-7.20313 C22.6406,-7.20313 22.8281,-6.97396 22.8281,-6.51563 C22.3073,-4.43229 21.1875,-2.72135 19.4688,-1.38281 C17.75,-0.0442708 15.8281,0.625 13.7031,0.625 M6.39063,-14.0781 L18.9375,-14.0781 C18.9375,-15.4531 18.7448,-16.8438 18.3594,-18.25 C17.974,-19.6563 17.3333,-20.8281 16.4375,-21.7656 C15.5417,-22.7031 14.3698,-23.1719 12.9219,-23.1719 C10.8385,-23.1719 9.22917,-22.2031 8.09375,-20.2656 C6.95833,-18.3281 6.39063,-16.2656 6.39063,-14.0781 "/>
</g>

<g fill="#212121" fill-opacity="1" stroke="none" transform="matrix(0,-0.593727,0.615618,0,24.8935,206.658)"
font-family="SimSun" font-size="9" font-weight="400" font-style="normal" 
>
<path vector-effect="none" fill-rule="evenodd" d="M1.42188,0 L1.42188,-1.9375 C2.67188,-1.9375 3.70052,-2.03646 4.50781,-2.23438 C5.3151,-2.43229 5.71875,-2.91146 5.71875,-3.67188 L5.71875,-18.6875 C5.71875,-19.6771 5.57031,-20.3906 5.27344,-20.8281 C4.97656,-21.2656 4.55208,-21.5339 4,-21.6328 C3.44792,-21.7318 2.58854,-21.7813 1.42188,-21.7813 L1.42188,-23.7188 L9.29688,-24.2969 L9.29688,-18.9375 C9.88021,-20.5313 10.7188,-21.8229 11.8125,-22.8125 C12.9063,-23.8021 14.2344,-24.2969 15.7969,-24.2969 C16.8802,-24.2969 17.8516,-23.9766 18.7109,-23.3359 C19.5703,-22.6953 20,-21.8438 20,-20.7813 C20,-20.125 19.763,-19.5495 19.2891,-19.0547 C18.8151,-18.5599 18.2292,-18.3125 17.5313,-18.3125 C16.8542,-18.3125 16.2734,-18.5547 15.7891,-19.0391 C15.3047,-19.5234 15.0625,-20.1042 15.0625,-20.7813 C15.0625,-21.7708 15.4115,-22.4688 16.1094,-22.875 L15.7969,-22.875 C14.3073,-22.875 13.0938,-22.3385 12.1563,-21.2656 C11.2188,-20.1927 10.5521,-18.8594 10.1563,-17.2656 C9.76042,-15.6719 9.5625,-14.151 9.5625,-12.7031 L9.5625,-3.67188 C9.5625,-2.51563 11.3438,-1.9375 14.9063,-1.9375 L14.9063,0 L1.42188,0"/>
</g>

<g fill="#212121" fill-opacity="1" stroke="#212121" stroke-opacity="1" stroke-width="2" stroke-linecap="square" stroke-linejoin="round" transform="matrix(0.615618,0,0,0.593727,-59.9796,-11.5322)"
font-family="SimSun" font-size="9" font-weight="400" font-style="normal" 
>
<polyline fill="none" vector-effect="none" points="232,932 232,87 " />
<polyline fill="none" vector-effect="none" points="1615,932 1615,87 " />
<polyline fill="none" vector-effect="none" points="232,932 245.83,932 " />
<polyline fill="none" vector-effect="none" points="1601.17,932 1615,932 " />
<polyline fill="none" vector-effect="none" points="232,763 245.83,763 " />
<polyline fill="none" vector-effect="none" points="1601.17,763 1615,763 " />
<polyline fill="none" vector-effect="none" points="232,594 245.83,594 " />
<polyline fill="none" vector-effect="none" points="1601.17,594 1615,594 " />
<polyline fill="none" vector-effect="none" points="232,425 245.83,425 " />
<polyline fill="none" vector-effect="none" points="1601.17,425 1615,425 " />
<polyline fill="none" vector-effect="none" points="232,256 245.83,256 " />
<polyline fill="none" vector-effect="none" points="1601.17,256 1615,256 " />
<polyline fill="none" vector-effect="none" points="232,87 245.83,87 " />
<polyline fill="none" vector-effect="none" points="1601.17,87 1615,87 " />
</g>

<g fill="#212121" fill-opacity="1" stroke="none" transform="matrix(0.615618,0,0,0.593727,57.3983,552.212)"
font-family="SimSun" font-size="9" font-weight="400" font-style="normal" 
>
<path vector-effect="none" fill-rule="evenodd" d="M2.07813,-17.6563 C2.07813,-21.8854 2.51302,-25.2891 3.38281,-27.8672 C4.2526,-30.4453 5.54688,-32.4349 7.26563,-33.8359 C8.98438,-35.237 11.1458,-35.9375 13.75,-35.9375 C15.6667,-35.9375 17.349,-35.5521 18.7969,-34.7813 C20.2448,-34.0104 21.4401,-32.8958 22.3828,-31.4375 C23.3255,-29.9792 24.0677,-28.2031 24.6094,-26.1094 C25.151,-24.0156 25.4219,-21.1979 25.4219,-17.6563 C25.4219,-13.4583 24.9896,-10.0677 24.125,-7.48438 C23.2604,-4.90104 21.9688,-2.90625 20.25,-1.5 C18.5313,-0.09375 16.3646,0.609375 13.75,0.609375 C10.2917,0.609375 7.57813,-0.625 5.60938,-3.09375 C3.25521,-6.07292 2.07813,-10.9271 2.07813,-17.6563 M6.59375,-17.6563 C6.59375,-11.7813 7.28125,-7.86979 8.65625,-5.92188 C10.0313,-3.97396 11.7292,-3 13.75,-3 C15.7604,-3 17.4557,-3.97656 18.8359,-5.92969 C20.2161,-7.88281 20.9063,-11.7917 20.9063,-17.6563 C20.9063,-23.5417 20.2161,-27.4531 18.8359,-29.3906 C17.4557,-31.3281 15.7448,-32.2969 13.7031,-32.2969 C11.6823,-32.2969 10.0677,-31.4427 8.85938,-29.7344 C7.34896,-27.5573 6.59375,-23.5313 6.59375,-17.6563 "/>
</g>

<g fill="#212121" fill-opacity="1" stroke="none" transform="matrix(0.615618,0,0,0.593727,57.3983,451.872)"
font-family="SimSun" font-size="9" font-weight="400" font-style="normal" 
>
<path vector-effect="none" fill-rule="evenodd" d="M2.07813,-9.375 L6.6875,-9.76563 C7.03125,-7.51563 7.82552,-5.82552 9.07031,-4.69531 C10.3151,-3.5651 11.8177,-3 13.5781,-3 C15.6927,-3 17.4818,-3.79688 18.9453,-5.39063 C20.4089,-6.98438 21.1406,-9.10417 21.1406,-11.75 C21.1406,-14.25 20.4375,-16.224 19.0313,-17.6719 C17.625,-19.1198 15.7813,-19.8438 13.5,-19.8438 C12.0833,-19.8438 10.8047,-19.5234 9.66406,-18.8828 C8.52344,-18.2422 7.63021,-17.4063 6.98438,-16.375 L2.85938,-16.9219 L6.32813,-35.2969 L24.125,-35.2969 L24.125,-31.1094 L9.84375,-31.1094 L7.90625,-21.4844 C10.0625,-22.9844 12.3177,-23.7344 14.6719,-23.7344 C17.7969,-23.7344 20.4349,-22.651 22.5859,-20.4844 C24.737,-18.3177 25.8125,-15.5365 25.8125,-12.1406 C25.8125,-8.90104 24.8646,-6.09896 22.9688,-3.73438 C20.6771,-0.838542 17.5469,0.609375 13.5781,0.609375 C10.3177,0.609375 7.65885,-0.302083 5.60156,-2.125 C3.54427,-3.94792 2.36979,-6.36458 2.07813,-9.375 "/>
</g>

<g fill="#212121" fill-opacity="1" stroke="none" transform="matrix(0.615618,0,0,0.593727,40.161,351.532)"
font-family="SimSun" font-size="9" font-weight="400" font-style="normal" 
>
<path vector-effect="none" fill-rule="evenodd" d="M18.625,0 L14.2344,0 L14.2344,-28 C13.1719,-26.9896 11.7839,-25.9818 10.0703,-24.9766 C8.35677,-23.9714 6.8125,-23.2135 5.4375,-22.7031 L5.4375,-26.9531 C7.89583,-28.1094 10.0469,-29.5104 11.8906,-31.1563 C13.7344,-32.8021 15.0365,-34.3958 15.7969,-35.9375 L18.625,-35.9375 L18.625,0 M30.0781,-17.6563 C30.0781,-21.8854 30.513,-25.2891 31.3828,-27.8672 C32.2526,-30.4453 33.5469,-32.4349 35.2656,-33.8359 C36.9844,-35.237 39.1458,-35.9375 41.75,-35.9375 C43.6667,-35.9375 45.349,-35.5521 46.7969,-34.7813 C48.2448,-34.0104 49.4401,-32.8958 50.3828,-31.4375 C51.3255,-29.9792 52.0677,-28.2031 52.6094,-26.1094 C53.151,-24.0156 53.4219,-21.1979 53.4219,-17.6563 C53.4219,-13.4583 52.9896,-10.0677 52.125,-7.48438 C51.2604,-4.90104 49.9688,-2.90625 48.25,-1.5 C46.5313,-0.09375 44.3646,0.609375 41.75,0.609375 C38.2917,0.609375 35.5781,-0.625 33.6094,-3.09375 C31.2552,-6.07292 30.0781,-10.9271 30.0781,-17.6563 M34.5938,-17.6563 C34.5938,-11.7813 35.2813,-7.86979 36.6563,-5.92188 C38.0313,-3.97396 39.7292,-3 41.75,-3 C43.7604,-3 45.4557,-3.97656 46.8359,-5.92969 C48.2161,-7.88281 48.9063,-11.7917 48.9063,-17.6563 C48.9063,-23.5417 48.2161,-27.4531 46.8359,-29.3906 C45.4557,-31.3281 43.7448,-32.2969 41.7031,-32.2969 C39.6823,-32.2969 38.0677,-31.4427 36.8594,-29.7344 C35.349,-27.5573 34.5938,-23.5313 34.5938,-17.6563 "/>
</g>

<g fill="#212121" fill-opacity="1" stroke="none" transform="matrix(0.615618,0,0,0.593727,40.161,251.192)"
font-family="SimSun" font-size="9" font-weight="400" font-style="normal" 
>
<path vector-effect="none" fill-rule="evenodd" d="M18.625,0 L14.2344,0 L14.2344,-28 C13.1719,-26.9896 11.7839,-25.9818 10.0703,-24.9766 C8.35677,-23.9714 6.8125,-23.2135 5.4375,-22.7031 L5.4375,-26.9531 C7.89583,-28.1094 10.0469,-29.5104 11.8906,-31.1563 C13.7344,-32.8021 15.0365,-34.3958 15.7969,-35.9375 L18.625,-35.9375 L18.625,0 M30.0781,-9.375 L34.6875,-9.76563 C35.0313,-7.51563 35.8255,-5.82552 37.0703,-4.69531 C38.3151,-3.5651 39.8177,-3 41.5781,-3 C43.6927,-3 45.4818,-3.79688 46.9453,-5.39063 C48.4089,-6.98438 49.1406,-9.10417 49.1406,-11.75 C49.1406,-14.25 48.4375,-16.224 47.0313,-17.6719 C45.625,-19.1198 43.7813,-19.8438 41.5,-19.8438 C40.0833,-19.8438 38.8047,-19.5234 37.6641,-18.8828 C36.5234,-18.2422 35.6302,-17.4063 34.9844,-16.375 L30.8594,-16.9219 L34.3281,-35.2969 L52.125,-35.2969 L52.125,-31.1094 L37.8438,-31.1094 L35.9063,-21.4844 C38.0625,-22.9844 40.3177,-23.7344 42.6719,-23.7344 C45.7969,-23.7344 48.4349,-22.651 50.5859,-20.4844 C52.737,-18.3177 53.8125,-15.5365 53.8125,-12.1406 C53.8125,-8.90104 52.8646,-6.09896 50.9688,-3.73438 C48.6771,-0.838542 45.5469,0.609375 41.5781,0.609375 C38.3177,0.609375 35.6589,-0.302083 33.6016,-2.125 C31.5443,-3.94792 30.3698,-6.36458 30.0781,-9.375 "/>
</g>

<g fill="#212121" fill-opacity="1" stroke="none" transform="matrix(0.615618,0,0,0.593727,40.161,150.852)"
font-family="SimSun" font-size="9" font-weight="400" font-style="normal" 
>
<path vector-effect="none" fill-rule="evenodd" d="M25.1719,-4.21875 L25.1719,0 L1.51563,0 C1.48438,-1.0625 1.65625,-2.07813 2.03125,-3.04688 C2.63542,-4.66146 3.59896,-6.25 4.92188,-7.8125 C6.24479,-9.375 8.16146,-11.1823 10.6719,-13.2344 C14.5573,-16.4219 17.1849,-18.9479 18.5547,-20.8125 C19.9245,-22.6771 20.6094,-24.4375 20.6094,-26.0938 C20.6094,-27.8438 19.987,-29.3151 18.7422,-30.5078 C17.4974,-31.7005 15.875,-32.2969 13.875,-32.2969 C11.75,-32.2969 10.0547,-31.6615 8.78906,-30.3906 C7.52344,-29.1198 6.88021,-27.3646 6.85938,-25.125 L2.34375,-25.5938 C2.65625,-28.9583 3.82031,-31.5234 5.83594,-33.2891 C7.85156,-35.0547 10.5625,-35.9375 13.9688,-35.9375 C17.3958,-35.9375 20.112,-34.9844 22.1172,-33.0781 C24.1224,-31.1719 25.125,-28.8125 25.125,-26 C25.125,-24.5729 24.8307,-23.1667 24.2422,-21.7813 C23.6536,-20.3958 22.6797,-18.9375 21.3203,-17.4063 C19.9609,-15.875 17.7031,-13.776 14.5469,-11.1094 C11.9115,-8.89063 10.2188,-7.38802 9.46875,-6.60156 C8.71875,-5.8151 8.10417,-5.02083 7.625,-4.21875 L25.1719,-4.21875 M30.0781,-17.6563 C30.0781,-21.8854 30.513,-25.2891 31.3828,-27.8672 C32.2526,-30.4453 33.5469,-32.4349 35.2656,-33.8359 C36.9844,-35.237 39.1458,-35.9375 41.75,-35.9375 C43.6667,-35.9375 45.349,-35.5521 46.7969,-34.7813 C48.2448,-34.0104 49.4401,-32.8958 50.3828,-31.4375 C51.3255,-29.9792 52.0677,-28.2031 52.6094,-26.1094 C53.151,-24.0156 53.4219,-21.1979 53.4219,-17.6563 C53.4219,-13.4583 52.9896,-10.0677 52.125,-7.48438 C51.2604,-4.90104 49.9688,-2.90625 48.25,-1.5 C46.5313,-0.09375 44.3646,0.609375 41.75,0.609375 C38.2917,0.609375 35.5781,-0.625 33.6094,-3.09375 C31.2552,-6.07292 30.0781,-10.9271 30.0781,-17.6563 M34.5938,-17.6563 C34.5938,-11.7813 35.2813,-7.86979 36.6563,-5.92188 C38.0313,-3.97396 39.7292,-3 41.75,-3 C43.7604,-3 45.4557,-3.97656 46.8359,-5.92969 C48.2161,-7.88281 48.9063,-11.7917 48.9063,-17.6563 C48.9063,-23.5417 48.2161,-27.4531 46.8359,-29.3906 C45.4557,-31.3281 43.7448,-32.2969 41.7031,-32.2969 C39.6823,-32.2969 38.0677,-31.4427 36.8594,-29.7344 C35.349,-27.5573 34.5938,-23.5313 34.5938,-17.6563 "/>
</g>

<g fill="#212121" fill-opacity="1" stroke="none" transform="matrix(0.615618,0,0,0.593727,40.161,50.5123)"
font-family="SimSun" font-size="9" font-weight="400" font-style="normal" 
>
<path vector-effect="none" fill-rule="evenodd" d="M25.1719,-4.21875 L25.1719,0 L1.51563,0 C1.48438,-1.0625 1.65625,-2.07813 2.03125,-3.04688 C2.63542,-4.66146 3.59896,-6.25 4.92188,-7.8125 C6.24479,-9.375 8.16146,-11.1823 10.6719,-13.2344 C14.5573,-16.4219 17.1849,-18.9479 18.5547,-20.8125 C19.9245,-22.6771 20.6094,-24.4375 20.6094,-26.0938 C20.6094,-27.8438 19.987,-29.3151 18.7422,-30.5078 C17.4974,-31.7005 15.875,-32.2969 13.875,-32.2969 C11.75,-32.2969 10.0547,-31.6615 8.78906,-30.3906 C7.52344,-29.1198 6.88021,-27.3646 6.85938,-25.125 L2.34375,-25.5938 C2.65625,-28.9583 3.82031,-31.5234 5.83594,-33.2891 C7.85156,-35.0547 10.5625,-35.9375 13.9688,-35.9375 C17.3958,-35.9375 20.112,-34.9844 22.1172,-33.0781 C24.1224,-31.1719 25.125,-28.8125 25.125,-26 C25.125,-24.5729 24.8307,-23.1667 24.2422,-21.7813 C23.6536,-20.3958 22.6797,-18.9375 21.3203,-17.4063 C19.9609,-15.875 17.7031,-13.776 14.5469,-11.1094 C11.9115,-8.89063 10.2188,-7.38802 9.46875,-6.60156 C8.71875,-5.8151 8.10417,-5.02083 7.625,-4.21875 L25.1719,-4.21875 M30.0781,-9.375 L34.6875,-9.76563 C35.0313,-7.51563 35.8255,-5.82552 37.0703,-4.69531 C38.3151,-3.5651 39.8177,-3 41.5781,-3 C43.6927,-3 45.4818,-3.79688 46.9453,-5.39063 C48.4089,-6.98438 49.1406,-9.10417 49.1406,-11.75 C49.1406,-14.25 48.4375,-16.224 47.0313,-17.6719 C45.625,-19.1198 43.7813,-19.8438 41.5,-19.8438 C40.0833,-19.8438 38.8047,-19.5234 37.6641,-18.8828 C36.5234,-18.2422 35.6302,-17.4063 34.9844,-16.375 L30.8594,-16.9219 L34.3281,-35.2969 L52.125,-35.2969 L52.125,-31.1094 L37.8438,-31.1094 L35.9063,-21.4844 C38.0625,-22.9844 40.3177,-23.7344 42.6719,-23.7344 C45.7969,-23.7344 48.4349,-22.651 50.5859,-20.4844 C52.737,-18.3177 53.8125,-15.5365 53.8125,-12.1406 C53.8125,-8.90104 52.8646,-6.09896 50.9688,-3.73438 C48.6771,-0.838542 45.5469,0.609375 41.5781,0.609375 C38.3177,0.609375 35.6589,-0.302083 33.6016,-2.125 C31.5443,-3.94792 30.3698,-6.36458 30.0781,-9.375 "/>
</g>

<g fill="#212121" fill-opacity="1" stroke="none" transform="matrix(0.615618,0,0,0.593727,384.64,23.4679)"
font-family="SimSun" font-size="9" font-weight="400" font-style="normal" 
>
<path vector-effect="none" fill-rule="evenodd" d="M5.875,-6.20313 C5.875,-7.02604 5.97396,-7.92969 6.17188,-8.91406 C6.36979,-9.89844 6.56771,-10.7083 6.76563,-11.3438 C6.96354,-11.9792 7.41146,-13.2214 8.10938,-15.0703 C8.80729,-16.9193 9.16667,-17.8802 9.1875,-17.9531 C9.66667,-19.2865 9.90625,-20.3854 9.90625,-21.25 C9.90625,-22.3333 9.50521,-22.875 8.70313,-22.875 C7.25521,-22.875 6.0599,-22.1302 5.11719,-20.6406 C4.17448,-19.151 3.47917,-17.4844 3.03125,-15.6406 C2.95833,-15.4115 2.80729,-15.2969 2.57813,-15.2969 L1.9375,-15.2969 C1.63542,-15.2969 1.48438,-15.4635 1.48438,-15.7969 L1.48438,-15.9531 C2.06771,-18.1406 2.96875,-20.0781 4.1875,-21.7656 C5.40625,-23.4531 6.94792,-24.2969 8.8125,-24.2969 C10.1146,-24.2969 11.2188,-23.8698 12.125,-23.0156 C13.0313,-22.1615 13.4844,-21.0729 13.4844,-19.75 C13.4844,-19.0625 13.3333,-18.3438 13.0313,-17.5938 C12.3125,-15.7396 11.7474,-14.2526 11.3359,-13.1328 C10.9245,-12.013 10.5443,-10.7604 10.1953,-9.375 C9.84635,-7.98958 9.67188,-6.70833 9.67188,-5.53125 C9.67188,-4.15625 9.98958,-3.03385 10.625,-2.16406 C11.2604,-1.29427 12.25,-0.859375 13.5938,-0.859375 C16.1354,-0.859375 18.4271,-2.81771 20.4688,-6.73438 C21.1146,-8.00521 21.724,-9.4974 22.2969,-11.2109 C22.8698,-12.9245 23.1563,-14.3177 23.1563,-15.3906 C23.1563,-16.5052 22.9766,-17.3698 22.6172,-17.9844 C22.2578,-18.599 21.7917,-19.2422 21.2188,-19.9141 C20.6458,-20.5859 20.3594,-21.1198 20.3594,-21.5156 C20.3594,-22.2344 20.6536,-22.888 21.2422,-23.4766 C21.8307,-24.0651 22.4844,-24.3594 23.2031,-24.3594 C24.0781,-24.3594 24.7083,-23.9557 25.0938,-23.1484 C25.4792,-22.3411 25.6719,-21.4271 25.6719,-20.4063 C25.6719,-19.1875 25.4974,-17.737 25.1484,-16.0547 C24.7995,-14.3724 24.3177,-12.6276 23.7031,-10.8203 C23.0885,-9.01302 22.5208,-7.58854 22,-6.54688 C19.5833,-1.76563 16.7604,0.625 13.5313,0.625 C11.2292,0.625 9.3776,0.046875 7.97656,-1.10938 C6.57552,-2.26563 5.875,-3.96354 5.875,-6.20313 "/>
</g>

<g fill="#212121" fill-opacity="1" stroke="none" transform="matrix(0.615618,0,0,0.593727,401.052,28.3661)"
font-family="SimSun" font-size="9" font-weight="400" font-style="normal" 
>
<path vector-effect="none" fill-rule="evenodd" d="M1.85938,0 C1.60938,0 1.48438,-0.166667 1.48438,-0.5 C1.49479,-0.5625 1.51823,-0.671875 1.55469,-0.828125 C1.59115,-0.984375 1.64323,-1.10938 1.71094,-1.20313 C1.77865,-1.29688 1.86458,-1.34375 1.96875,-1.34375 C3.51042,-1.34375 4.59375,-1.42708 5.21875,-1.59375 C5.54167,-1.70833 5.77604,-2.04688 5.92188,-2.60938 L11.1406,-23.4844 C11.1823,-23.7344 11.2031,-23.9115 11.2031,-24.0156 C11.2031,-24.2865 11.0573,-24.4375 10.7656,-24.4688 C10.276,-24.5729 9.35938,-24.625 8.01563,-24.625 C7.76563,-24.625 7.64063,-24.7917 7.64063,-25.125 C7.65104,-25.1875 7.67708,-25.2969 7.71875,-25.4531 C7.76042,-25.6094 7.8151,-25.7318 7.88281,-25.8203 C7.95052,-25.9089 8.03125,-25.9531 8.125,-25.9531 L21.25,-25.9531 C22.4479,-25.9531 23.6094,-25.7396 24.7344,-25.3125 C25.8594,-24.8854 26.7813,-24.2344 27.5,-23.3594 C28.2188,-22.4844 28.5781,-21.4219 28.5781,-20.1719 C28.5781,-18.5573 28.0104,-17.1198 26.875,-15.8594 C25.7396,-14.599 24.3281,-13.6172 22.6406,-12.9141 C20.9531,-12.2109 19.3177,-11.8594 17.7344,-11.8594 L11.5625,-11.8594 L9.23438,-2.46875 C9.19271,-2.21875 9.17188,-2.04167 9.17188,-1.9375 C9.17188,-1.83333 9.1875,-1.7474 9.21875,-1.67969 C9.25,-1.61198 9.29167,-1.56771 9.34375,-1.54688 C9.39583,-1.52604 9.48438,-1.50521 9.60938,-1.48438 C10.0885,-1.39063 11.0052,-1.34375 12.3594,-1.34375 C12.6094,-1.34375 12.7344,-1.17188 12.7344,-0.828125 C12.6406,-0.473958 12.5703,-0.247396 12.5234,-0.148438 C12.4766,-0.0494792 12.3281,0 12.0781,0 L1.85938,0 M11.75,-12.9844 L17.0781,-12.9844 C19.5365,-12.9844 21.4063,-13.6458 22.6875,-14.9688 C23.3438,-15.625 23.8802,-16.5729 24.2969,-17.8125 C24.7135,-19.0521 24.9219,-20.1719 24.9219,-21.1719 C24.9219,-22.4219 24.4453,-23.3099 23.4922,-23.8359 C22.5391,-24.362 21.3594,-24.625 19.9531,-24.625 L16.3125,-24.625 C15.6146,-24.625 15.1563,-24.5651 14.9375,-24.4453 C14.7188,-24.3255 14.5156,-23.9531 14.3281,-23.3281 L11.75,-12.9844"/>
</g>

<g fill="#212121" fill-opacity="1" stroke="none" transform="matrix(0.615618,0,0,0.593727,430.658,23.4679)"
font-family="SimSun" font-size="9" font-weight="400" font-style="normal" 
>
<path vector-effect="none" fill-rule="evenodd" d="M4.14063,-7.3125 C3.82813,-7.3125 3.57552,-7.42708 3.38281,-7.65625 C3.1901,-7.88542 3.09375,-8.13542 3.09375,-8.40625 C3.09375,-8.70833 3.1901,-8.96615 3.38281,-9.17969 C3.57552,-9.39323 3.82813,-9.5 4.14063,-9.5 L38.6719,-9.5 C38.9427,-9.5 39.1771,-9.39323 39.375,-9.17969 C39.5729,-8.96615 39.6719,-8.70833 39.6719,-8.40625 C39.6719,-8.13542 39.5729,-7.88542 39.375,-7.65625 C39.1771,-7.42708 38.9427,-7.3125 38.6719,-7.3125 L4.14063,-7.3125 M4.14063,-18 C3.82813,-18 3.57552,-18.1068 3.38281,-18.3203 C3.1901,-18.5339 3.09375,-18.7917 3.09375,-19.0938 C3.09375,-19.3646 3.1901,-19.6172 3.38281,-19.8516 C3.57552,-20.0859 3.82813,-20.2031 4.14063,-20.2031 L38.6719,-20.2031 C38.9427,-20.2031 39.1771,-20.0859 39.375,-19.8516 C39.5729,-19.6172 39.6719,-19.3646 39.6719,-19.0938 C39.6719,-18.7917 39.5729,-18.5339 39.375,-18.3203 C39.1771,-18.1068 38.9427,-18 38.6719,-18 L4.14063,-18"/>
</g>

<g fill="#212121" fill-opacity="1" stroke="none" transform="matrix(0.615618,0,0,0.593727,466.398,23.4679)"
font-family="SimSun" font-size="9" font-weight="400" font-style="normal" 
>
<path vector-effect="none" fill-rule="evenodd" d="M5.875,-6.20313 C5.875,-7.02604 5.97396,-7.92969 6.17188,-8.91406 C6.36979,-9.89844 6.56771,-10.7083 6.76563,-11.3438 C6.96354,-11.9792 7.41146,-13.2214 8.10938,-15.0703 C8.80729,-16.9193 9.16667,-17.8802 9.1875,-17.9531 C9.66667,-19.2865 9.90625,-20.3854 9.90625,-21.25 C9.90625,-22.3333 9.50521,-22.875 8.70313,-22.875 C7.25521,-22.875 6.0599,-22.1302 5.11719,-20.6406 C4.17448,-19.151 3.47917,-17.4844 3.03125,-15.6406 C2.95833,-15.4115 2.80729,-15.2969 2.57813,-15.2969 L1.9375,-15.2969 C1.63542,-15.2969 1.48438,-15.4635 1.48438,-15.7969 L1.48438,-15.9531 C2.06771,-18.1406 2.96875,-20.0781 4.1875,-21.7656 C5.40625,-23.4531 6.94792,-24.2969 8.8125,-24.2969 C10.1146,-24.2969 11.2188,-23.8698 12.125,-23.0156 C13.0313,-22.1615 13.4844,-21.0729 13.4844,-19.75 C13.4844,-19.0625 13.3333,-18.3438 13.0313,-17.5938 C12.3125,-15.7396 11.7474,-14.2526 11.3359,-13.1328 C10.9245,-12.013 10.5443,-10.7604 10.1953,-9.375 C9.84635,-7.98958 9.67188,-6.70833 9.67188,-5.53125 C9.67188,-4.15625 9.98958,-3.03385 10.625,-2.16406 C11.2604,-1.29427 12.25,-0.859375 13.5938,-0.859375 C16.1354,-0.859375 18.4271,-2.81771 20.4688,-6.73438 C21.1146,-8.00521 21.724,-9.4974 22.2969,-11.2109 C22.8698,-12.9245 23.1563,-14.3177 23.1563,-15.3906 C23.1563,-16.5052 22.9766,-17.3698 22.6172,-17.9844 C22.2578,-18.599 21.7917,-19.2422 21.2188,-19.9141 C20.6458,-20.5859 20.3594,-21.1198 20.3594,-21.5156 C20.3594,-22.2344 20.6536,-22.888 21.2422,-23.4766 C21.8307,-24.0651 22.4844,-24.3594 23.2031,-24.3594 C24.0781,-24.3594 24.7083,-23.9557 25.0938,-23.1484 C25.4792,-22.3411 25.6719,-21.4271 25.6719,-20.4063 C25.6719,-19.1875 25.4974,-17.737 25.1484,-16.0547 C24.7995,-14.3724 24.3177,-12.6276 23.7031,-10.8203 C23.0885,-9.01302 22.5208,-7.58854 22,-6.54688 C19.5833,-1.76563 16.7604,0.625 13.5313,0.625 C11.2292,0.625 9.3776,0.046875 7.97656,-1.10938 C6.57552,-2.26563 5.875,-3.96354 5.875,-6.20313 "/>
</g>

<g fill="#212121" fill-opacity="1" stroke="none" transform="matrix(0.615618,0,0,0.593727,482.81,28.3661)"
font-family="SimSun" font-size="9" font-weight="400" font-style="normal" 
>
<path vector-effect="none" fill-rule="evenodd" d="M6.76563,0.421875 L5.01563,-23.7813 C4.92188,-24.1563 4.64063,-24.3906 4.17188,-24.4844 C3.70313,-24.5781 3.125,-24.625 2.4375,-24.625 C2.1875,-24.625 2.0625,-24.7917 2.0625,-25.125 C2.14583,-25.4479 2.21354,-25.6667 2.26563,-25.7813 C2.31771,-25.8958 2.45833,-25.9531 2.6875,-25.9531 L11.75,-25.9531 C11.9896,-25.9531 12.1094,-25.7865 12.1094,-25.4531 C12.0156,-24.901 11.8594,-24.625 11.6406,-24.625 C9.60938,-24.625 8.53125,-24.2708 8.40625,-23.5625 L9.76563,-4.375 L19.2656,-20.9375 L19.0781,-23.7813 C18.9844,-24.1563 18.7031,-24.3906 18.2344,-24.4844 C17.7656,-24.5781 17.1875,-24.625 16.5,-24.625 C16.2396,-24.625 16.1094,-24.7917 16.1094,-25.125 C16.1927,-25.4479 16.2604,-25.6667 16.3125,-25.7813 C16.3646,-25.8958 16.5104,-25.9531 16.75,-25.9531 L25.8125,-25.9531 C26.0625,-25.9531 26.1875,-25.7865 26.1875,-25.4531 C26.1667,-25.3906 26.138,-25.2865 26.1016,-25.1406 C26.0651,-24.9948 26.0156,-24.8724 25.9531,-24.7734 C25.8906,-24.6745 25.8021,-24.625 25.6875,-24.625 C23.6458,-24.625 22.5677,-24.2708 22.4531,-23.5625 L22.4531,-23.2813 L23.8281,-4.375 L34.1563,-22.4219 C34.3021,-22.6927 34.375,-22.9583 34.375,-23.2188 C34.375,-23.7292 34.1224,-24.0911 33.6172,-24.3047 C33.112,-24.5182 32.5469,-24.625 31.9219,-24.625 C31.6719,-24.625 31.5469,-24.7917 31.5469,-25.125 C31.599,-25.3229 31.638,-25.4766 31.6641,-25.5859 C31.6901,-25.6953 31.7448,-25.7839 31.8281,-25.8516 C31.9115,-25.9193 32.0313,-25.9531 32.1875,-25.9531 L39.4531,-25.9531 C39.6927,-25.9531 39.8125,-25.7865 39.8125,-25.4531 C39.8021,-25.3906 39.7786,-25.2839 39.7422,-25.1328 C39.7057,-24.9818 39.6536,-24.8594 39.5859,-24.7656 C39.5182,-24.6719 39.4375,-24.625 39.3438,-24.625 C37.5313,-24.625 36.1563,-23.8021 35.2188,-22.1563 C35.1458,-22.0833 35.1094,-22.0469 35.1094,-22.0469 L22.2344,0.421875 C22.099,0.692708 21.8802,0.828125 21.5781,0.828125 L21.2813,0.828125 C20.9688,0.828125 20.8125,0.692708 20.8125,0.421875 L19.375,-19.1563 L8.20313,0.421875 C8.01563,0.692708 7.79167,0.828125 7.53125,0.828125 L7.21875,0.828125 C6.91667,0.828125 6.76563,0.692708 6.76563,0.421875 "/>
</g>

<g fill="#212121" fill-opacity="1" stroke="none" transform="matrix(0.615618,0,0,0.593727,519.585,23.4679)"
font-family="SimSun" font-size="9" font-weight="400" font-style="normal" 
>
<path vector-effect="none" fill-rule="evenodd" d="M4.14063,-7.3125 C3.82813,-7.3125 3.57552,-7.42708 3.38281,-7.65625 C3.1901,-7.88542 3.09375,-8.13542 3.09375,-8.40625 C3.09375,-8.70833 3.1901,-8.96615 3.38281,-9.17969 C3.57552,-9.39323 3.82813,-9.5 4.14063,-9.5 L38.6719,-9.5 C38.9427,-9.5 39.1771,-9.39323 39.375,-9.17969 C39.5729,-8.96615 39.6719,-8.70833 39.6719,-8.40625 C39.6719,-8.13542 39.5729,-7.88542 39.375,-7.65625 C39.1771,-7.42708 38.9427,-7.3125 38.6719,-7.3125 L4.14063,-7.3125 M4.14063,-18 C3.82813,-18 3.57552,-18.1068 3.38281,-18.3203 C3.1901,-18.5339 3.09375,-18.7917 3.09375,-19.0938 C3.09375,-19.3646 3.1901,-19.6172 3.38281,-19.8516 C3.57552,-20.0859 3.82813,-20.2031 4.14063,-20.2031 L38.6719,-20.2031 C38.9427,-20.2031 39.1771,-20.0859 39.375,-19.8516 C39.5729,-19.6172 39.6719,-19.3646 39.6719,-19.0938 C39.6719,-18.7917 39.5729,-18.5339 39.375,-18.3203 C39.1771,-18.1068 38.9427,-18 38.6719,-18 L4.14063,-18"/>
</g>

<g fill="#212121" fill-opacity="1" stroke="none" transform="matrix(0.615618,0,0,0.593727,555.325,23.4679)"
font-family="SimSun" font-size="9" font-weight="400" font-style="normal" 
>
<path vector-effect="none" fill-rule="evenodd" d="M13.75,1.20313 C9.26042,1.20313 6.20573,-0.645833 4.58594,-4.34375 C2.96615,-8.04167 2.15625,-12.4375 2.15625,-17.5313 C2.15625,-20.7188 2.44531,-23.7188 3.02344,-26.5313 C3.60156,-29.3438 4.75521,-31.7292 6.48438,-33.6875 C8.21354,-35.6458 10.6354,-36.625 13.75,-36.625 C16.1667,-36.625 18.1458,-36.0365 19.6875,-34.8594 C21.2292,-33.6823 22.401,-32.1563 23.2031,-30.2813 C24.0052,-28.4063 24.5547,-26.401 24.8516,-24.2656 C25.1484,-22.1302 25.2969,-19.8854 25.2969,-17.5313 C25.2969,-14.3854 25.0052,-11.4375 24.4219,-8.6875 C23.8385,-5.9375 22.6979,-3.60156 21,-1.67969 C19.3021,0.242188 16.8854,1.20313 13.75,1.20313 M13.75,-0.21875 C15.7917,-0.21875 17.3125,-1.26563 18.3125,-3.35938 C19.3125,-5.45313 19.9297,-7.77083 20.1641,-10.3125 C20.3984,-12.8542 20.5156,-15.5573 20.5156,-18.4219 C20.5156,-21.1823 20.3984,-23.7266 20.1641,-26.0547 C19.9297,-28.3828 19.3177,-30.4896 18.3281,-32.375 C17.3385,-34.2604 15.8125,-35.2031 13.75,-35.2031 C11.6771,-35.2031 10.138,-34.2552 9.13281,-32.3594 C8.1276,-30.4635 7.50781,-28.3568 7.27344,-26.0391 C7.03906,-23.7214 6.92188,-21.1823 6.92188,-18.4219 C6.92188,-16.3802 6.97135,-14.4557 7.07031,-12.6484 C7.16927,-10.8411 7.4349,-8.97396 7.86719,-7.04688 C8.29948,-5.11979 8.99479,-3.5 9.95313,-2.1875 C10.9115,-0.875 12.1771,-0.21875 13.75,-0.21875 "/>
</g>

<g fill="#212121" fill-opacity="1" stroke="none" transform="matrix(0.615618,0,0,0.593727,572.254,23.4679)"
font-family="SimSun" font-size="9" font-weight="400" font-style="normal" 
>
<path vector-effect="none" fill-rule="evenodd" d="M4.625,-3.03125 C4.625,-3.85417 4.92969,-4.5625 5.53906,-5.15625 C6.14844,-5.75 6.85417,-6.04688 7.65625,-6.04688 C8.15625,-6.04688 8.64844,-5.91146 9.13281,-5.64063 C9.61719,-5.36979 9.99219,-4.99219 10.2578,-4.50781 C10.5234,-4.02344 10.6563,-3.53125 10.6563,-3.03125 C10.6563,-2.22917 10.362,-1.52344 9.77344,-0.914063 C9.1849,-0.304688 8.47917,0 7.65625,0 C6.85417,0 6.14844,-0.304688 5.53906,-0.914063 C4.92969,-1.52344 4.625,-2.22917 4.625,-3.03125 "/>
</g>

<g fill="#212121" fill-opacity="1" stroke="none" transform="matrix(0.615618,0,0,0.593727,581.66,23.4679)"
font-family="SimSun" font-size="9" font-weight="400" font-style="normal" 
>
<path vector-effect="none" fill-rule="evenodd" d="M13.75,1.20313 C9.26042,1.20313 6.20573,-0.645833 4.58594,-4.34375 C2.96615,-8.04167 2.15625,-12.4375 2.15625,-17.5313 C2.15625,-20.7188 2.44531,-23.7188 3.02344,-26.5313 C3.60156,-29.3438 4.75521,-31.7292 6.48438,-33.6875 C8.21354,-35.6458 10.6354,-36.625 13.75,-36.625 C16.1667,-36.625 18.1458,-36.0365 19.6875,-34.8594 C21.2292,-33.6823 22.401,-32.1563 23.2031,-30.2813 C24.0052,-28.4063 24.5547,-26.401 24.8516,-24.2656 C25.1484,-22.1302 25.2969,-19.8854 25.2969,-17.5313 C25.2969,-14.3854 25.0052,-11.4375 24.4219,-8.6875 C23.8385,-5.9375 22.6979,-3.60156 21,-1.67969 C19.3021,0.242188 16.8854,1.20313 13.75,1.20313 M13.75,-0.21875 C15.7917,-0.21875 17.3125,-1.26563 18.3125,-3.35938 C19.3125,-5.45313 19.9297,-7.77083 20.1641,-10.3125 C20.3984,-12.8542 20.5156,-15.5573 20.5156,-18.4219 C20.5156,-21.1823 20.3984,-23.7266 20.1641,-26.0547 C19.9297,-28.3828 19.3177,-30.4896 18.3281,-32.375 C17.3385,-34.2604 15.8125,-35.2031 13.75,-35.2031 C11.6771,-35.2031 10.138,-34.2552 9.13281,-32.3594 C8.1276,-30.4635 7.50781,-28.3568 7.27344,-26.0391 C7.03906,-23.7214 6.92188,-21.1823 6.92188,-18.4219 C6.92188,-16.3802 6.97135,-14.4557 7.07031,-12.6484 C7.16927,-10.8411 7.4349,-8.97396 7.86719,-7.04688 C8.29948,-5.11979 8.99479,-3.5 9.95313,-2.1875 C10.9115,-0.875 12.1771,-0.21875 13.75,-0.21875 "/>
</g>

<g fill="#212121" fill-opacity="1" stroke="none" transform="matrix(0.615618,0,0,0.593727,598.589,23.4679)"
font-family="SimSun" font-size="9" font-weight="400" font-style="normal" 
>
<path vector-effect="none" fill-rule="evenodd" d="M2.73438,0 L2.73438,-1.48438 C2.73438,-1.56771 2.77083,-1.66146 2.84375,-1.76563 L11.3906,-11.2188 C12.6823,-12.625 13.7292,-13.8021 14.5313,-14.75 C15.3333,-15.6979 16.1276,-16.7891 16.9141,-18.0234 C17.7005,-19.2578 18.3229,-20.5156 18.7813,-21.7969 C19.2396,-23.0781 19.4688,-24.4323 19.4688,-25.8594 C19.4688,-27.3698 19.1927,-28.8099 18.6406,-30.1797 C18.0885,-31.5495 17.2604,-32.6458 16.1563,-33.4688 C15.0521,-34.2917 13.724,-34.7031 12.1719,-34.7031 C10.5781,-34.7031 9.14583,-34.224 7.875,-33.2656 C6.60417,-32.3073 5.70833,-31.0677 5.1875,-29.5469 C5.32292,-29.5781 5.52083,-29.5938 5.78125,-29.5938 C6.60417,-29.5938 7.30469,-29.3177 7.88281,-28.7656 C8.46094,-28.2135 8.75,-27.4948 8.75,-26.6094 C8.75,-25.776 8.46094,-25.0677 7.88281,-24.4844 C7.30469,-23.901 6.60417,-23.6094 5.78125,-23.6094 C4.91667,-23.6094 4.19271,-23.9089 3.60938,-24.5078 C3.02604,-25.1068 2.73438,-25.8073 2.73438,-26.6094 C2.73438,-27.9948 2.99479,-29.2917 3.51563,-30.5 C4.03646,-31.7083 4.78385,-32.7813 5.75781,-33.7188 C6.73177,-34.6563 7.83333,-35.375 9.0625,-35.875 C10.2917,-36.375 11.5938,-36.625 12.9688,-36.625 C15.0625,-36.625 17.013,-36.1823 18.8203,-35.2969 C20.6276,-34.4115 22.0599,-33.1589 23.1172,-31.5391 C24.1745,-29.9193 24.7031,-28.026 24.7031,-25.8594 C24.7031,-24.2656 24.3542,-22.7526 23.6563,-21.3203 C22.9583,-19.888 22.0651,-18.5859 20.9766,-17.4141 C19.888,-16.2422 18.4922,-14.9141 16.7891,-13.4297 C15.0859,-11.9453 13.9635,-10.9531 13.4219,-10.4531 L7.20313,-4.45313 L12.4844,-4.45313 C15.0781,-4.45313 17.25,-4.47656 19,-4.52344 C20.75,-4.57031 21.6771,-4.64063 21.7813,-4.73438 C22.2083,-5.19271 22.6458,-6.88021 23.0938,-9.79688 L24.7031,-9.79688 L23.1563,0 L2.73438,0"/>
</g>

<g fill="#212121" fill-opacity="1" stroke="none" transform="matrix(0.615618,0,0,0.593727,615.519,23.4679)"
font-family="SimSun" font-size="9" font-weight="400" font-style="normal" 
>
<path vector-effect="none" fill-rule="evenodd" d="M4.78125,-6.28125 C5.15625,-5.20833 5.73438,-4.23438 6.51563,-3.35938 C7.29688,-2.48438 8.21875,-1.79948 9.28125,-1.30469 C10.3438,-0.809896 11.4479,-0.5625 12.5938,-0.5625 C15.2396,-0.5625 17.0651,-1.59115 18.0703,-3.64844 C19.0755,-5.70573 19.5781,-8.19792 19.5781,-11.125 C19.5781,-12.3958 19.5547,-13.4661 19.5078,-14.3359 C19.4609,-15.2057 19.3385,-16.0417 19.1406,-16.8438 C18.8073,-18.1354 18.2161,-19.263 17.3672,-20.2266 C16.5182,-21.1901 15.474,-21.6719 14.2344,-21.6719 C12.9948,-21.6719 11.9323,-21.4844 11.0469,-21.1094 C10.1615,-20.7344 9.44271,-20.2969 8.89063,-19.7969 C8.33854,-19.2969 7.84635,-18.7682 7.41406,-18.2109 C6.98177,-17.6536 6.71354,-17.3594 6.60938,-17.3281 L5.98438,-17.3281 C5.90104,-17.3281 5.79167,-17.3854 5.65625,-17.5 C5.52083,-17.6146 5.45313,-17.724 5.45313,-17.8281 L5.45313,-36.2031 C5.45313,-36.2865 5.51042,-36.3776 5.625,-36.4766 C5.73958,-36.5755 5.85938,-36.625 5.98438,-36.625 L6.15625,-36.625 C8.625,-35.4479 11.2448,-34.8594 14.0156,-34.8594 C16.7344,-34.8594 19.3594,-35.4479 21.8906,-36.625 L22.0469,-36.625 C22.1719,-36.625 22.2891,-36.5807 22.3984,-36.4922 C22.5078,-36.4036 22.5625,-36.3073 22.5625,-36.2031 L22.5625,-35.6875 C22.5625,-35.5104 22.526,-35.4219 22.4531,-35.4219 C21.2031,-33.7552 19.6328,-32.4557 17.7422,-31.5234 C15.8516,-30.5911 13.8958,-30.125 11.875,-30.125 C10.4063,-30.125 8.90104,-30.3333 7.35938,-30.75 L7.35938,-20.3594 C8.57813,-21.3385 9.66667,-22.0391 10.625,-22.4609 C11.5833,-22.8828 12.8021,-23.0938 14.2813,-23.0938 C16.3125,-23.0938 18.1276,-22.513 19.7266,-21.3516 C21.3255,-20.1901 22.5547,-18.6719 23.4141,-16.7969 C24.2734,-14.9219 24.7031,-13.0104 24.7031,-11.0625 C24.7031,-8.86458 24.1615,-6.82552 23.0781,-4.94531 C21.9948,-3.0651 20.5234,-1.57031 18.6641,-0.460938 C16.8047,0.648438 14.7813,1.20313 12.5938,1.20313 C10.7917,1.20313 9.13281,0.736979 7.61719,-0.195313 C6.10156,-1.1276 4.90885,-2.38021 4.03906,-3.95313 C3.16927,-5.52604 2.73438,-7.20313 2.73438,-8.98438 C2.73438,-9.80729 3.0026,-10.4792 3.53906,-11 C4.07552,-11.5208 4.75,-11.7813 5.5625,-11.7813 C6.36458,-11.7813 7.03906,-11.5156 7.58594,-10.9844 C8.13281,-10.4531 8.40625,-9.78646 8.40625,-8.98438 C8.40625,-8.20313 8.13281,-7.53906 7.58594,-6.99219 C7.03906,-6.44531 6.36458,-6.17188 5.5625,-6.17188 C5.4375,-6.17188 5.29427,-6.1849 5.13281,-6.21094 C4.97135,-6.23698 4.85417,-6.26042 4.78125,-6.28125 "/>
</g>

<g fill="none" stroke="#0000ff" stroke-opacity="1" stroke-width="4.16667" stroke-linecap="butt" stroke-linejoin="round" transform="matrix(0.615618,0,0,0.593727,-59.9796,-11.5322)"
font-family="SimSun" font-size="9" font-weight="400" font-style="normal" 
>
<polyline fill="none" vector-effect="none" points="233.383,898.2 234.766,898.2 236.149,898.2 237.532,898.2 238.915,898.2 240.298,898.2 241.681,898.2 243.064,898.2 244.447,898.2 245.83,898.2 247.213,898.2 248.596,898.2 249.979,898.2 251.362,898.2 252.745,898.2 254.128,898.2 255.511,898.2 256.894,898.2 258.277,898.2 259.66,898.2 261.043,898.2 262.426,898.2 263.809,898.2 265.192,898.2 266.575,898.2 267.958,898.2 269.341,898.2 270.724,898.2 272.107,898.2 273.49,898.2 274.873,898.2 276.256,898.2 277.639,898.2 279.022,898.2 280.405,898.2 281.788,898.2 283.171,898.2 284.554,898.2 285.937,898.2 287.32,898.2 288.703,898.2 290.086,898.2 291.469,898.2 292.852,898.2 294.235,898.2 295.618,898.2 297.001,898.2 298.384,898.2 299.767,898.2 301.15,898.2 302.533,898.2 303.916,898.2 305.299,898.2 306.682,898.2 308.065,898.2 309.448,898.2 310.831,898.2 312.214,898.2 313.597,898.2 314.98,898.2 316.363,898.2 317.746,898.2 319.129,898.2 320.512,898.2 321.895,898.2 323.278,898.2 324.661,898.2 326.044,898.2 327.427,898.2 328.81,898.2 330.193,898.2 331.576,898.2 332.959,898.2 334.342,898.2 335.725,898.2 337.108,898.2 338.491,898.2 339.874,898.2 341.257,898.2 342.64,898.2 344.023,898.2 345.406,898.2 346.789,898.2 348.172,898.2 349.555,898.2 350.938,898.2 352.321,898.2 353.704,898.2 355.087,898.2 356.47,898.2 357.853,898.2 359.236,898.2 360.619,898.2 362.002,898.2 363.385,898.2 364.768,898.2 366.151,898.2 367.534,898.2 368.917,898.2 370.3,898.2 371.683,898.2 373.066,898.2 374.449,898.2 375.832,898.2 377.215,898.2 378.598,898.2 379.981,898.2 381.364,898.2 382.747,898.2 384.13,898.2 385.513,898.2 386.896,898.2 388.279,898.2 389.662,898.2 391.045,898.2 392.428,898.2 393.811,898.2 395.194,898.2 396.577,898.2 397.96,898.2 399.343,898.2 400.726,898.2 402.109,898.2 403.492,898.2 404.875,898.2 406.258,898.2 407.641,898.2 409.024,898.2 410.407,898.2 411.79,898.2 413.173,898.2 414.556,898.2 415.939,898.2 417.322,898.2 418.705,898.2 420.088,898.2 421.471,898.2 422.854,898.2 424.237,898.2 425.62,898.2 427.003,898.2 428.386,898.2 429.769,898.2 431.152,898.2 432.535,898.2 433.918,898.2 435.301,898.2 436.684,898.2 438.067,898.2 439.45,898.2 440.833,898.2 442.216,898.2 443.599,898.2 444.982,898.2 446.365,898.2 447.748,898.2 449.131,898.2 450.514,898.2 451.897,898.2 453.28,898.2 454.663,898.2 456.046,898.2 457.429,898.2 458.812,898.2 460.195,898.2 461.578,898.2 462.961,898.2 464.344,898.2 465.727,898.2 467.11,898.2 468.493,898.2 469.876,898.2 471.259,898.2 472.642,898.2 474.025,898.2 475.408,898.2 476.791,898.2 478.174,898.2 479.557,898.2 480.94,898.2 482.323,898.2 483.706,898.2 485.089,898.2 486.472,898.2 487.855,898.2 489.238,898.2 490.621,898.2 492.004,898.2 493.387,898.2 494.77,898.2 496.153,898.2 497.536,898.2 498.919,898.2 500.302,898.2 501.685,898.2 503.068,898.2 504.451,898.2 505.834,898.2 507.217,898.2 508.6,898.2 509.983,898.2 511.366,898.2 512.749,898.2 514.132,898.2 515.515,898.2 516.898,898.2 518.281,898.2 519.664,898.2 521.047,898.2 522.43,898.2 523.813,898.2 525.196,898.2 526.579,898.2 527.962,898.2 529.345,898.2 530.728,898.2 532.111,898.2 533.494,898.2 534.877,898.2 536.26,898.2 537.643,898.2 539.026,898.2 540.409,898.2 541.792,898.2 543.175,898.2 544.558,898.2 545.941,898.2 547.324,898.2 548.707,898.2 550.09,898.2 551.473,898.2 552.856,898.2 554.239,898.2 555.622,898.2 557.005,898.2 558.388,898.2 559.771,898.2 561.154,898.2 562.537,898.2 563.92,898.2 565.303,898.2 566.686,898.2 568.069,898.2 569.452,898.2 570.835,898.2 572.218,898.2 573.601,898.2 574.984,898.2 576.367,898.2 577.75,898.2 579.133,898.2 580.516,898.2 581.899,898.2 583.282,898.2 584.665,898.2 586.048,898.2 587.431,898.2 588.814,898.2 590.197,898.2 591.58,898.2 592.963,898.2 594.346,898.2 595.729,898.2 597.112,898.2 598.495,898.2 599.878,898.2 601.261,898.2 602.644,898.2 604.027,898.2 605.41,898.2 606.793,898.2 608.176,898.2 609.559,898.2 610.942,898.2 612.325,898.2 613.708,898.2 615.091,898.2 616.474,898.2 617.857,898.2 619.24,898.2 620.623,898.2 622.006,898.2 623.389,898.2 624.772,898.2 626.155,898.2 627.538,898.2 628.921,898.2 630.304,898.2 631.687,898.2 633.07,898.2 634.453,898.2 635.836,898.2 637.219,898.2 638.602,898.2 639.985,898.2 641.368,898.2 642.751,898.2 644.134,898.2 645.517,898.2 646.9,898.2 648.283,898.2 649.666,898.2 651.049,898.2 652.432,898.2 653.815,898.2 655.198,898.2 656.581,898.2 657.964,898.2 659.347,898.2 660.73,898.2 662.113,898.2 663.496,898.2 664.879,898.2 666.262,898.2 667.645,898.2 669.028,898.2 670.411,898.2 671.794,898.2 673.177,898.2 674.56,898.2 675.943,898.2 677.326,898.2 678.709,898.2 680.092,898.2 681.475,898.2 682.858,898.2 684.241,898.2 685.624,898.2 687.007,898.2 688.39,898.2 689.773,898.2 691.156,898.2 692.539,898.2 693.922,898.2 695.305,898.2 696.688,898.2 698.071,898.2 699.454,898.2 700.837,898.2 702.22,898.2 703.603,898.2 704.986,898.2 706.369,898.2 707.752,898.2 709.135,898.2 710.518,898.2 711.901,898.2 713.284,898.2 714.667,898.2 716.05,898.2 717.433,898.2 718.816,898.2 720.199,898.2 721.582,898.2 722.965,898.2 724.348,898.2 725.731,898.2 727.114,898.2 728.497,898.2 729.88,898.2 731.263,898.2 732.646,898.2 734.029,898.2 735.412,898.2 736.795,898.2 738.178,898.2 739.561,898.2 740.944,898.2 742.327,898.2 743.71,898.2 745.093,898.2 746.476,898.2 747.859,898.2 749.242,898.2 750.625,898.2 752.008,898.2 753.391,898.2 754.774,898.2 756.157,898.2 757.54,898.2 758.923,898.2 760.306,898.2 761.689,898.2 763.072,898.2 764.455,898.2 765.838,898.2 767.221,898.2 768.604,898.2 769.987,898.2 771.37,898.2 772.753,898.2 774.136,898.2 775.519,898.2 776.902,898.2 778.285,898.2 779.668,898.2 781.051,898.2 782.434,898.2 783.817,898.2 785.2,898.2 786.583,898.2 787.966,898.2 789.349,898.2 790.732,898.2 792.115,898.2 793.498,898.2 794.881,898.2 796.264,898.2 797.647,898.2 799.03,898.2 800.413,898.2 801.796,898.2 803.179,898.2 804.562,898.2 805.945,898.2 807.328,898.2 808.711,898.2 810.094,898.2 811.477,898.2 812.86,898.2 814.243,898.2 815.626,898.2 817.009,898.2 818.392,898.2 819.775,898.2 821.158,898.2 822.541,898.2 823.924,898.2 825.307,898.2 826.69,898.2 828.073,898.2 829.456,898.2 830.839,898.2 832.222,898.2 833.605,898.2 834.988,898.2 836.371,898.2 837.754,898.2 839.137,898.2 840.52,898.2 841.903,898.2 843.286,898.2 844.669,898.2 846.052,898.2 847.435,898.2 848.818,898.2 850.201,898.2 851.584,898.2 852.967,898.2 854.35,898.2 855.733,898.2 857.116,898.2 858.499,898.2 859.882,898.2 861.265,898.2 862.648,898.2 864.031,898.2 865.414,898.2 866.797,898.2 868.18,898.2 869.563,898.2 870.946,898.2 872.329,898.2 873.712,898.2 875.095,898.2 876.478,898.2 877.861,898.2 879.244,898.2 880.627,898.2 882.01,898.2 883.393,898.2 884.776,898.2 886.159,898.2 887.542,898.2 888.925,898.2 890.308,898.2 891.691,898.2 893.074,898.2 894.457,898.2 895.84,898.2 897.223,898.2 898.606,898.2 899.989,898.2 901.372,898.2 902.755,898.2 904.138,898.2 905.521,898.2 906.904,898.2 908.287,898.2 909.67,898.2 911.053,898.2 912.436,898.2 913.819,898.2 915.202,898.2 916.585,898.2 917.968,898.2 919.351,898.2 920.734,898.2 922.117,898.2 923.5,898.2 924.883,898.2 926.266,898.2 927.649,898.2 929.032,898.2 930.415,898.2 931.798,898.2 933.181,898.2 934.564,898.2 935.947,898.2 937.33,898.2 938.713,898.2 940.096,898.2 941.479,898.2 942.862,898.2 944.245,898.2 945.628,898.2 947.011,898.2 948.394,898.2 949.777,898.2 951.16,898.2 952.543,898.2 953.926,898.2 955.309,898.2 956.692,898.2 958.075,898.2 959.458,898.2 960.841,898.2 962.224,898.2 963.607,898.2 964.99,898.2 966.373,898.2 967.756,898.2 969.139,898.2 970.522,898.2 971.905,898.2 973.288,898.2 974.671,898.2 976.054,898.2 977.437,898.2 978.82,898.2 980.203,898.2 981.586,898.2 982.969,898.2 984.352,898.2 985.735,898.2 987.118,898.2 988.501,898.2 989.884,898.2 991.267,898.2 992.65,898.2 994.033,898.2 995.416,898.2 996.799,898.2 998.182,898.2 999.565,898.2 1000.95,898.2 1002.33,898.2 1003.71,898.2 1005.1,898.2 1006.48,898.2 1007.86,898.2 1009.25,898.2 1010.63,898.2 1012.01,898.2 1013.4,898.2 1014.78,898.2 1016.16,898.2 1017.54,898.2 1018.93,898.2 1020.31,898.2 1021.69,898.2 1023.08,898.2 1024.46,898.2 1025.84,898.2 1027.22,898.2 1028.61,898.2 1029.99,898.2 1031.37,898.2 1032.76,898.2 1034.14,898.2 1035.52,898.2 1036.91,898.2 1038.29,898.2 1039.67,898.2 1041.06,898.2 1042.44,898.2 1043.82,898.2 1045.2,898.2 1046.59,898.2 1047.97,898.2 1049.35,898.2 1050.74,898.2 1052.12,898.2 1053.5,898.2 1054.89,898.2 1056.27,898.2 1057.65,898.2 1059.03,898.2 1060.42,898.2 1061.8,898.2 1063.18,898.2 1064.57,898.2 1065.95,898.2 1067.33,898.2 1068.71,898.2 1070.1,898.2 1071.48,898.2 1072.86,898.2 1074.25,898.2 1075.63,898.2 1077.01,898.2 1078.4,898.2 1079.78,898.2 1081.16,898.2 1082.55,898.2 1083.93,898.2 1085.31,898.2 1086.69,898.2 1088.08,898.2 1089.46,898.2 1090.84,898.2 1092.23,898.2 1093.61,898.2 1094.99,898.2 1096.38,898.2 1097.76,898.2 1099.14,898.2 1100.52,898.2 1101.91,898.2 1103.29,898.2 1104.67,898.2 1106.06,898.2 1107.44,898.2 1108.82,898.2 1110.2,898.2 1111.59,898.2 1112.97,898.2 1114.35,898.2 1115.74,898.2 1117.12,898.2 1118.5,898.2 1119.89,898.2 1121.27,898.2 1122.65,898.2 1124.04,898.2 1125.42,898.2 1126.8,898.2 1128.18,898.2 1129.57,898.2 1130.95,898.2 1132.33,898.2 1133.72,898.2 1135.1,898.2 1136.48,898.2 1137.86,898.2 1139.25,898.2 1140.63,898.2 1142.01,898.2 1143.4,898.2 1144.78,898.2 1146.16,898.2 1147.55,898.2 1148.93,898.2 1150.31,898.2 1151.69,898.2 1153.08,898.2 1154.46,898.2 1155.84,898.2 1157.23,898.2 1158.61,898.2 1159.99,898.2 1161.38,898.2 1162.76,898.2 1164.14,898.2 1165.53,898.2 1166.91,898.2 1168.29,898.2 1169.67,898.2 1171.06,898.2 1172.44,898.2 1173.82,898.2 1175.21,898.2 1176.59,898.2 1177.97,898.2 1179.35,898.2 1180.74,898.2 1182.12,898.2 1183.5,898.2 1184.89,898.2 1186.27,898.2 1187.65,898.2 1189.04,898.2 1190.42,898.2 1191.8,898.2 1193.19,898.2 1194.57,898.2 1195.95,898.2 1197.33,898.2 1198.72,898.2 1200.1,898.2 1201.48,898.2 1202.87,898.2 1204.25,898.2 1205.63,898.2 1207.02,898.2 1208.4,898.2 1209.78,898.2 1211.16,898.2 1212.55,898.2 1213.93,898.2 1215.31,898.2 1216.7,898.2 1218.08,898.2 1219.46,898.2 1220.84,898.2 1222.23,898.2 1223.61,898.2 1224.99,898.2 1226.38,898.2 1227.76,898.2 1229.14,898.2 1230.53,898.2 1231.91,898.2 1233.29,898.2 1234.68,898.2 1236.06,898.2 1237.44,898.2 1238.82,898.2 1240.21,898.2 1241.59,898.2 1242.97,898.2 1244.36,898.2 1245.74,898.2 1247.12,898.2 1248.51,898.2 1249.89,898.2 1251.27,898.2 1252.65,898.2 1254.04,898.2 1255.42,898.2 1256.8,898.2 1258.19,898.2 1259.57,898.2 1260.95,898.2 1262.33,898.2 1263.72,898.2 1265.1,898.2 1266.48,898.2 1267.87,898.2 1269.25,898.2 1270.63,898.2 1272.02,898.2 1273.4,898.2 1274.78,898.2 1276.17,898.2 1277.55,898.2 1278.93,898.2 1280.31,898.2 1281.7,898.2 1283.08,898.2 1284.46,898.2 1285.85,898.2 1287.23,898.2 1288.61,898.2 1289.99,898.2 1291.38,898.2 1292.76,898.2 1294.14,898.2 1295.53,898.2 1296.91,898.2 1298.29,898.2 1299.68,898.2 1301.06,898.2 1302.44,898.2 1303.82,898.2 1305.21,898.2 1306.59,898.2 1307.97,898.2 1309.36,898.2 1310.74,898.2 1312.12,898.2 1313.51,898.2 1314.89,898.2 1316.27,898.2 1317.66,898.2 1319.04,898.2 1320.42,898.2 1321.8,898.2 1323.19,898.2 1324.57,898.2 1325.95,898.2 1327.34,898.2 1328.72,898.2 1330.1,898.2 1331.48,898.2 1332.87,898.2 1334.25,898.2 1335.63,898.2 1337.02,898.2 1338.4,898.2 1339.78,898.2 " />
</g>

<g fill="none" stroke="#000000" stroke-opacity="1" stroke-dasharray="16,16" stroke-dashoffset="0" stroke-width="4.16667" stroke-linecap="butt" stroke-linejoin="round" transform="matrix(0.615618,0,0,0.593727,-59.9796,-11.5322)"
font-family="SimSun" font-size="9" font-weight="400" font-style="normal" 
>
<polyline fill="none" vector-effect="none" points="233.383,898.2 234.766,897.355 236.149,896.51 237.532,895.665 238.915,894.82 240.298,893.975 241.681,893.13 243.064,892.285 244.447,891.44 245.83,890.595 247.213,889.75 248.596,888.905 249.979,888.06 251.362,887.215 252.745,886.37 254.128,885.525 255.511,884.68 256.894,883.835 258.277,882.99 259.66,882.145 261.043,881.3 262.426,880.455 263.809,879.61 265.192,878.765 266.575,877.92 267.958,877.075 269.341,876.23 270.724,875.385 272.107,874.54 273.49,873.695 274.873,872.85 276.256,872.005 277.639,871.16 279.022,870.315 280.405,869.47 281.788,868.625 283.171,867.78 284.554,866.935 285.937,866.09 287.32,865.245 288.703,864.4 290.086,863.555 291.469,862.71 292.852,861.865 294.235,861.02 295.618,860.175 297.001,859.33 298.384,858.485 299.767,857.64 301.15,856.795 302.533,855.95 303.916,855.105 305.299,854.26 306.682,853.415 308.065,852.57 309.448,851.725 310.831,850.88 312.214,850.035 313.597,849.19 314.98,848.345 316.363,847.5 317.746,846.655 319.129,845.81 320.512,844.965 321.895,844.12 323.278,843.275 324.661,842.43 326.044,841.585 327.427,840.74 328.81,839.895 330.193,839.05 331.576,838.205 332.959,837.36 334.342,836.515 335.725,835.67 337.108,834.825 338.491,833.98 339.874,833.135 341.257,832.29 342.64,831.445 344.023,830.6 345.406,829.755 346.789,828.91 348.172,828.065 349.555,827.22 350.938,826.375 352.321,825.53 353.704,824.685 355.087,823.84 356.47,822.995 357.853,822.15 359.236,821.305 360.619,820.46 362.002,819.615 363.385,818.77 364.768,817.925 366.151,817.08 367.534,816.235 368.917,815.39 370.3,814.545 371.683,813.7 373.066,812.855 374.449,812.01 375.832,811.165 377.215,810.32 378.598,809.475 379.981,808.63 381.364,807.785 382.747,806.94 384.13,806.095 385.513,805.25 386.896,804.405 388.279,803.56 389.662,802.715 391.045,801.87 392.428,801.025 393.811,800.18 395.194,799.335 396.577,798.49 397.96,797.645 399.343,796.8 400.726,795.955 402.109,795.11 403.492,794.265 404.875,793.42 406.258,792.575 407.641,791.73 409.024,790.885 410.407,790.04 411.79,789.195 413.173,788.35 414.556,787.505 415.939,786.66 417.322,785.815 418.705,784.97 420.088,784.125 421.471,783.28 422.854,782.435 424.237,781.59 425.62,780.745 427.003,779.9 428.386,779.055 429.769,778.21 431.152,777.365 432.535,776.52 433.918,775.675 435.301,774.83 436.684,773.985 438.067,773.14 439.45,772.295 440.833,771.45 442.216,770.605 443.599,769.76 444.982,768.915 446.365,768.07 447.748,767.225 449.131,766.38 450.514,765.535 451.897,764.69 453.28,763.845 454.663,763 456.046,762.155 457.429,761.31 458.812,760.465 460.195,759.62 461.578,758.775 462.961,757.93 464.344,757.085 465.727,756.24 467.11,755.395 468.493,754.55 469.876,753.705 471.259,752.86 472.642,752.015 474.025,751.17 475.408,750.325 476.791,749.48 478.174,748.635 479.557,747.79 480.94,746.945 482.323,746.1 483.706,745.255 485.089,744.41 486.472,743.565 487.855,742.72 489.238,741.875 490.621,741.03 492.004,740.185 493.387,739.34 494.77,738.495 496.153,737.65 497.536,736.805 498.919,735.96 500.302,735.115 501.685,734.27 503.068,733.425 504.451,732.58 505.834,731.735 507.217,730.89 508.6,730.045 509.983,729.2 511.366,728.355 512.749,727.51 514.132,726.665 515.515,725.82 516.898,724.975 518.281,724.13 519.664,723.285 521.047,722.44 522.43,721.595 523.813,720.75 525.196,719.905 526.579,719.06 527.962,718.215 529.345,717.37 530.728,716.525 532.111,715.68 533.494,714.835 534.877,713.99 536.26,713.145 537.643,712.3 539.026,711.455 540.409,710.61 541.792,709.765 543.175,708.92 544.558,708.075 545.941,707.23 547.324,706.385 548.707,705.54 550.09,704.695 551.473,703.85 552.856,703.005 554.239,702.16 555.622,701.315 557.005,700.47 558.388,699.625 559.771,698.78 561.154,697.935 562.537,697.09 563.92,696.245 565.303,695.4 566.686,694.555 568.069,693.71 569.452,692.865 570.835,692.02 572.218,691.175 573.601,690.33 574.984,689.485 576.367,688.64 577.75,687.795 579.133,686.95 580.516,686.105 581.899,685.26 583.282,684.415 584.665,683.57 586.048,682.725 587.431,681.88 588.814,681.035 590.197,680.19 591.58,679.345 592.963,678.5 594.346,677.655 595.729,676.81 597.112,675.965 598.495,675.12 599.878,674.275 601.261,673.43 602.644,672.585 604.027,671.74 605.41,670.895 606.793,670.05 608.176,669.205 609.559,668.36 610.942,667.515 612.325,666.67 613.708,665.825 615.091,664.98 616.474,664.135 617.857,663.29 619.24,662.445 620.623,661.6 622.006,660.755 623.389,659.91 624.772,659.065 626.155,658.22 627.538,657.375 628.921,656.53 630.304,655.685 631.687,654.84 633.07,653.995 634.453,653.15 635.836,652.305 637.219,651.46 638.602,650.615 639.985,649.77 641.368,648.925 642.751,648.08 644.134,647.235 645.517,646.39 646.9,645.545 648.283,644.7 649.666,643.855 651.049,643.01 652.432,642.165 653.815,641.32 655.198,640.475 656.581,639.63 657.964,638.785 659.347,637.94 660.73,637.095 662.113,636.25 663.496,635.405 664.879,634.56 666.262,633.715 667.645,632.87 669.028,632.025 670.411,631.18 671.794,630.335 673.177,629.49 674.56,628.645 675.943,627.8 677.326,626.955 678.709,626.11 680.092,625.265 681.475,624.42 682.858,623.575 684.241,622.73 685.624,621.885 687.007,621.04 688.39,620.195 689.773,619.35 691.156,618.505 692.539,617.66 693.922,616.815 695.305,615.97 696.688,615.125 698.071,614.28 699.454,613.435 700.837,612.59 702.22,611.745 703.603,610.9 704.986,610.055 706.369,609.21 707.752,608.365 709.135,607.52 710.518,606.675 711.901,605.83 713.284,604.985 714.667,604.14 716.05,603.295 717.433,602.45 718.816,601.605 720.199,600.76 721.582,599.915 722.965,599.07 724.348,598.225 725.731,597.38 727.114,596.535 728.497,595.69 729.88,594.845 731.263,594 732.646,593.155 734.029,592.31 735.412,591.465 736.795,590.62 738.178,589.775 739.561,588.93 740.944,588.085 742.327,587.24 743.71,586.395 745.093,585.55 746.476,584.705 747.859,583.86 749.242,583.015 750.625,582.17 752.008,581.325 753.391,580.48 754.774,579.635 756.157,578.79 757.54,577.945 758.923,577.1 760.306,576.255 761.689,575.41 763.072,574.565 764.455,573.72 765.838,572.875 767.221,572.03 768.604,571.185 769.987,570.34 771.37,569.495 772.753,568.65 774.136,567.805 775.519,566.96 776.902,566.115 778.285,565.27 779.668,564.425 781.051,563.58 782.434,562.735 783.817,561.89 785.2,561.045 786.583,560.2 787.966,559.355 789.349,558.51 790.732,557.665 792.115,556.82 793.498,555.975 794.881,555.13 796.264,554.285 797.647,553.44 799.03,552.595 800.413,551.75 801.796,550.905 803.179,550.06 804.562,549.215 805.945,548.37 807.328,547.525 808.711,546.68 810.094,545.835 811.477,544.99 812.86,544.145 814.243,543.3 815.626,542.455 817.009,541.61 818.392,540.765 819.775,539.92 821.158,539.075 822.541,538.23 823.924,537.385 825.307,536.54 826.69,535.695 828.073,534.85 829.456,534.005 830.839,533.16 832.222,532.315 833.605,531.47 834.988,530.625 836.371,529.78 837.754,528.935 839.137,528.09 840.52,527.245 841.903,526.4 843.286,525.555 844.669,524.71 846.052,523.865 847.435,523.02 848.818,522.175 850.201,521.33 851.584,520.485 852.967,519.64 854.35,518.795 855.733,517.95 857.116,517.105 858.499,516.26 859.882,515.415 861.265,514.57 862.648,513.725 864.031,512.88 865.414,512.035 866.797,511.19 868.18,510.345 869.563,509.5 870.946,508.655 872.329,507.81 873.712,506.965 875.095,506.12 876.478,505.275 877.861,504.43 879.244,503.585 880.627,502.74 882.01,501.895 883.393,501.05 884.776,500.205 886.159,499.36 887.542,498.515 888.925,497.67 890.308,496.825 891.691,495.98 893.074,495.135 894.457,494.29 895.84,493.445 897.223,492.6 898.606,491.755 899.989,490.91 901.372,490.065 902.755,489.22 904.138,488.375 905.521,487.53 906.904,486.685 908.287,485.84 909.67,484.995 911.053,484.15 912.436,483.305 913.819,482.46 915.202,481.615 916.585,480.77 917.968,479.925 919.351,479.08 920.734,478.235 922.117,477.39 923.5,476.545 924.883,475.7 926.266,474.855 927.649,474.01 929.032,473.165 930.415,472.32 931.798,471.475 933.181,470.63 934.564,469.785 935.947,468.94 937.33,468.095 938.713,467.25 940.096,466.405 941.479,465.56 942.862,464.715 944.245,463.87 945.628,463.025 947.011,462.18 948.394,461.335 949.777,460.49 951.16,459.645 952.543,458.8 953.926,457.955 955.309,457.11 956.692,456.265 958.075,455.42 959.458,454.575 960.841,453.73 962.224,452.885 963.607,452.04 964.99,451.195 966.373,450.35 967.756,449.505 969.139,448.66 970.522,447.815 971.905,446.97 973.288,446.125 974.671,445.28 976.054,444.435 977.437,443.59 978.82,442.745 980.203,441.9 981.586,441.055 982.969,440.21 984.352,439.365 985.735,438.52 987.118,437.675 988.501,436.83 989.884,435.985 991.267,435.14 992.65,434.295 994.033,433.45 995.416,432.605 996.799,431.76 998.182,430.915 999.565,430.07 1000.95,429.225 1002.33,428.38 1003.71,427.535 1005.1,426.69 1006.48,425.845 1007.86,425 1009.25,424.155 1010.63,423.31 1012.01,422.465 1013.4,421.62 1014.78,420.775 1016.16,419.93 1017.54,419.085 1018.93,418.24 1020.31,417.395 1021.69,416.55 1023.08,415.705 1024.46,414.86 1025.84,414.015 1027.22,413.17 1028.61,412.325 1029.99,411.48 1031.37,410.635 1032.76,409.79 1034.14,408.945 1035.52,408.1 1036.91,407.255 1038.29,406.41 1039.67,405.565 1041.06,404.72 1042.44,403.875 1043.82,403.03 1045.2,402.185 1046.59,401.34 1047.97,400.495 1049.35,399.65 1050.74,398.805 1052.12,397.96 1053.5,397.115 1054.89,396.27 1056.27,395.425 1057.65,394.58 1059.03,393.735 1060.42,392.89 1061.8,392.045 1063.18,391.2 1064.57,390.355 1065.95,389.51 1067.33,388.665 1068.71,387.82 1070.1,386.975 1071.48,386.13 1072.86,385.285 1074.25,384.44 1075.63,383.595 1077.01,382.75 1078.4,381.905 1079.78,381.06 1081.16,380.215 1082.55,379.37 1083.93,378.525 1085.31,377.68 1086.69,376.835 1088.08,375.99 1089.46,375.145 1090.84,374.3 1092.23,373.455 1093.61,372.61 1094.99,371.765 1096.38,370.92 1097.76,370.075 1099.14,369.23 1100.52,368.385 1101.91,367.54 1103.29,366.695 1104.67,365.85 1106.06,365.005 1107.44,364.16 1108.82,363.315 1110.2,362.47 1111.59,361.625 1112.97,360.78 1114.35,359.935 1115.74,359.09 1117.12,358.245 1118.5,357.4 1119.89,356.555 1121.27,355.71 1122.65,354.865 1124.04,354.02 1125.42,353.175 1126.8,352.33 1128.18,351.485 1129.57,350.64 1130.95,349.795 1132.33,348.95 1133.72,348.105 1135.1,347.26 1136.48,346.415 1137.86,345.57 1139.25,344.725 1140.63,343.88 1142.01,343.035 1143.4,342.19 1144.78,341.345 1146.16,340.5 1147.55,339.655 1148.93,338.81 1150.31,337.965 1151.69,337.12 1153.08,336.275 1154.46,335.43 1155.84,334.585 1157.23,333.74 1158.61,332.895 1159.99,332.05 1161.38,331.205 1162.76,330.36 1164.14,329.515 1165.53,328.67 1166.91,327.825 1168.29,326.98 1169.67,326.135 1171.06,325.29 1172.44,324.445 1173.82,323.6 1175.21,322.755 1176.59,321.91 1177.97,321.065 1179.35,320.22 1180.74,319.375 1182.12,318.53 1183.5,317.685 1184.89,316.84 1186.27,315.995 1187.65,315.15 1189.04,314.305 1190.42,313.46 1191.8,312.615 1193.19,311.77 1194.57,310.925 1195.95,310.08 1197.33,309.235 1198.72,308.39 1200.1,307.545 1201.48,306.7 1202.87,305.855 1204.25,305.01 1205.63,304.165 1207.02,303.32 1208.4,302.475 1209.78,301.63 1211.16,300.785 1212.55,299.94 1213.93,299.095 1215.31,298.25 1216.7,297.405 1218.08,296.56 1219.46,295.715 1220.84,294.87 1222.23,294.025 1223.61,293.18 1224.99,292.335 1226.38,291.49 1227.76,290.645 1229.14,289.8 1230.53,288.955 1231.91,288.11 1233.29,287.265 1234.68,286.42 1236.06,285.575 1237.44,284.73 1238.82,283.885 1240.21,283.04 1241.59,282.195 1242.97,281.35 1244.36,280.505 1245.74,279.66 1247.12,278.815 1248.51,277.97 1249.89,277.125 1251.27,276.28 1252.65,275.435 1254.04,274.59 1255.42,273.745 1256.8,272.9 1258.19,272.055 1259.57,271.21 1260.95,270.365 1262.33,269.52 1263.72,268.675 1265.1,267.83 1266.48,266.985 1267.87,266.14 1269.25,265.295 1270.63,264.45 1272.02,263.605 1273.4,262.76 1274.78,261.915 1276.17,261.07 1277.55,260.225 1278.93,259.38 1280.31,258.535 1281.7,257.69 1283.08,256.845 1284.46,256 1285.85,255.155 1287.23,254.31 1288.61,253.465 1289.99,252.62 1291.38,251.775 1292.76,250.93 1294.14,250.085 1295.53,249.24 1296.91,248.395 1298.29,247.55 1299.68,246.705 1301.06,245.86 1302.44,245.015 1303.82,244.17 1305.21,243.325 1306.59,242.48 1307.97,241.635 1309.36,240.79 1310.74,239.945 1312.12,239.1 1313.51,238.255 1314.89,237.41 1316.27,236.565 1317.66,235.72 1319.04,234.875 1320.42,234.03 1321.8,233.185 1323.19,232.34 1324.57,231.495 1325.95,230.65 1327.34,229.805 1328.72,228.96 1330.1,228.115 1331.48,227.27 1332.87,226.425 1334.25,225.58 1335.63,224.735 1337.02,223.89 1338.4,223.045 1339.78,222.2 " />
</g>

<g fill="#ffffff" fill-opacity="1" stroke="none" transform="matrix(6.15618e-05,0,0,5.93727e-05,-59.9796,-11.5322)"
font-family="SimSun" font-size="9" font-weight="400" font-style="normal" 
>
<path vector-effect="none" fill-rule="evenodd" d="M3.67e+06,3.07e+06 L3.67e+06,4.43e+06 L4.82e+06,4.43e+06 L4.82e+06,3.07e+06 L3.67e+06,3.07e+06"/>
</g>

<g fill="#0000ff" fill-opacity="1" stroke="#0000ff" stroke-opacity="1" stroke-width="4.16667" stroke-linecap="butt" stroke-linejoin="round" transform="matrix(0.615618,0,0,0.593727,-59.9796,-11.5322)"
font-family="SimSun" font-size="9" font-weight="400" font-style="normal" 
>
<polyline fill="none" vector-effect="none" points="372.011,342.097 422.126,342.097 " />
</g>

<g fill="#000000" fill-opacity="1" stroke="#000000" stroke-opacity="1" stroke-dasharray="16,16" stroke-dashoffset="0" stroke-width="4.16667" stroke-linecap="butt" stroke-linejoin="round" transform="matrix(0.615618,0,0,0.593727,-59.9796,-11.5322)"
font-family="SimSun" font-size="9" font-weight="400" font-style="normal" 
>
<polyline fill="none" vector-effect="none" points="372.011,407.903 422.126,407.903 " />
</g>

<g fill="#212121" fill-opacity="1" stroke="none" transform="matrix(0.615618,0,0,0.593727,208.402,192.671)"
font-family="SimSun" font-size="9" font-weight="400" font-style="normal" 
>
<path vector-effect="none" fill-rule="evenodd" d="M6.0625,-24.2188 L5.1875,-25.1563 L11.25,-31.2188 L17.2656,-25.1563 L16.375,-24.2188 L11.25,-28.7188 L6.0625,-24.2188"/>
</g>

<g fill="#212121" fill-opacity="1" stroke="none" transform="matrix(0.615618,0,0,0.593727,202.203,199.425)"
font-family="SimSun" font-size="9" font-weight="400" font-style="normal" 
>
<path vector-effect="none" fill-rule="evenodd" d="M2.20313,0 C1.91146,0 1.76563,-0.197917 1.76563,-0.59375 C1.77604,-0.666667 1.80208,-0.794271 1.84375,-0.976563 C1.88542,-1.15885 1.94792,-1.30469 2.03125,-1.41406 C2.11458,-1.52344 2.21354,-1.57813 2.32813,-1.57813 C4.16146,-1.57813 5.44271,-1.68229 6.17188,-1.89063 C6.55729,-2.02604 6.83854,-2.42708 7.01563,-3.09375 L13.1875,-27.8125 C13.2396,-28.1042 13.2656,-28.3125 13.2656,-28.4375 C13.2656,-28.7604 13.0938,-28.9427 12.75,-28.9844 C12.1771,-29.099 11.0938,-29.1563 9.5,-29.1563 C9.19792,-29.1563 9.04688,-29.3542 9.04688,-29.75 C9.06771,-29.8229 9.09896,-29.9505 9.14063,-30.1328 C9.18229,-30.3151 9.24479,-30.4609 9.32813,-30.5703 C9.41146,-30.6797 9.51042,-30.7344 9.625,-30.7344 L25.1563,-30.7344 C26.5833,-30.7344 27.9635,-30.4818 29.2969,-29.9766 C30.6302,-29.4714 31.7214,-28.7005 32.5703,-27.6641 C33.4193,-26.6276 33.8438,-25.3698 33.8438,-23.8906 C33.8438,-21.9844 33.1719,-20.2839 31.8281,-18.7891 C30.4844,-17.2943 28.8125,-16.1302 26.8125,-15.2969 C24.8125,-14.4635 22.875,-14.0469 21,-14.0469 L13.6875,-14.0469 L10.9375,-2.92188 C10.8854,-2.63021 10.8594,-2.41667 10.8594,-2.28125 C10.8594,-2.16667 10.8776,-2.07031 10.9141,-1.99219 C10.9505,-1.91406 11,-1.86198 11.0625,-1.83594 C11.125,-1.8099 11.2292,-1.78646 11.375,-1.76563 C11.9479,-1.64063 13.0365,-1.57813 14.6406,-1.57813 C14.9323,-1.57813 15.0781,-1.38021 15.0781,-0.984375 C14.974,-0.567708 14.8932,-0.299479 14.8359,-0.179688 C14.7786,-0.0598958 14.599,0 14.2969,0 L2.20313,0 M13.9063,-15.375 L20.2188,-15.375 C23.1354,-15.375 25.3542,-16.1615 26.875,-17.7344 C27.6458,-18.5052 28.2786,-19.625 28.7734,-21.0938 C29.2682,-22.5625 29.5156,-23.8906 29.5156,-25.0781 C29.5156,-26.5573 28.9505,-27.6068 27.8203,-28.2266 C26.6901,-28.8464 25.2917,-29.1563 23.625,-29.1563 L19.3125,-29.1563 C18.4896,-29.1563 17.9479,-29.0859 17.6875,-28.9453 C17.4271,-28.8047 17.1875,-28.3646 16.9688,-27.625 L13.9063,-15.375"/>
</g>

<g fill="#212121" fill-opacity="1" stroke="none" transform="matrix(0.615618,0,0,0.593727,210.283,231.742)"
font-family="SimSun" font-size="9" font-weight="400" font-style="normal" 
>
<path vector-effect="none" fill-rule="evenodd" d="M6.0625,-24.2188 L5.1875,-25.1563 L11.25,-31.2188 L17.2656,-25.1563 L16.375,-24.2188 L11.25,-28.7188 L6.0625,-24.2188"/>
</g>

<g fill="#212121" fill-opacity="1" stroke="none" transform="matrix(0.615618,0,0,0.593727,202.203,238.496)"
font-family="SimSun" font-size="9" font-weight="400" font-style="normal" 
>
<path vector-effect="none" fill-rule="evenodd" d="M8.01563,0.5 L5.9375,-28.1719 C5.83333,-28.6094 5.5026,-28.8828 4.94531,-28.9922 C4.38802,-29.1016 3.69792,-29.1563 2.875,-29.1563 C2.58333,-29.1563 2.4375,-29.3542 2.4375,-29.75 C2.54167,-30.1354 2.6224,-30.3958 2.67969,-30.5313 C2.73698,-30.6667 2.90625,-30.7344 3.1875,-30.7344 L13.9063,-30.7344 C14.1979,-30.7344 14.3438,-30.5365 14.3438,-30.1406 C14.2292,-29.4844 14.0417,-29.1563 13.7813,-29.1563 C11.375,-29.1563 10.099,-28.7396 9.95313,-27.9063 L11.5625,-5.1875 L22.8125,-24.7813 L22.5938,-28.1719 C22.4896,-28.6094 22.1589,-28.8828 21.6016,-28.9922 C21.0443,-29.1016 20.3542,-29.1563 19.5313,-29.1563 C19.2292,-29.1563 19.0781,-29.3542 19.0781,-29.75 C19.1719,-30.1354 19.25,-30.3958 19.3125,-30.5313 C19.375,-30.6667 19.5521,-30.7344 19.8438,-30.7344 L30.5625,-30.7344 C30.8542,-30.7344 31,-30.5365 31,-30.1406 C30.9896,-30.0677 30.9609,-29.9453 30.9141,-29.7734 C30.8672,-29.6016 30.8073,-29.4557 30.7344,-29.3359 C30.6615,-29.2161 30.5521,-29.1563 30.4063,-29.1563 C27.9896,-29.1563 26.7188,-28.7396 26.5938,-27.9063 L26.5938,-27.5781 L28.2188,-5.1875 L40.4531,-26.5469 C40.6302,-26.8698 40.7188,-27.1823 40.7188,-27.4844 C40.7188,-28.099 40.4167,-28.5313 39.8125,-28.7813 C39.2083,-29.0313 38.5365,-29.1563 37.7969,-29.1563 C37.5052,-29.1563 37.3594,-29.3542 37.3594,-29.75 C37.4115,-29.9896 37.4557,-30.1745 37.4922,-30.3047 C37.5286,-30.4349 37.5964,-30.5391 37.6953,-30.6172 C37.7943,-30.6953 37.9375,-30.7344 38.125,-30.7344 L46.7188,-30.7344 C47.0104,-30.7344 47.1563,-30.5365 47.1563,-30.1406 C47.1354,-30.0677 47.1042,-29.9401 47.0625,-29.7578 C47.0208,-29.5755 46.9609,-29.4297 46.8828,-29.3203 C46.8047,-29.2109 46.7031,-29.1563 46.5781,-29.1563 C44.4427,-29.1563 42.8177,-28.1823 41.7031,-26.2344 C41.6198,-26.151 41.5781,-26.1094 41.5781,-26.1094 L26.3281,0.5 C26.1615,0.822917 25.901,0.984375 25.5469,0.984375 L25.2031,0.984375 C24.8385,0.984375 24.6563,0.822917 24.6563,0.5 L22.9375,-22.6719 L9.71875,0.5 C9.48958,0.822917 9.22396,0.984375 8.92188,0.984375 L8.54688,0.984375 C8.19271,0.984375 8.01563,0.822917 8.01563,0.5 "/>
</g>

<g fill="none" stroke="#212121" stroke-opacity="1" stroke-width="2" stroke-linecap="butt" stroke-linejoin="miter" stroke-miterlimit="2" transform="matrix(0.615618,0,0,0.593727,-59.9796,-11.5322)"
font-family="SimSun" font-size="9" font-weight="400" font-style="normal" 
>
<path vector-effect="none" fill-rule="evenodd" d="M367,443 L367,307 L482,307 L482,443 L367,443"/>
</g>
</g>
</svg>
